<svg width="931" height="124" viewBox="0 0 931 124" fill="none" xmlns="http://www.w3.org/2000/svg">
<path d="M38 47L54.125 1.90625H60.9062V9.9375H58.5625L46.4375 47H38ZM46.1562 35.3438L48.3125 29.125H68.9688L71.125 35.3438H46.1562ZM70.8438 47L58.7188 9.9375V1.90625H63.1875L79.2812 47H70.8438ZM83.3438 47V13.875H91.0938V19.0625H91.2812C92.1354 17.2708 93.4062 15.8438 95.0938 14.7812C96.8021 13.7188 98.9062 13.1875 101.406 13.1875C105.052 13.1875 107.865 14.2917 109.844 16.5C111.844 18.7083 112.844 21.7292 112.844 25.5625V47H105.062V27.125C105.062 24.7708 104.51 22.9583 103.406 21.6875C102.302 20.3958 100.646 19.75 98.4375 19.75C96.9583 19.75 95.6667 20.0938 94.5625 20.7812C93.4583 21.4479 92.6042 22.3854 92 23.5938C91.3958 24.7812 91.0938 26.1771 91.0938 27.7812V47H83.3438ZM132.75 47V1.90625H161.938V8.6875H140.812V20.8438H160.781V27.3438H140.812V40.2188H161.938V47H132.75ZM182.781 47.6562C179.51 47.6562 176.677 46.9583 174.281 45.5625C171.885 44.1667 170.031 42.1771 168.719 39.5938C167.427 37.0104 166.781 33.9479 166.781 30.4062V30.375C166.781 26.8542 167.438 23.8125 168.75 21.25C170.062 18.6667 171.906 16.6771 174.281 15.2812C176.677 13.8854 179.479 13.1875 182.688 13.1875C185.604 13.1875 188.125 13.75 190.25 14.875C192.375 15.9792 194.042 17.4479 195.25 19.2812C196.458 21.1146 197.146 23.1354 197.312 25.3438V25.5625H190L189.938 25.3125C189.625 23.7083 188.865 22.3438 187.656 21.2188C186.469 20.0729 184.844 19.5 182.781 19.5C181.156 19.5 179.729 19.9479 178.5 20.8438C177.292 21.7188 176.354 22.9688 175.688 24.5938C175.021 26.2188 174.688 28.1667 174.688 30.4375V30.4688C174.688 32.7604 175.021 34.7188 175.688 36.3438C176.375 37.9688 177.323 39.2188 178.531 40.0938C179.76 40.9479 181.188 41.375 182.812 41.375C184.792 41.375 186.385 40.8438 187.594 39.7812C188.823 38.6979 189.615 37.2917 189.969 35.5625L190.031 35.2812H197.375L197.344 35.5C197.135 37.7917 196.406 39.8542 195.156 41.6875C193.906 43.5208 192.229 44.9792 190.125 46.0625C188.021 47.125 185.573 47.6562 182.781 47.6562ZM216.688 47.6562C213.438 47.6562 210.615 46.9688 208.219 45.5938C205.823 44.1979 203.958 42.2188 202.625 39.6562C201.312 37.0729 200.656 34 200.656 30.4375V30.375C200.656 26.8333 201.323 23.7812 202.656 21.2188C203.99 18.6354 205.854 16.6562 208.25 15.2812C210.646 13.8854 213.448 13.1875 216.656 13.1875C219.885 13.1875 222.698 13.8854 225.094 15.2812C227.51 16.6562 229.385 18.625 230.719 21.1875C232.052 23.75 232.719 26.8125 232.719 30.375V30.4375C232.719 34.0208 232.052 37.1042 230.719 39.6875C229.406 42.25 227.552 44.2188 225.156 45.5938C222.76 46.9688 219.938 47.6562 216.688 47.6562ZM216.719 41.375C218.365 41.375 219.792 40.9479 221 40.0938C222.208 39.2396 223.135 38 223.781 36.375C224.448 34.7292 224.781 32.75 224.781 30.4375V30.375C224.781 28.0833 224.448 26.125 223.781 24.5C223.115 22.875 222.167 21.6354 220.938 20.7812C219.729 19.9271 218.302 19.5 216.656 19.5C215.052 19.5 213.635 19.9271 212.406 20.7812C211.198 21.6354 210.25 22.875 209.562 24.5C208.896 26.125 208.562 28.0833 208.562 30.375V30.4375C208.562 32.75 208.896 34.7292 209.562 36.375C210.25 38 211.198 39.2396 212.406 40.0938C213.635 40.9479 215.073 41.375 216.719 41.375ZM250.656 47.6562C247.76 47.6562 245.281 47.2292 243.219 46.375C241.177 45.5208 239.573 44.3229 238.406 42.7812C237.26 41.2188 236.562 39.4167 236.312 37.375L236.281 37.0938H243.938L244 37.375C244.292 38.8125 244.979 39.9271 246.062 40.7188C247.167 41.5104 248.708 41.9062 250.688 41.9062C251.958 41.9062 253.042 41.75 253.938 41.4375C254.833 41.125 255.521 40.6667 256 40.0625C256.5 39.4583 256.75 38.75 256.75 37.9375V37.9062C256.75 36.9271 256.417 36.1354 255.75 35.5312C255.083 34.9062 253.885 34.3958 252.156 34L246.656 32.7812C243.49 32.0938 241.104 30.9688 239.5 29.4062C237.917 27.8438 237.125 25.8333 237.125 23.375V23.3438C237.125 21.3229 237.677 19.5521 238.781 18.0312C239.885 16.5104 241.438 15.3229 243.438 14.4688C245.438 13.6146 247.76 13.1875 250.406 13.1875C253.156 13.1875 255.51 13.6458 257.469 14.5625C259.427 15.4792 260.938 16.7083 262 18.25C263.083 19.7917 263.667 21.5208 263.75 23.4375L263.781 23.7812H256.531L256.5 23.5312C256.333 22.1979 255.729 21.1042 254.688 20.25C253.646 19.375 252.219 18.9375 250.406 18.9375C249.26 18.9375 248.26 19.1042 247.406 19.4375C246.573 19.7708 245.927 20.2396 245.469 20.8438C245.031 21.4479 244.812 22.1562 244.812 22.9688V23C244.812 23.9375 245.167 24.7292 245.875 25.375C246.604 26.0208 247.823 26.5417 249.531 26.9375L255.031 28.1562C258.469 28.9271 260.917 30.0312 262.375 31.4688C263.833 32.8854 264.562 34.7917 264.562 37.1875V37.2188C264.562 39.3021 263.969 41.1354 262.781 42.7188C261.594 44.2812 259.948 45.5 257.844 46.375C255.76 47.2292 253.365 47.6562 250.656 47.6562ZM273.844 58C273.094 58 272.354 57.9583 271.625 57.875C270.917 57.8125 270.323 57.7396 269.844 57.6562V51.75C270.135 51.7917 270.5 51.8438 270.938 51.9062C271.375 51.9688 271.875 52 272.438 52C273.938 52 275.125 51.7396 276 51.2188C276.875 50.7188 277.562 49.7708 278.062 48.375L278.531 47.0312L266.625 13.875H275.094L283.344 42L282.156 40.375H283.812L282.625 42L290.875 13.875H299.062L287.125 48.125C286.292 50.5417 285.281 52.4688 284.094 53.9062C282.906 55.3646 281.469 56.4062 279.781 57.0312C278.115 57.6771 276.135 58 273.844 58ZM315.469 47.6562C312.573 47.6562 310.094 47.2292 308.031 46.375C305.99 45.5208 304.385 44.3229 303.219 42.7812C302.073 41.2188 301.375 39.4167 301.125 37.375L301.094 37.0938H308.75L308.812 37.375C309.104 38.8125 309.792 39.9271 310.875 40.7188C311.979 41.5104 313.521 41.9062 315.5 41.9062C316.771 41.9062 317.854 41.75 318.75 41.4375C319.646 41.125 320.333 40.6667 320.812 40.0625C321.312 39.4583 321.562 38.75 321.562 37.9375V37.9062C321.562 36.9271 321.229 36.1354 320.562 35.5312C319.896 34.9062 318.698 34.3958 316.969 34L311.469 32.7812C308.302 32.0938 305.917 30.9688 304.312 29.4062C302.729 27.8438 301.938 25.8333 301.938 23.375V23.3438C301.938 21.3229 302.49 19.5521 303.594 18.0312C304.698 16.5104 306.25 15.3229 308.25 14.4688C310.25 13.6146 312.573 13.1875 315.219 13.1875C317.969 13.1875 320.323 13.6458 322.281 14.5625C324.24 15.4792 325.75 16.7083 326.812 18.25C327.896 19.7917 328.479 21.5208 328.562 23.4375L328.594 23.7812H321.344L321.312 23.5312C321.146 22.1979 320.542 21.1042 319.5 20.25C318.458 19.375 317.031 18.9375 315.219 18.9375C314.073 18.9375 313.073 19.1042 312.219 19.4375C311.385 19.7708 310.74 20.2396 310.281 20.8438C309.844 21.4479 309.625 22.1562 309.625 22.9688V23C309.625 23.9375 309.979 24.7292 310.688 25.375C311.417 26.0208 312.635 26.5417 314.344 26.9375L319.844 28.1562C323.281 28.9271 325.729 30.0312 327.188 31.4688C328.646 32.8854 329.375 34.7917 329.375 37.1875V37.2188C329.375 39.3021 328.781 41.1354 327.594 42.7188C326.406 44.2812 324.76 45.5 322.656 46.375C320.573 47.2292 318.177 47.6562 315.469 47.6562ZM346.625 47.6562C343.188 47.6562 340.625 46.9062 338.938 45.4062C337.271 43.9062 336.438 41.4479 336.438 38.0312V19.875H331.75V13.875H336.438V5.46875H344.344V13.875H350.5V19.875H344.344V37.4062C344.344 39.0104 344.698 40.125 345.406 40.75C346.135 41.3542 347.198 41.6562 348.594 41.6562C348.99 41.6562 349.333 41.6458 349.625 41.625C349.938 41.5833 350.229 41.5521 350.5 41.5312V47.375C350.042 47.4375 349.479 47.5 348.812 47.5625C348.167 47.625 347.438 47.6562 346.625 47.6562ZM369.781 47.6562C366.469 47.6562 363.615 46.9583 361.219 45.5625C358.844 44.1667 357.021 42.1875 355.75 39.625C354.479 37.0625 353.844 34.0312 353.844 30.5312V30.5C353.844 27.0208 354.479 23.9896 355.75 21.4062C357.042 18.8021 358.844 16.7812 361.156 15.3438C363.49 13.9062 366.24 13.1875 369.406 13.1875C372.552 13.1875 375.271 13.8854 377.562 15.2812C379.875 16.6562 381.646 18.5938 382.875 21.0938C384.125 23.5938 384.75 26.5104 384.75 29.8438V32.3438H357.688V27.1562H381.031L377.281 32V29C377.281 26.8333 376.948 25.0312 376.281 23.5938C375.615 22.1562 374.698 21.0833 373.531 20.375C372.365 19.6458 371.021 19.2812 369.5 19.2812C367.958 19.2812 366.583 19.6562 365.375 20.4062C364.188 21.1354 363.25 22.2292 362.562 23.6875C361.896 25.1458 361.562 26.9167 361.562 29V32C361.562 34.0208 361.896 35.75 362.562 37.1875C363.25 38.6042 364.219 39.6979 365.469 40.4688C366.719 41.2188 368.208 41.5938 369.938 41.5938C371.229 41.5938 372.365 41.3958 373.344 41C374.323 40.5833 375.125 40.0521 375.75 39.4062C376.396 38.7604 376.844 38.0625 377.094 37.3125L377.156 37.0938H384.406L384.344 37.4375C384.073 38.7083 383.573 39.9583 382.844 41.1875C382.115 42.3958 381.135 43.4896 379.906 44.4688C378.677 45.4479 377.219 46.2292 375.531 46.8125C373.844 47.375 371.927 47.6562 369.781 47.6562ZM389.719 47V13.875H397.469V19.1875H397.656C398.344 17.375 399.5 15.9271 401.125 14.8438C402.75 13.7396 404.656 13.1875 406.844 13.1875C408.385 13.1875 409.771 13.4583 411 14C412.229 14.5208 413.271 15.2812 414.125 16.2812C415 17.2604 415.635 18.4583 416.031 19.875H416.188C416.729 18.5 417.5 17.3229 418.5 16.3438C419.521 15.3438 420.708 14.5729 422.062 14.0312C423.438 13.4688 424.917 13.1875 426.5 13.1875C428.688 13.1875 430.583 13.6562 432.188 14.5938C433.812 15.5104 435.073 16.8021 435.969 18.4688C436.885 20.1146 437.344 22.0521 437.344 24.2812V47H429.562V26.1875C429.562 24.1458 429.052 22.5625 428.031 21.4375C427.01 20.3125 425.542 19.75 423.625 19.75C422.375 19.75 421.271 20.0417 420.312 20.625C419.375 21.1875 418.635 21.9792 418.094 23C417.573 24.0208 417.312 25.1979 417.312 26.5312V47H409.75V25.7812C409.75 23.9062 409.219 22.4375 408.156 21.375C407.115 20.2917 405.688 19.75 403.875 19.75C402.625 19.75 401.521 20.0521 400.562 20.6562C399.604 21.2604 398.844 22.0833 398.281 23.125C397.74 24.1667 397.469 25.3646 397.469 26.7188V47H389.719ZM457.25 47V1.90625H486V8.6875H465.312V22.0312H484.219V28.5938H465.312V47H457.25ZM504.688 47.6562C501.438 47.6562 498.615 46.9688 496.219 45.5938C493.823 44.1979 491.958 42.2188 490.625 39.6562C489.312 37.0729 488.656 34 488.656 30.4375V30.375C488.656 26.8333 489.323 23.7812 490.656 21.2188C491.99 18.6354 493.854 16.6562 496.25 15.2812C498.646 13.8854 501.448 13.1875 504.656 13.1875C507.885 13.1875 510.698 13.8854 513.094 15.2812C515.51 16.6562 517.385 18.625 518.719 21.1875C520.052 23.75 520.719 26.8125 520.719 30.375V30.4375C520.719 34.0208 520.052 37.1042 518.719 39.6875C517.406 42.25 515.552 44.2188 513.156 45.5938C510.76 46.9688 507.938 47.6562 504.688 47.6562ZM504.719 41.375C506.365 41.375 507.792 40.9479 509 40.0938C510.208 39.2396 511.135 38 511.781 36.375C512.448 34.7292 512.781 32.75 512.781 30.4375V30.375C512.781 28.0833 512.448 26.125 511.781 24.5C511.115 22.875 510.167 21.6354 508.938 20.7812C507.729 19.9271 506.302 19.5 504.656 19.5C503.052 19.5 501.635 19.9271 500.406 20.7812C499.198 21.6354 498.25 22.875 497.562 24.5C496.896 26.125 496.562 28.0833 496.562 30.375V30.4375C496.562 32.75 496.896 34.7292 497.562 36.375C498.25 38 499.198 39.2396 500.406 40.0938C501.635 40.9479 503.073 41.375 504.719 41.375ZM525.719 47V13.875H533.469V19.5938H533.656C534.156 17.5938 535.062 16.0312 536.375 14.9062C537.708 13.7604 539.333 13.1875 541.25 13.1875C541.729 13.1875 542.188 13.2188 542.625 13.2812C543.062 13.3438 543.427 13.4167 543.719 13.5V20.5312C543.406 20.4062 542.958 20.3021 542.375 20.2188C541.812 20.1354 541.198 20.0938 540.531 20.0938C539.073 20.0938 537.812 20.3958 536.75 21C535.688 21.5833 534.875 22.4479 534.312 23.5938C533.75 24.7396 533.469 26.1354 533.469 27.7812V47H525.719ZM574.062 47V29.2188L558.25 1.90625H567.062L577.969 21.5312H578.188L589.094 1.90625H597.906L582.094 29.2188V47H574.062ZM610.062 47.6562C606.812 47.6562 603.99 46.9688 601.594 45.5938C599.198 44.1979 597.333 42.2188 596 39.6562C594.688 37.0729 594.031 34 594.031 30.4375V30.375C594.031 26.8333 594.698 23.7812 596.031 21.2188C597.365 18.6354 599.229 16.6562 601.625 15.2812C604.021 13.8854 606.823 13.1875 610.031 13.1875C613.26 13.1875 616.073 13.8854 618.469 15.2812C620.885 16.6562 622.76 18.625 624.094 21.1875C625.427 23.75 626.094 26.8125 626.094 30.375V30.4375C626.094 34.0208 625.427 37.1042 624.094 39.6875C622.781 42.25 620.927 44.2188 618.531 45.5938C616.135 46.9688 613.312 47.6562 610.062 47.6562ZM610.094 41.375C611.74 41.375 613.167 40.9479 614.375 40.0938C615.583 39.2396 616.51 38 617.156 36.375C617.823 34.7292 618.156 32.75 618.156 30.4375V30.375C618.156 28.0833 617.823 26.125 617.156 24.5C616.49 22.875 615.542 21.6354 614.312 20.7812C613.104 19.9271 611.677 19.5 610.031 19.5C608.427 19.5 607.01 19.9271 605.781 20.7812C604.573 21.6354 603.625 22.875 602.938 24.5C602.271 26.125 601.938 28.0833 601.938 30.375V30.4375C601.938 32.75 602.271 34.7292 602.938 36.375C603.625 38 604.573 39.2396 605.781 40.0938C607.01 40.9479 608.448 41.375 610.094 41.375ZM642.375 47.6562C639.938 47.6562 637.865 47.1667 636.156 46.1875C634.469 45.1875 633.177 43.7604 632.281 41.9062C631.385 40.0521 630.938 37.8542 630.938 35.3125V13.875H638.688V33.75C638.688 36.1042 639.24 37.9271 640.344 39.2188C641.448 40.4896 643.115 41.125 645.344 41.125C646.823 41.125 648.104 40.7917 649.188 40.125C650.292 39.4375 651.146 38.4896 651.75 37.2812C652.354 36.0729 652.656 34.6667 652.656 33.0625V13.875H660.438V47H652.656V41.8125H652.5C651.646 43.5833 650.375 45 648.688 46.0625C647 47.125 644.896 47.6562 642.375 47.6562ZM691.531 47V8.6875H678.031V1.90625H713.031V8.6875H699.562V47H691.531ZM724.688 47.6562C721.438 47.6562 718.615 46.9688 716.219 45.5938C713.823 44.1979 711.958 42.2188 710.625 39.6562C709.312 37.0729 708.656 34 708.656 30.4375V30.375C708.656 26.8333 709.323 23.7812 710.656 21.2188C711.99 18.6354 713.854 16.6562 716.25 15.2812C718.646 13.8854 721.448 13.1875 724.656 13.1875C727.885 13.1875 730.698 13.8854 733.094 15.2812C735.51 16.6562 737.385 18.625 738.719 21.1875C740.052 23.75 740.719 26.8125 740.719 30.375V30.4375C740.719 34.0208 740.052 37.1042 738.719 39.6875C737.406 42.25 735.552 44.2188 733.156 45.5938C730.76 46.9688 727.938 47.6562 724.688 47.6562ZM724.719 41.375C726.365 41.375 727.792 40.9479 729 40.0938C730.208 39.2396 731.135 38 731.781 36.375C732.448 34.7292 732.781 32.75 732.781 30.4375V30.375C732.781 28.0833 732.448 26.125 731.781 24.5C731.115 22.875 730.167 21.6354 728.938 20.7812C727.729 19.9271 726.302 19.5 724.656 19.5C723.052 19.5 721.635 19.9271 720.406 20.7812C719.198 21.6354 718.25 22.875 717.562 24.5C716.896 26.125 716.562 28.0833 716.562 30.375V30.4375C716.562 32.75 716.896 34.7292 717.562 36.375C718.25 38 719.198 39.2396 720.406 40.0938C721.635 40.9479 723.073 41.375 724.719 41.375ZM278.531 123L294.656 77.9062H301.438V85.9375H299.094L286.969 123H278.531ZM286.688 111.344L288.844 105.125H309.5L311.656 111.344H286.688ZM311.375 123L299.25 85.9375V77.9062H303.719L319.812 123H311.375ZM323.875 123V89.875H331.625V95.0625H331.812C332.667 93.2708 333.938 91.8438 335.625 90.7812C337.333 89.7188 339.438 89.1875 341.938 89.1875C345.583 89.1875 348.396 90.2917 350.375 92.5C352.375 94.7083 353.375 97.7292 353.375 101.562V123H345.594V103.125C345.594 100.771 345.042 98.9583 343.938 97.6875C342.833 96.3958 341.177 95.75 338.969 95.75C337.49 95.75 336.198 96.0938 335.094 96.7812C333.99 97.4479 333.135 98.3854 332.531 99.5938C331.927 100.781 331.625 102.177 331.625 103.781V123H323.875ZM371.938 123.656C369.146 123.656 366.719 122.969 364.656 121.594C362.615 120.198 361.031 118.208 359.906 115.625C358.802 113.042 358.25 109.979 358.25 106.438V106.406C358.25 102.844 358.812 99.7812 359.938 97.2188C361.062 94.6354 362.646 92.6562 364.688 91.2812C366.729 89.8854 369.135 89.1875 371.906 89.1875C374.26 89.1875 376.333 89.7604 378.125 90.9062C379.938 92.0312 381.312 93.5833 382.25 95.5625H382.438V77.9062H390.188V123H382.438V117.375H382.25C381.312 119.333 379.958 120.875 378.188 122C376.417 123.104 374.333 123.656 371.938 123.656ZM374.281 117.125C375.885 117.125 377.302 116.688 378.531 115.812C379.76 114.938 380.719 113.698 381.406 112.094C382.094 110.49 382.438 108.604 382.438 106.438V106.406C382.438 104.24 382.083 102.365 381.375 100.781C380.688 99.1771 379.729 97.9375 378.5 97.0625C377.292 96.1875 375.885 95.75 374.281 95.75C372.615 95.75 371.167 96.1875 369.938 97.0625C368.729 97.9167 367.792 99.1354 367.125 100.719C366.479 102.302 366.156 104.198 366.156 106.406V106.438C366.156 108.625 366.479 110.521 367.125 112.125C367.792 113.729 368.729 114.969 369.938 115.844C371.167 116.698 372.615 117.125 374.281 117.125Z" fill="#096187" fill-opacity="0.5"/>
<path d="M756.25 47L772.375 1.90625H779.156V9.9375H776.812L764.688 47H756.25ZM764.406 35.3438L766.562 29.125H787.219L789.375 35.3438H764.406ZM789.094 47L776.969 9.9375V1.90625H781.438L797.531 47H789.094ZM807.719 47L796 13.875H804.281L811.969 39.7812H812.156L819.844 13.875H827.938L816.281 47H807.719ZM840.562 47.5625C838.375 47.5625 836.438 47.1458 834.75 46.3125C833.083 45.4583 831.781 44.2812 830.844 42.7812C829.927 41.2604 829.469 39.5208 829.469 37.5625V37.5C829.469 34.5625 830.562 32.2396 832.75 30.5312C834.958 28.8021 838.062 27.8229 842.062 27.5938L854.719 26.8125V31.9688L843.156 32.6875C841.24 32.8125 839.771 33.2708 838.75 34.0625C837.729 34.8542 837.219 35.9062 837.219 37.2188V37.25C837.219 38.6042 837.729 39.6771 838.75 40.4688C839.792 41.2396 841.167 41.625 842.875 41.625C844.375 41.625 845.708 41.3229 846.875 40.7188C848.062 40.1146 849 39.2917 849.688 38.25C850.375 37.2083 850.719 36.0312 850.719 34.7188V24.7812C850.719 23.1146 850.188 21.8021 849.125 20.8438C848.083 19.8646 846.573 19.375 844.594 19.375C842.76 19.375 841.292 19.7708 840.188 20.5625C839.083 21.3333 838.396 22.3333 838.125 23.5625L838.062 23.8438H830.875L830.906 23.4688C831.073 21.5104 831.729 19.7604 832.875 18.2188C834.021 16.6562 835.604 15.4271 837.625 14.5312C839.667 13.6354 842.083 13.1875 844.875 13.1875C847.646 13.1875 850.042 13.6458 852.062 14.5625C854.104 15.4792 855.677 16.7604 856.781 18.4062C857.906 20.0521 858.469 21.9896 858.469 24.2188V47H850.719V41.9062H850.531C849.906 43.0521 849.094 44.0521 848.094 44.9062C847.094 45.7604 845.948 46.4167 844.656 46.875C843.385 47.3333 842.021 47.5625 840.562 47.5625ZM865 47V13.875H872.781V47H865ZM868.875 9.125C867.667 9.125 866.646 8.70833 865.812 7.875C864.979 7.04167 864.562 6.04167 864.562 4.875C864.562 3.6875 864.979 2.6875 865.812 1.875C866.646 1.04167 867.667 0.625 868.875 0.625C870.104 0.625 871.135 1.04167 871.969 1.875C872.802 2.6875 873.219 3.6875 873.219 4.875C873.219 6.04167 872.802 7.04167 871.969 7.875C871.135 8.70833 870.104 9.125 868.875 9.125ZM879.625 47V1.90625H887.406V47H879.625ZM0.15625 123V77.9062H29.3438V84.6875H8.21875V96.8438H28.1875V103.344H8.21875V116.219H29.3438V123H0.15625ZM37.7188 123V95.875H33.1875V89.875H37.7188V86.7188C37.7188 83.4896 38.5208 81.1042 40.125 79.5625C41.75 78.0208 44.3646 77.25 47.9688 77.25C48.7396 77.25 49.5 77.2812 50.25 77.3438C51.0208 77.4062 51.6458 77.4792 52.125 77.5625V83C51.7917 82.9583 51.4167 82.9271 51 82.9062C50.6042 82.8646 50.1979 82.8438 49.7812 82.8438C48.2604 82.8438 47.1354 83.1875 46.4062 83.875C45.6979 84.5625 45.3438 85.5833 45.3438 86.9375V89.875H52V95.875H45.5V123H37.7188ZM59.2812 123V95.875H54.75V89.875H59.2812V86.7188C59.2812 83.4896 60.0833 81.1042 61.6875 79.5625C63.3125 78.0208 65.9271 77.25 69.5312 77.25C70.3021 77.25 71.0625 77.2812 71.8125 77.3438C72.5833 77.4062 73.2083 77.4792 73.6875 77.5625V83C73.3542 82.9583 72.9792 82.9271 72.5625 82.9062C72.1667 82.8646 71.7604 82.8438 71.3438 82.8438C69.8229 82.8438 68.6979 83.1875 67.9688 83.875C67.2604 84.5625 66.9062 85.5833 66.9062 86.9375V89.875H73.5625V95.875H67.0625V123H59.2812ZM90.7188 123.656C87.4688 123.656 84.6458 122.969 82.25 121.594C79.8542 120.198 77.9896 118.219 76.6562 115.656C75.3438 113.073 74.6875 110 74.6875 106.438V106.375C74.6875 102.833 75.3542 99.7812 76.6875 97.2188C78.0208 94.6354 79.8854 92.6562 82.2812 91.2812C84.6771 89.8854 87.4792 89.1875 90.6875 89.1875C93.9167 89.1875 96.7292 89.8854 99.125 91.2812C101.542 92.6562 103.417 94.625 104.75 97.1875C106.083 99.75 106.75 102.812 106.75 106.375V106.438C106.75 110.021 106.083 113.104 104.75 115.688C103.438 118.25 101.583 120.219 99.1875 121.594C96.7917 122.969 93.9688 123.656 90.7188 123.656ZM90.75 117.375C92.3958 117.375 93.8229 116.948 95.0312 116.094C96.2396 115.24 97.1667 114 97.8125 112.375C98.4792 110.729 98.8125 108.75 98.8125 106.438V106.375C98.8125 104.083 98.4792 102.125 97.8125 100.5C97.1458 98.875 96.1979 97.6354 94.9688 96.7812C93.7604 95.9271 92.3333 95.5 90.6875 95.5C89.0833 95.5 87.6667 95.9271 86.4375 96.7812C85.2292 97.6354 84.2812 98.875 83.5938 100.5C82.9271 102.125 82.5938 104.083 82.5938 106.375V106.438C82.5938 108.75 82.9271 110.729 83.5938 112.375C84.2812 114 85.2292 115.24 86.4375 116.094C87.6667 116.948 89.1042 117.375 90.75 117.375ZM111.75 123V89.875H119.5V95.5938H119.688C120.188 93.5938 121.094 92.0312 122.406 90.9062C123.74 89.7604 125.365 89.1875 127.281 89.1875C127.76 89.1875 128.219 89.2188 128.656 89.2812C129.094 89.3438 129.458 89.4167 129.75 89.5V96.5312C129.438 96.4062 128.99 96.3021 128.406 96.2188C127.844 96.1354 127.229 96.0938 126.562 96.0938C125.104 96.0938 123.844 96.3958 122.781 97C121.719 97.5833 120.906 98.4479 120.344 99.5938C119.781 100.74 119.5 102.135 119.5 103.781V123H111.75ZM146.031 123.656C142.594 123.656 140.031 122.906 138.344 121.406C136.677 119.906 135.844 117.448 135.844 114.031V95.875H131.156V89.875H135.844V81.4688H143.75V89.875H149.906V95.875H143.75V113.406C143.75 115.01 144.104 116.125 144.812 116.75C145.542 117.354 146.604 117.656 148 117.656C148.396 117.656 148.74 117.646 149.031 117.625C149.344 117.583 149.635 117.552 149.906 117.531V123.375C149.448 123.438 148.885 123.5 148.219 123.562C147.573 123.625 146.844 123.656 146.031 123.656ZM155.469 123V77.9062H163.25V123H155.469ZM184.438 123.656C181.125 123.656 178.271 122.958 175.875 121.562C173.5 120.167 171.677 118.188 170.406 115.625C169.135 113.062 168.5 110.031 168.5 106.531V106.5C168.5 103.021 169.135 99.9896 170.406 97.4062C171.698 94.8021 173.5 92.7812 175.812 91.3438C178.146 89.9062 180.896 89.1875 184.062 89.1875C187.208 89.1875 189.927 89.8854 192.219 91.2812C194.531 92.6562 196.302 94.5938 197.531 97.0938C198.781 99.5938 199.406 102.51 199.406 105.844V108.344H172.344V103.156H195.688L191.938 108V105C191.938 102.833 191.604 101.031 190.938 99.5938C190.271 98.1562 189.354 97.0833 188.188 96.375C187.021 95.6458 185.677 95.2812 184.156 95.2812C182.615 95.2812 181.24 95.6562 180.031 96.4062C178.844 97.1354 177.906 98.2292 177.219 99.6875C176.552 101.146 176.219 102.917 176.219 105V108C176.219 110.021 176.552 111.75 177.219 113.188C177.906 114.604 178.875 115.698 180.125 116.469C181.375 117.219 182.865 117.594 184.594 117.594C185.885 117.594 187.021 117.396 188 117C188.979 116.583 189.781 116.052 190.406 115.406C191.052 114.76 191.5 114.062 191.75 113.312L191.812 113.094H199.062L199 113.438C198.729 114.708 198.229 115.958 197.5 117.188C196.771 118.396 195.792 119.49 194.562 120.469C193.333 121.448 191.875 122.229 190.188 122.812C188.5 123.375 186.583 123.656 184.438 123.656ZM217.312 123.656C214.417 123.656 211.938 123.229 209.875 122.375C207.833 121.521 206.229 120.323 205.062 118.781C203.917 117.219 203.219 115.417 202.969 113.375L202.938 113.094H210.594L210.656 113.375C210.948 114.812 211.635 115.927 212.719 116.719C213.823 117.51 215.365 117.906 217.344 117.906C218.615 117.906 219.698 117.75 220.594 117.438C221.49 117.125 222.177 116.667 222.656 116.062C223.156 115.458 223.406 114.75 223.406 113.938V113.906C223.406 112.927 223.073 112.135 222.406 111.531C221.74 110.906 220.542 110.396 218.812 110L213.312 108.781C210.146 108.094 207.76 106.969 206.156 105.406C204.573 103.844 203.781 101.833 203.781 99.375V99.3438C203.781 97.3229 204.333 95.5521 205.438 94.0312C206.542 92.5104 208.094 91.3229 210.094 90.4688C212.094 89.6146 214.417 89.1875 217.062 89.1875C219.812 89.1875 222.167 89.6458 224.125 90.5625C226.083 91.4792 227.594 92.7083 228.656 94.25C229.74 95.7917 230.323 97.5208 230.406 99.4375L230.438 99.7812H223.188L223.156 99.5312C222.99 98.1979 222.385 97.1042 221.344 96.25C220.302 95.375 218.875 94.9375 217.062 94.9375C215.917 94.9375 214.917 95.1042 214.062 95.4375C213.229 95.7708 212.583 96.2396 212.125 96.8438C211.688 97.4479 211.469 98.1562 211.469 98.9688V99C211.469 99.9375 211.823 100.729 212.531 101.375C213.26 102.021 214.479 102.542 216.188 102.938L221.688 104.156C225.125 104.927 227.573 106.031 229.031 107.469C230.49 108.885 231.219 110.792 231.219 113.188V113.219C231.219 115.302 230.625 117.135 229.438 118.719C228.25 120.281 226.604 121.5 224.5 122.375C222.417 123.229 220.021 123.656 217.312 123.656ZM249.125 123.656C246.229 123.656 243.75 123.229 241.688 122.375C239.646 121.521 238.042 120.323 236.875 118.781C235.729 117.219 235.031 115.417 234.781 113.375L234.75 113.094H242.406L242.469 113.375C242.76 114.812 243.448 115.927 244.531 116.719C245.635 117.51 247.177 117.906 249.156 117.906C250.427 117.906 251.51 117.75 252.406 117.438C253.302 117.125 253.99 116.667 254.469 116.062C254.969 115.458 255.219 114.75 255.219 113.938V113.906C255.219 112.927 254.885 112.135 254.219 111.531C253.552 110.906 252.354 110.396 250.625 110L245.125 108.781C241.958 108.094 239.573 106.969 237.969 105.406C236.385 103.844 235.594 101.833 235.594 99.375V99.3438C235.594 97.3229 236.146 95.5521 237.25 94.0312C238.354 92.5104 239.906 91.3229 241.906 90.4688C243.906 89.6146 246.229 89.1875 248.875 89.1875C251.625 89.1875 253.979 89.6458 255.938 90.5625C257.896 91.4792 259.406 92.7083 260.469 94.25C261.552 95.7917 262.135 97.5208 262.219 99.4375L262.25 99.7812H255L254.969 99.5312C254.802 98.1979 254.198 97.1042 253.156 96.25C252.115 95.375 250.688 94.9375 248.875 94.9375C247.729 94.9375 246.729 95.1042 245.875 95.4375C245.042 95.7708 244.396 96.2396 243.938 96.8438C243.5 97.4479 243.281 98.1562 243.281 98.9688V99C243.281 99.9375 243.635 100.729 244.344 101.375C245.073 102.021 246.292 102.542 248 102.938L253.5 104.156C256.938 104.927 259.385 106.031 260.844 107.469C262.302 108.885 263.031 110.792 263.031 113.188V113.219C263.031 115.302 262.438 117.135 261.25 118.719C260.062 120.281 258.417 121.5 256.312 122.375C254.229 123.229 251.833 123.656 249.125 123.656ZM410.406 123V77.9062H419.719L433.531 112.375H433.75L447.562 77.9062H456.875V123H449.625V90.9062H445.906L454.125 79.1562L436.375 123H430.906L413.156 79.1562L421.375 90.9062H417.656V123H410.406ZM473.031 123.562C470.844 123.562 468.906 123.146 467.219 122.312C465.552 121.458 464.25 120.281 463.312 118.781C462.396 117.26 461.938 115.521 461.938 113.562V113.5C461.938 110.562 463.031 108.24 465.219 106.531C467.427 104.802 470.531 103.823 474.531 103.594L487.188 102.812V107.969L475.625 108.688C473.708 108.812 472.24 109.271 471.219 110.062C470.198 110.854 469.688 111.906 469.688 113.219V113.25C469.688 114.604 470.198 115.677 471.219 116.469C472.26 117.24 473.635 117.625 475.344 117.625C476.844 117.625 478.177 117.323 479.344 116.719C480.531 116.115 481.469 115.292 482.156 114.25C482.844 113.208 483.188 112.031 483.188 110.719V100.781C483.188 99.1146 482.656 97.8021 481.594 96.8438C480.552 95.8646 479.042 95.375 477.062 95.375C475.229 95.375 473.76 95.7708 472.656 96.5625C471.552 97.3333 470.865 98.3333 470.594 99.5625L470.531 99.8438H463.344L463.375 99.4688C463.542 97.5104 464.198 95.7604 465.344 94.2188C466.49 92.6562 468.073 91.4271 470.094 90.5312C472.135 89.6354 474.552 89.1875 477.344 89.1875C480.115 89.1875 482.51 89.6458 484.531 90.5625C486.573 91.4792 488.146 92.7604 489.25 94.4062C490.375 96.0521 490.938 97.9896 490.938 100.219V123H483.188V117.906H483C482.375 119.052 481.562 120.052 480.562 120.906C479.562 121.76 478.417 122.417 477.125 122.875C475.854 123.333 474.49 123.562 473.031 123.562ZM494.844 123L505.562 106.469L494.969 89.875H503.719L510.375 101.5H510.531L517.156 89.875H525.656L515 106.25L525.531 123H517.062L510.156 111.125H510L503.156 123H494.844ZM529.844 123V89.875H537.625V123H529.844ZM533.719 85.125C532.51 85.125 531.49 84.7083 530.656 83.875C529.823 83.0417 529.406 82.0417 529.406 80.875C529.406 79.6875 529.823 78.6875 530.656 77.875C531.49 77.0417 532.51 76.625 533.719 76.625C534.948 76.625 535.979 77.0417 536.812 77.875C537.646 78.6875 538.062 79.6875 538.062 80.875C538.062 82.0417 537.646 83.0417 536.812 83.875C535.979 84.7083 534.948 85.125 533.719 85.125ZM544.25 123V89.875H552V95.1875H552.188C552.875 93.375 554.031 91.9271 555.656 90.8438C557.281 89.7396 559.188 89.1875 561.375 89.1875C562.917 89.1875 564.302 89.4583 565.531 90C566.76 90.5208 567.802 91.2812 568.656 92.2812C569.531 93.2604 570.167 94.4583 570.562 95.875H570.719C571.26 94.5 572.031 93.3229 573.031 92.3438C574.052 91.3438 575.24 90.5729 576.594 90.0312C577.969 89.4688 579.448 89.1875 581.031 89.1875C583.219 89.1875 585.115 89.6562 586.719 90.5938C588.344 91.5104 589.604 92.8021 590.5 94.4688C591.417 96.1146 591.875 98.0521 591.875 100.281V123H584.094V102.188C584.094 100.146 583.583 98.5625 582.562 97.4375C581.542 96.3125 580.073 95.75 578.156 95.75C576.906 95.75 575.802 96.0417 574.844 96.625C573.906 97.1875 573.167 97.9792 572.625 99C572.104 100.021 571.844 101.198 571.844 102.531V123H564.281V101.781C564.281 99.9062 563.75 98.4375 562.688 97.375C561.646 96.2917 560.219 95.75 558.406 95.75C557.156 95.75 556.052 96.0521 555.094 96.6562C554.135 97.2604 553.375 98.0833 552.812 99.125C552.271 100.167 552 101.365 552 102.719V123H544.25ZM609.406 123.656C606.969 123.656 604.896 123.167 603.188 122.188C601.5 121.188 600.208 119.76 599.312 117.906C598.417 116.052 597.969 113.854 597.969 111.312V89.875H605.719V109.75C605.719 112.104 606.271 113.927 607.375 115.219C608.479 116.49 610.146 117.125 612.375 117.125C613.854 117.125 615.135 116.792 616.219 116.125C617.323 115.438 618.177 114.49 618.781 113.281C619.385 112.073 619.688 110.667 619.688 109.062V89.875H627.469V123H619.688V117.812H619.531C618.677 119.583 617.406 121 615.719 122.062C614.031 123.125 611.927 123.656 609.406 123.656ZM633.875 123V89.875H641.625V95.1875H641.812C642.5 93.375 643.656 91.9271 645.281 90.8438C646.906 89.7396 648.812 89.1875 651 89.1875C652.542 89.1875 653.927 89.4583 655.156 90C656.385 90.5208 657.427 91.2812 658.281 92.2812C659.156 93.2604 659.792 94.4583 660.188 95.875H660.344C660.885 94.5 661.656 93.3229 662.656 92.3438C663.677 91.3438 664.865 90.5729 666.219 90.0312C667.594 89.4688 669.073 89.1875 670.656 89.1875C672.844 89.1875 674.74 89.6562 676.344 90.5938C677.969 91.5104 679.229 92.8021 680.125 94.4688C681.042 96.1146 681.5 98.0521 681.5 100.281V123H673.719V102.188C673.719 100.146 673.208 98.5625 672.188 97.4375C671.167 96.3125 669.698 95.75 667.781 95.75C666.531 95.75 665.427 96.0417 664.469 96.625C663.531 97.1875 662.792 97.9792 662.25 99C661.729 100.021 661.469 101.198 661.469 102.531V123H653.906V101.781C653.906 99.9062 653.375 98.4375 652.312 97.375C651.271 96.2917 649.844 95.75 648.031 95.75C646.781 95.75 645.677 96.0521 644.719 96.6562C643.76 97.2604 643 98.0833 642.438 99.125C641.896 100.167 641.625 101.365 641.625 102.719V123H633.875ZM705.438 123V116.75H718.469C721.427 116.75 723.677 116.156 725.219 114.969C726.781 113.781 727.562 112.052 727.562 109.781V109.719C727.562 108.198 727.198 106.927 726.469 105.906C725.76 104.865 724.698 104.094 723.281 103.594C721.865 103.073 720.104 102.812 718 102.812H705.438V96.9688H716.719C719.635 96.9688 721.854 96.3958 723.375 95.25C724.896 94.1042 725.656 92.4583 725.656 90.3125V90.25C725.656 88.3125 724.99 86.8125 723.656 85.75C722.344 84.6875 720.49 84.1562 718.094 84.1562H705.438V77.9062H720.125C722.875 77.9062 725.25 78.375 727.25 79.3125C729.271 80.2292 730.833 81.5312 731.938 83.2188C733.062 84.9062 733.625 86.8958 733.625 89.1875V89.25C733.625 90.875 733.25 92.3958 732.5 93.8125C731.771 95.2083 730.76 96.3854 729.469 97.3438C728.177 98.2812 726.729 98.8646 725.125 99.0938V99.25C727.229 99.4375 729.083 100.021 730.688 101C732.292 101.979 733.542 103.26 734.438 104.844C735.333 106.406 735.781 108.188 735.781 110.188V110.25C735.781 112.875 735.156 115.146 733.906 117.062C732.656 118.958 730.875 120.427 728.562 121.469C726.271 122.49 723.521 123 720.312 123H705.438ZM701.406 123V77.9062H709.469V123H701.406ZM755.312 123.656C752 123.656 749.146 122.958 746.75 121.562C744.375 120.167 742.552 118.188 741.281 115.625C740.01 113.062 739.375 110.031 739.375 106.531V106.5C739.375 103.021 740.01 99.9896 741.281 97.4062C742.573 94.8021 744.375 92.7812 746.688 91.3438C749.021 89.9062 751.771 89.1875 754.938 89.1875C758.083 89.1875 760.802 89.8854 763.094 91.2812C765.406 92.6562 767.177 94.5938 768.406 97.0938C769.656 99.5938 770.281 102.51 770.281 105.844V108.344H743.219V103.156H766.562L762.812 108V105C762.812 102.833 762.479 101.031 761.812 99.5938C761.146 98.1562 760.229 97.0833 759.062 96.375C757.896 95.6458 756.552 95.2812 755.031 95.2812C753.49 95.2812 752.115 95.6562 750.906 96.4062C749.719 97.1354 748.781 98.2292 748.094 99.6875C747.427 101.146 747.094 102.917 747.094 105V108C747.094 110.021 747.427 111.75 748.094 113.188C748.781 114.604 749.75 115.698 751 116.469C752.25 117.219 753.74 117.594 755.469 117.594C756.76 117.594 757.896 117.396 758.875 117C759.854 116.583 760.656 116.052 761.281 115.406C761.927 114.76 762.375 114.062 762.625 113.312L762.688 113.094H769.938L769.875 113.438C769.604 114.708 769.104 115.958 768.375 117.188C767.646 118.396 766.667 119.49 765.438 120.469C764.208 121.448 762.75 122.229 761.062 122.812C759.375 123.375 757.458 123.656 755.312 123.656ZM775.25 123V89.875H783V95.0625H783.188C784.042 93.2708 785.312 91.8438 787 90.7812C788.708 89.7188 790.812 89.1875 793.312 89.1875C796.958 89.1875 799.771 90.2917 801.75 92.5C803.75 94.7083 804.75 97.7292 804.75 101.562V123H796.969V103.125C796.969 100.771 796.417 98.9583 795.312 97.6875C794.208 96.3958 792.552 95.75 790.344 95.75C788.865 95.75 787.573 96.0938 786.469 96.7812C785.365 97.4479 784.51 98.3854 783.906 99.5938C783.302 100.781 783 102.177 783 103.781V123H775.25ZM825.562 123.656C822.25 123.656 819.396 122.958 817 121.562C814.625 120.167 812.802 118.188 811.531 115.625C810.26 113.062 809.625 110.031 809.625 106.531V106.5C809.625 103.021 810.26 99.9896 811.531 97.4062C812.823 94.8021 814.625 92.7812 816.938 91.3438C819.271 89.9062 822.021 89.1875 825.188 89.1875C828.333 89.1875 831.052 89.8854 833.344 91.2812C835.656 92.6562 837.427 94.5938 838.656 97.0938C839.906 99.5938 840.531 102.51 840.531 105.844V108.344H813.469V103.156H836.812L833.062 108V105C833.062 102.833 832.729 101.031 832.062 99.5938C831.396 98.1562 830.479 97.0833 829.312 96.375C828.146 95.6458 826.802 95.2812 825.281 95.2812C823.74 95.2812 822.365 95.6562 821.156 96.4062C819.969 97.1354 819.031 98.2292 818.344 99.6875C817.677 101.146 817.344 102.917 817.344 105V108C817.344 110.021 817.677 111.75 818.344 113.188C819.031 114.604 820 115.698 821.25 116.469C822.5 117.219 823.99 117.594 825.719 117.594C827.01 117.594 828.146 117.396 829.125 117C830.104 116.583 830.906 116.052 831.531 115.406C832.177 114.76 832.625 114.062 832.875 113.312L832.938 113.094H840.188L840.125 113.438C839.854 114.708 839.354 115.958 838.625 117.188C837.896 118.396 836.917 119.49 835.688 120.469C834.458 121.448 833 122.229 831.312 122.812C829.625 123.375 827.708 123.656 825.562 123.656ZM847.656 123V95.875H843.125V89.875H847.656V86.7188C847.656 83.4896 848.458 81.1042 850.062 79.5625C851.688 78.0208 854.302 77.25 857.906 77.25C858.677 77.25 859.438 77.2812 860.188 77.3438C860.958 77.4062 861.583 77.4792 862.062 77.5625V83C861.729 82.9583 861.354 82.9271 860.938 82.9062C860.542 82.8646 860.135 82.8438 859.719 82.8438C858.198 82.8438 857.073 83.1875 856.344 83.875C855.635 84.5625 855.281 85.5833 855.281 86.9375V89.875H861.938V95.875H855.438V123H847.656ZM867.281 123V89.875H875.062V123H867.281ZM871.156 85.125C869.948 85.125 868.927 84.7083 868.094 83.875C867.26 83.0417 866.844 82.0417 866.844 80.875C866.844 79.6875 867.26 78.6875 868.094 77.875C868.927 77.0417 869.948 76.625 871.156 76.625C872.385 76.625 873.417 77.0417 874.25 77.875C875.083 78.6875 875.5 79.6875 875.5 80.875C875.5 82.0417 875.083 83.0417 874.25 83.875C873.417 84.7083 872.385 85.125 871.156 85.125ZM893.969 123.656C890.531 123.656 887.969 122.906 886.281 121.406C884.615 119.906 883.781 117.448 883.781 114.031V95.875H879.094V89.875H883.781V81.4688H891.688V89.875H897.844V95.875H891.688V113.406C891.688 115.01 892.042 116.125 892.75 116.75C893.479 117.354 894.542 117.656 895.938 117.656C896.333 117.656 896.677 117.646 896.969 117.625C897.281 117.583 897.573 117.552 897.844 117.531V123.375C897.385 123.438 896.823 123.5 896.156 123.562C895.51 123.625 894.781 123.656 893.969 123.656ZM916.125 123.656C913.229 123.656 910.75 123.229 908.688 122.375C906.646 121.521 905.042 120.323 903.875 118.781C902.729 117.219 902.031 115.417 901.781 113.375L901.75 113.094H909.406L909.469 113.375C909.76 114.812 910.448 115.927 911.531 116.719C912.635 117.51 914.177 117.906 916.156 117.906C917.427 117.906 918.51 117.75 919.406 117.438C920.302 117.125 920.99 116.667 921.469 116.062C921.969 115.458 922.219 114.75 922.219 113.938V113.906C922.219 112.927 921.885 112.135 921.219 111.531C920.552 110.906 919.354 110.396 917.625 110L912.125 108.781C908.958 108.094 906.573 106.969 904.969 105.406C903.385 103.844 902.594 101.833 902.594 99.375V99.3438C902.594 97.3229 903.146 95.5521 904.25 94.0312C905.354 92.5104 906.906 91.3229 908.906 90.4688C910.906 89.6146 913.229 89.1875 915.875 89.1875C918.625 89.1875 920.979 89.6458 922.938 90.5625C924.896 91.4792 926.406 92.7083 927.469 94.25C928.552 95.7917 929.135 97.5208 929.219 99.4375L929.25 99.7812H922L921.969 99.5312C921.802 98.1979 921.198 97.1042 920.156 96.25C919.115 95.375 917.688 94.9375 915.875 94.9375C914.729 94.9375 913.729 95.1042 912.875 95.4375C912.042 95.7708 911.396 96.2396 910.938 96.8438C910.5 97.4479 910.281 98.1562 910.281 98.9688V99C910.281 99.9375 910.635 100.729 911.344 101.375C912.073 102.021 913.292 102.542 915 102.938L920.5 104.156C923.938 104.927 926.385 106.031 927.844 107.469C929.302 108.885 930.031 110.792 930.031 113.188V113.219C930.031 115.302 929.438 117.135 928.25 118.719C927.062 120.281 925.417 121.5 923.312 122.375C921.229 123.229 918.833 123.656 916.125 123.656Z" fill="#096187"/>
</svg>
