<svg width="320" height="1081" viewBox="0 0 320 1081" fill="none" xmlns="http://www.w3.org/2000/svg">
<rect width="319" height="1081" fill="#E2FFFB"/>
<rect width="319" height="1081" fill="#E2FFFB"/>
<path d="M159 416.391C157.438 416.391 156.062 416.104 154.875 415.531C153.688 414.958 152.74 414.182 152.031 413.203C151.333 412.214 150.932 411.099 150.828 409.859L150.812 409.656H154.594L154.609 409.766C154.714 410.391 154.964 410.958 155.359 411.469C155.766 411.979 156.281 412.38 156.906 412.672C157.531 412.964 158.24 413.109 159.031 413.109C159.927 413.109 160.714 412.922 161.391 412.547C162.078 412.161 162.615 411.635 163 410.969C163.385 410.292 163.578 409.51 163.578 408.625V408.594C163.578 407.729 163.385 406.969 163 406.312C162.615 405.646 162.078 405.125 161.391 404.75C160.714 404.365 159.932 404.172 159.047 404.172C158.411 404.172 157.818 404.266 157.266 404.453C156.714 404.641 156.224 404.917 155.797 405.281C155.589 405.458 155.391 405.656 155.203 405.875C155.016 406.083 154.854 406.312 154.719 406.562H151.219L152.297 393.453H166.141V396.75H155.516L154.891 403.547H154.969C155.458 402.786 156.146 402.198 157.031 401.781C157.927 401.354 158.938 401.141 160.062 401.141C161.5 401.141 162.776 401.464 163.891 402.109C165.005 402.745 165.88 403.615 166.516 404.719C167.151 405.823 167.469 407.094 167.469 408.531V408.562C167.469 410.104 167.109 411.464 166.391 412.641C165.672 413.818 164.677 414.74 163.406 415.406C162.135 416.062 160.667 416.391 159 416.391Z" fill="#2C6A72" fill-opacity="0.4"/>
<path d="M94.5312 514V491.453H98.5625V514H94.5312ZM102.141 514V497.438H106.016V500.031H106.109C106.536 499.135 107.172 498.422 108.016 497.891C108.87 497.359 109.922 497.094 111.172 497.094C112.995 497.094 114.401 497.646 115.391 498.75C116.391 499.854 116.891 501.365 116.891 503.281V514H113V504.062C113 502.885 112.724 501.979 112.172 501.344C111.62 500.698 110.792 500.375 109.688 500.375C108.948 500.375 108.302 500.547 107.75 500.891C107.198 501.224 106.771 501.693 106.469 502.297C106.167 502.891 106.016 503.589 106.016 504.391V514H102.141ZM126.484 514.328C125.036 514.328 123.797 514.115 122.766 513.688C121.745 513.26 120.943 512.661 120.359 511.891C119.786 511.109 119.438 510.208 119.312 509.188L119.297 509.047H123.125L123.156 509.188C123.302 509.906 123.646 510.464 124.188 510.859C124.74 511.255 125.51 511.453 126.5 511.453C127.135 511.453 127.677 511.375 128.125 511.219C128.573 511.062 128.917 510.833 129.156 510.531C129.406 510.229 129.531 509.875 129.531 509.469V509.453C129.531 508.964 129.365 508.568 129.031 508.266C128.698 507.953 128.099 507.698 127.234 507.5L124.484 506.891C122.901 506.547 121.708 505.984 120.906 505.203C120.115 504.422 119.719 503.417 119.719 502.188V502.172C119.719 501.161 119.995 500.276 120.547 499.516C121.099 498.755 121.875 498.161 122.875 497.734C123.875 497.307 125.036 497.094 126.359 497.094C127.734 497.094 128.911 497.323 129.891 497.781C130.87 498.24 131.625 498.854 132.156 499.625C132.698 500.396 132.99 501.26 133.031 502.219L133.047 502.391H129.422L129.406 502.266C129.323 501.599 129.021 501.052 128.5 500.625C127.979 500.188 127.266 499.969 126.359 499.969C125.786 499.969 125.286 500.052 124.859 500.219C124.443 500.385 124.12 500.62 123.891 500.922C123.672 501.224 123.562 501.578 123.562 501.984V502C123.562 502.469 123.74 502.865 124.094 503.188C124.458 503.51 125.068 503.771 125.922 503.969L128.672 504.578C130.391 504.964 131.615 505.516 132.344 506.234C133.073 506.943 133.438 507.896 133.438 509.094V509.109C133.438 510.151 133.141 511.068 132.547 511.859C131.953 512.641 131.13 513.25 130.078 513.688C129.036 514.115 127.839 514.328 126.484 514.328ZM141.562 514.328C140.344 514.328 139.307 514.083 138.453 513.594C137.609 513.094 136.964 512.38 136.516 511.453C136.068 510.526 135.844 509.427 135.844 508.156V497.438H139.719V507.375C139.719 508.552 139.995 509.464 140.547 510.109C141.099 510.745 141.932 511.062 143.047 511.062C143.786 511.062 144.427 510.896 144.969 510.562C145.521 510.219 145.948 509.745 146.25 509.141C146.552 508.536 146.703 507.833 146.703 507.031V497.438H150.594V514H146.703V511.406H146.625C146.198 512.292 145.562 513 144.719 513.531C143.875 514.062 142.823 514.328 141.562 514.328ZM153.797 514V497.438H157.672V500.297H157.766C158.016 499.297 158.469 498.516 159.125 497.953C159.792 497.38 160.604 497.094 161.562 497.094C161.802 497.094 162.031 497.109 162.25 497.141C162.469 497.172 162.651 497.208 162.797 497.25V500.766C162.641 500.703 162.417 500.651 162.125 500.609C161.844 500.568 161.536 500.547 161.203 500.547C160.474 500.547 159.844 500.698 159.312 501C158.781 501.292 158.375 501.724 158.094 502.297C157.812 502.87 157.672 503.568 157.672 504.391V514H153.797ZM169.312 514.281C168.219 514.281 167.25 514.073 166.406 513.656C165.573 513.229 164.922 512.641 164.453 511.891C163.995 511.13 163.766 510.26 163.766 509.281V509.25C163.766 507.781 164.312 506.62 165.406 505.766C166.51 504.901 168.062 504.411 170.062 504.297L176.391 503.906V506.484L170.609 506.844C169.651 506.906 168.917 507.135 168.406 507.531C167.896 507.927 167.641 508.453 167.641 509.109V509.125C167.641 509.802 167.896 510.339 168.406 510.734C168.927 511.12 169.615 511.312 170.469 511.312C171.219 511.312 171.885 511.161 172.469 510.859C173.062 510.557 173.531 510.146 173.875 509.625C174.219 509.104 174.391 508.516 174.391 507.859V502.891C174.391 502.057 174.125 501.401 173.594 500.922C173.073 500.432 172.318 500.188 171.328 500.188C170.411 500.188 169.677 500.385 169.125 500.781C168.573 501.167 168.229 501.667 168.094 502.281L168.062 502.422H164.469L164.484 502.234C164.568 501.255 164.896 500.38 165.469 499.609C166.042 498.828 166.833 498.214 167.844 497.766C168.865 497.318 170.073 497.094 171.469 497.094C172.854 497.094 174.052 497.323 175.062 497.781C176.083 498.24 176.87 498.88 177.422 499.703C177.984 500.526 178.266 501.495 178.266 502.609V514H174.391V511.453H174.297C173.984 512.026 173.578 512.526 173.078 512.953C172.578 513.38 172.005 513.708 171.359 513.938C170.724 514.167 170.042 514.281 169.312 514.281ZM181.422 514V497.438H185.297V500.031H185.391C185.818 499.135 186.453 498.422 187.297 497.891C188.151 497.359 189.203 497.094 190.453 497.094C192.276 497.094 193.682 497.646 194.672 498.75C195.672 499.854 196.172 501.365 196.172 503.281V514H192.281V504.062C192.281 502.885 192.005 501.979 191.453 501.344C190.901 500.698 190.073 500.375 188.969 500.375C188.229 500.375 187.583 500.547 187.031 500.891C186.479 501.224 186.052 501.693 185.75 502.297C185.448 502.891 185.297 503.589 185.297 504.391V514H181.422ZM206.609 514.328C204.974 514.328 203.557 513.979 202.359 513.281C201.161 512.583 200.234 511.589 199.578 510.297C198.932 509.005 198.609 507.474 198.609 505.703V505.688C198.609 503.927 198.938 502.406 199.594 501.125C200.25 499.833 201.172 498.839 202.359 498.141C203.557 497.443 204.958 497.094 206.562 497.094C208.021 497.094 209.281 497.375 210.344 497.938C211.406 498.49 212.24 499.224 212.844 500.141C213.448 501.057 213.792 502.068 213.875 503.172V503.281H210.219L210.188 503.156C210.031 502.354 209.651 501.672 209.047 501.109C208.453 500.536 207.641 500.25 206.609 500.25C205.797 500.25 205.083 500.474 204.469 500.922C203.865 501.359 203.396 501.984 203.062 502.797C202.729 503.609 202.562 504.583 202.562 505.719V505.734C202.562 506.88 202.729 507.859 203.062 508.672C203.406 509.484 203.88 510.109 204.484 510.547C205.099 510.974 205.812 511.188 206.625 511.188C207.615 511.188 208.411 510.922 209.016 510.391C209.63 509.849 210.026 509.146 210.203 508.281L210.234 508.141H213.906L213.891 508.25C213.786 509.396 213.422 510.427 212.797 511.344C212.172 512.26 211.333 512.99 210.281 513.531C209.229 514.062 208.005 514.328 206.609 514.328ZM223.516 514.328C221.859 514.328 220.432 513.979 219.234 513.281C218.047 512.583 217.135 511.594 216.5 510.312C215.865 509.031 215.547 507.516 215.547 505.766V505.75C215.547 504.01 215.865 502.495 216.5 501.203C217.146 499.901 218.047 498.891 219.203 498.172C220.37 497.453 221.745 497.094 223.328 497.094C224.901 497.094 226.26 497.443 227.406 498.141C228.562 498.828 229.448 499.797 230.062 501.047C230.688 502.297 231 503.755 231 505.422V506.672H217.469V504.078H229.141L227.266 506.5V505C227.266 503.917 227.099 503.016 226.766 502.297C226.432 501.578 225.974 501.042 225.391 500.688C224.807 500.323 224.135 500.141 223.375 500.141C222.604 500.141 221.917 500.328 221.312 500.703C220.719 501.068 220.25 501.615 219.906 502.344C219.573 503.073 219.406 503.958 219.406 505V506.5C219.406 507.51 219.573 508.375 219.906 509.094C220.25 509.802 220.734 510.349 221.359 510.734C221.984 511.109 222.729 511.297 223.594 511.297C224.24 511.297 224.807 511.198 225.297 511C225.786 510.792 226.188 510.526 226.5 510.203C226.823 509.88 227.047 509.531 227.172 509.156L227.203 509.047H230.828L230.797 509.219C230.661 509.854 230.411 510.479 230.047 511.094C229.682 511.698 229.193 512.245 228.578 512.734C227.964 513.224 227.234 513.615 226.391 513.906C225.547 514.188 224.589 514.328 223.516 514.328Z" fill="#2C6A72"/>
<path d="M70.0811 599V586.317H71.918L76.2598 596.908H76.4004L80.7422 586.317H82.5791V599H81.1025V589.306H80.3291L82.1045 586.669L76.998 599H75.6621L70.5645 586.669L72.3311 589.306H71.5576V599H70.0811ZM88.1689 599.167C87.5713 599.167 87.0322 599.053 86.5518 598.824C86.0771 598.596 85.7021 598.271 85.4268 597.849C85.1514 597.427 85.0137 596.929 85.0137 596.354V596.337C85.0137 595.499 85.3125 594.843 85.9102 594.368C86.5078 593.888 87.3574 593.615 88.459 593.551L91.9395 593.34V594.562L88.6436 594.772C87.9287 594.813 87.4043 594.963 87.0703 595.221C86.7422 595.479 86.5781 595.839 86.5781 596.302V596.319C86.5781 596.8 86.7568 597.175 87.1143 597.444C87.4775 597.708 87.9346 597.84 88.4854 597.84C89.0068 597.84 89.4697 597.737 89.874 597.532C90.2783 597.321 90.5947 597.037 90.8232 596.68C91.0576 596.322 91.1748 595.918 91.1748 595.467V592.531C91.1748 591.945 90.9961 591.5 90.6387 591.195C90.2871 590.885 89.7568 590.729 89.0479 590.729C88.4795 590.729 88.0137 590.832 87.6504 591.037C87.2871 591.236 87.0439 591.523 86.9209 591.898L86.9121 591.925H85.3916L85.4004 591.872C85.4766 591.374 85.6787 590.938 86.0068 590.562C86.3408 590.188 86.7715 589.897 87.2988 589.692C87.8262 589.481 88.4268 589.376 89.1006 589.376C89.874 589.376 90.5273 589.502 91.0605 589.754C91.5938 590.006 92.001 590.366 92.2822 590.835C92.5635 591.304 92.7041 591.866 92.7041 592.522V599H91.1748V597.603H91.0342C90.835 597.937 90.5918 598.221 90.3047 598.455C90.0234 598.689 89.7041 598.868 89.3467 598.991C88.9893 599.108 88.5967 599.167 88.1689 599.167ZM95.4639 599V589.543H96.9932V590.958H97.125C97.3652 590.46 97.7109 590.073 98.1621 589.798C98.6191 589.517 99.1963 589.376 99.8936 589.376C100.954 589.376 101.769 589.681 102.337 590.29C102.911 590.894 103.198 591.755 103.198 592.874V599H101.669V593.243C101.669 592.388 101.487 591.755 101.124 591.345C100.767 590.935 100.21 590.729 99.4541 590.729C98.9561 590.729 98.5225 590.838 98.1533 591.055C97.7842 591.271 97.4971 591.579 97.292 591.978C97.0928 592.37 96.9932 592.845 96.9932 593.401V599H95.4639ZM108.524 599.167C107.927 599.167 107.388 599.053 106.907 598.824C106.433 598.596 106.058 598.271 105.782 597.849C105.507 597.427 105.369 596.929 105.369 596.354V596.337C105.369 595.499 105.668 594.843 106.266 594.368C106.863 593.888 107.713 593.615 108.814 593.551L112.295 593.34V594.562L108.999 594.772C108.284 594.813 107.76 594.963 107.426 595.221C107.098 595.479 106.934 595.839 106.934 596.302V596.319C106.934 596.8 107.112 597.175 107.47 597.444C107.833 597.708 108.29 597.84 108.841 597.84C109.362 597.84 109.825 597.737 110.229 597.532C110.634 597.321 110.95 597.037 111.179 596.68C111.413 596.322 111.53 595.918 111.53 595.467V592.531C111.53 591.945 111.352 591.5 110.994 591.195C110.643 590.885 110.112 590.729 109.403 590.729C108.835 590.729 108.369 590.832 108.006 591.037C107.643 591.236 107.399 591.523 107.276 591.898L107.268 591.925H105.747L105.756 591.872C105.832 591.374 106.034 590.938 106.362 590.562C106.696 590.188 107.127 589.897 107.654 589.692C108.182 589.481 108.782 589.376 109.456 589.376C110.229 589.376 110.883 589.502 111.416 589.754C111.949 590.006 112.356 590.366 112.638 590.835C112.919 591.304 113.06 591.866 113.06 592.522V599H111.53V597.603H111.39C111.19 597.937 110.947 598.221 110.66 598.455C110.379 598.689 110.06 598.868 109.702 598.991C109.345 599.108 108.952 599.167 108.524 599.167ZM119.722 602.34C118.96 602.34 118.295 602.231 117.727 602.015C117.158 601.804 116.704 601.502 116.364 601.109C116.03 600.723 115.822 600.271 115.74 599.756L115.749 599.747H117.331L117.34 599.756C117.428 600.113 117.677 600.406 118.087 600.635C118.497 600.869 119.042 600.986 119.722 600.986C120.565 600.986 121.225 600.793 121.699 600.406C122.18 600.02 122.42 599.478 122.42 598.78V596.899H122.279C122.08 597.245 121.831 597.541 121.532 597.787C121.233 598.033 120.896 598.221 120.521 598.35C120.146 598.473 119.742 598.534 119.309 598.534C118.5 598.534 117.797 598.341 117.199 597.954C116.607 597.562 116.15 597.022 115.828 596.337C115.506 595.651 115.345 594.863 115.345 593.973V593.955C115.345 593.07 115.506 592.285 115.828 591.6C116.156 590.908 116.619 590.366 117.217 589.974C117.814 589.575 118.523 589.376 119.344 589.376C119.789 589.376 120.199 589.446 120.574 589.587C120.949 589.728 121.28 589.927 121.567 590.185C121.86 590.442 122.104 590.75 122.297 591.107H122.402V589.543H123.932V598.859C123.932 599.562 123.759 600.175 123.413 600.696C123.073 601.218 122.587 601.622 121.954 601.909C121.321 602.196 120.577 602.34 119.722 602.34ZM119.643 597.181C120.229 597.181 120.729 597.046 121.146 596.776C121.562 596.501 121.881 596.123 122.104 595.643C122.332 595.162 122.446 594.605 122.446 593.973V593.955C122.446 593.328 122.332 592.771 122.104 592.285C121.881 591.799 121.562 591.418 121.146 591.143C120.729 590.867 120.229 590.729 119.643 590.729C119.062 590.729 118.567 590.867 118.157 591.143C117.753 591.418 117.442 591.799 117.226 592.285C117.015 592.771 116.909 593.328 116.909 593.955V593.973C116.909 594.605 117.015 595.162 117.226 595.643C117.442 596.123 117.753 596.501 118.157 596.776C118.567 597.046 119.062 597.181 119.643 597.181ZM130.594 599.167C129.691 599.167 128.918 598.968 128.273 598.569C127.629 598.171 127.131 597.608 126.779 596.882C126.434 596.155 126.261 595.297 126.261 594.307V594.298C126.261 593.319 126.434 592.461 126.779 591.723C127.131 590.984 127.623 590.41 128.256 590C128.895 589.584 129.642 589.376 130.497 589.376C131.358 589.376 132.097 589.575 132.712 589.974C133.333 590.366 133.808 590.92 134.136 591.635C134.47 592.344 134.637 593.17 134.637 594.113V594.711H127.052V593.489H133.854L133.099 594.605V593.999C133.099 593.255 132.987 592.643 132.765 592.162C132.542 591.682 132.234 591.324 131.842 591.09C131.449 590.855 130.998 590.738 130.488 590.738C129.979 590.738 129.524 590.861 129.126 591.107C128.728 591.354 128.411 591.72 128.177 592.206C127.942 592.692 127.825 593.29 127.825 593.999V594.605C127.825 595.279 127.939 595.854 128.168 596.328C128.396 596.803 128.719 597.169 129.135 597.427C129.557 597.679 130.055 597.805 130.629 597.805C131.057 597.805 131.429 597.746 131.745 597.629C132.062 597.512 132.322 597.362 132.527 597.181C132.732 596.999 132.876 596.812 132.958 596.618L132.993 596.539H134.522L134.505 596.609C134.423 596.938 134.276 597.254 134.065 597.559C133.86 597.857 133.591 598.13 133.257 598.376C132.929 598.616 132.542 598.81 132.097 598.956C131.651 599.097 131.15 599.167 130.594 599.167ZM145.676 599V593.542L141.176 586.317H142.978L146.396 591.951H146.537L149.956 586.317H151.758L147.258 593.542V599H145.676ZM156.144 599.167C155.253 599.167 154.479 598.971 153.823 598.578C153.173 598.18 152.669 597.614 152.312 596.882C151.96 596.149 151.784 595.282 151.784 594.28V594.263C151.784 593.249 151.96 592.379 152.312 591.652C152.669 590.92 153.173 590.357 153.823 589.965C154.479 589.572 155.253 589.376 156.144 589.376C157.046 589.376 157.822 589.572 158.473 589.965C159.123 590.357 159.624 590.92 159.976 591.652C160.333 592.379 160.512 593.249 160.512 594.263V594.28C160.512 595.288 160.333 596.158 159.976 596.891C159.624 597.617 159.123 598.18 158.473 598.578C157.822 598.971 157.046 599.167 156.144 599.167ZM156.144 597.813C156.741 597.813 157.248 597.673 157.664 597.392C158.08 597.11 158.396 596.709 158.613 596.188C158.836 595.66 158.947 595.024 158.947 594.28V594.263C158.947 593.513 158.836 592.874 158.613 592.347C158.396 591.819 158.08 591.418 157.664 591.143C157.248 590.867 156.741 590.729 156.144 590.729C155.552 590.729 155.048 590.867 154.632 591.143C154.216 591.418 153.896 591.819 153.674 592.347C153.457 592.874 153.349 593.513 153.349 594.263V594.28C153.349 595.024 153.457 595.66 153.674 596.188C153.896 596.709 154.216 597.11 154.632 597.392C155.048 597.673 155.552 597.813 156.144 597.813ZM166.014 599.167C165.299 599.167 164.698 599.032 164.212 598.763C163.726 598.487 163.359 598.089 163.113 597.567C162.873 597.04 162.753 596.407 162.753 595.669V589.543H164.282V595.3C164.282 596.144 164.446 596.773 164.774 597.189C165.108 597.605 165.653 597.813 166.409 597.813C166.96 597.813 167.426 597.705 167.807 597.488C168.188 597.271 168.475 596.964 168.668 596.565C168.861 596.161 168.958 595.687 168.958 595.142V589.543H170.487V599H168.958V597.594H168.826C168.586 598.092 168.231 598.479 167.763 598.754C167.294 599.029 166.711 599.167 166.014 599.167ZM173.3 599V589.543H174.829V590.949H174.961C175.143 590.451 175.447 590.064 175.875 589.789C176.309 589.514 176.842 589.376 177.475 589.376C177.621 589.376 177.765 589.385 177.905 589.402C178.052 589.414 178.16 589.426 178.23 589.438V590.923C178.078 590.894 177.926 590.873 177.773 590.861C177.627 590.844 177.469 590.835 177.299 590.835C176.818 590.835 176.391 590.932 176.016 591.125C175.646 591.312 175.356 591.579 175.146 591.925C174.935 592.271 174.829 592.675 174.829 593.138V599H173.3ZM185.306 599V586.317H187.143L191.484 596.908H191.625L195.967 586.317H197.804V599H196.327V589.306H195.554L197.329 586.669L192.223 599H190.887L185.789 586.669L187.556 589.306H186.782V599H185.306ZM204.668 599.167C203.766 599.167 202.992 598.968 202.348 598.569C201.703 598.171 201.205 597.608 200.854 596.882C200.508 596.155 200.335 595.297 200.335 594.307V594.298C200.335 593.319 200.508 592.461 200.854 591.723C201.205 590.984 201.697 590.41 202.33 590C202.969 589.584 203.716 589.376 204.571 589.376C205.433 589.376 206.171 589.575 206.786 589.974C207.407 590.366 207.882 590.92 208.21 591.635C208.544 592.344 208.711 593.17 208.711 594.113V594.711H201.126V593.489H207.929L207.173 594.605V593.999C207.173 593.255 207.062 592.643 206.839 592.162C206.616 591.682 206.309 591.324 205.916 591.09C205.523 590.855 205.072 590.738 204.562 590.738C204.053 590.738 203.599 590.861 203.2 591.107C202.802 591.354 202.485 591.72 202.251 592.206C202.017 592.692 201.899 593.29 201.899 593.999V594.605C201.899 595.279 202.014 595.854 202.242 596.328C202.471 596.803 202.793 597.169 203.209 597.427C203.631 597.679 204.129 597.805 204.703 597.805C205.131 597.805 205.503 597.746 205.819 597.629C206.136 597.512 206.396 597.362 206.602 597.181C206.807 596.999 206.95 596.812 207.032 596.618L207.067 596.539H208.597L208.579 596.609C208.497 596.938 208.351 597.254 208.14 597.559C207.935 597.857 207.665 598.13 207.331 598.376C207.003 598.616 206.616 598.81 206.171 598.956C205.726 599.097 205.225 599.167 204.668 599.167ZM214.547 599.167C213.756 599.167 213.062 598.965 212.464 598.561C211.866 598.156 211.403 597.588 211.075 596.855C210.747 596.123 210.583 595.265 210.583 594.28V594.263C210.583 593.272 210.747 592.411 211.075 591.679C211.403 590.946 211.863 590.381 212.455 589.982C213.053 589.578 213.75 589.376 214.547 589.376C215.197 589.376 215.786 589.528 216.313 589.833C216.847 590.132 217.242 590.533 217.5 591.037H217.641V585.79H219.17V599H217.641V597.488H217.5C217.213 598.016 216.814 598.429 216.305 598.728C215.795 599.021 215.209 599.167 214.547 599.167ZM214.898 597.813C215.473 597.813 215.965 597.67 216.375 597.383C216.791 597.096 217.11 596.688 217.333 596.161C217.562 595.628 217.676 595.001 217.676 594.28V594.263C217.676 593.53 217.562 592.903 217.333 592.382C217.11 591.854 216.791 591.447 216.375 591.16C215.965 590.873 215.473 590.729 214.898 590.729C214.324 590.729 213.832 590.873 213.422 591.16C213.012 591.441 212.695 591.846 212.473 592.373C212.256 592.895 212.147 593.524 212.147 594.263V594.28C212.147 595.013 212.256 595.643 212.473 596.17C212.695 596.697 213.012 597.104 213.422 597.392C213.832 597.673 214.324 597.813 214.898 597.813ZM222.097 599V589.543H223.626V599H222.097ZM222.87 587.724C222.583 587.724 222.337 587.621 222.132 587.416C221.927 587.205 221.824 586.959 221.824 586.678C221.824 586.385 221.927 586.136 222.132 585.931C222.337 585.726 222.583 585.623 222.87 585.623C223.163 585.623 223.412 585.726 223.617 585.931C223.822 586.136 223.925 586.385 223.925 586.678C223.925 586.959 223.822 587.205 223.617 587.416C223.412 587.621 223.163 587.724 222.87 587.724ZM230.341 599.167C229.462 599.167 228.697 598.965 228.047 598.561C227.396 598.156 226.893 597.588 226.535 596.855C226.178 596.117 225.999 595.247 225.999 594.245V594.228C225.999 593.243 226.175 592.388 226.526 591.661C226.884 590.935 227.388 590.372 228.038 589.974C228.688 589.575 229.453 589.376 230.332 589.376C231.1 589.376 231.762 589.511 232.318 589.78C232.875 590.05 233.32 590.413 233.654 590.87C233.988 591.321 234.202 591.828 234.296 592.391L234.305 592.443H232.784L232.775 592.417C232.658 591.948 232.392 591.55 231.976 591.222C231.56 590.894 231.012 590.729 230.332 590.729C229.77 590.729 229.28 590.873 228.864 591.16C228.448 591.447 228.126 591.852 227.897 592.373C227.675 592.895 227.563 593.513 227.563 594.228V594.245C227.563 594.972 227.678 595.602 227.906 596.135C228.135 596.668 228.457 597.081 228.873 597.374C229.289 597.667 229.775 597.813 230.332 597.813C230.971 597.813 231.492 597.676 231.896 597.4C232.301 597.119 232.591 596.718 232.767 596.196L232.784 596.135L234.296 596.126L234.278 596.223C234.149 596.791 233.921 597.298 233.593 597.743C233.265 598.188 232.831 598.537 232.292 598.789C231.753 599.041 231.103 599.167 230.341 599.167ZM239.112 599.167C238.515 599.167 237.976 599.053 237.495 598.824C237.021 598.596 236.646 598.271 236.37 597.849C236.095 597.427 235.957 596.929 235.957 596.354V596.337C235.957 595.499 236.256 594.843 236.854 594.368C237.451 593.888 238.301 593.615 239.402 593.551L242.883 593.34V594.562L239.587 594.772C238.872 594.813 238.348 594.963 238.014 595.221C237.686 595.479 237.521 595.839 237.521 596.302V596.319C237.521 596.8 237.7 597.175 238.058 597.444C238.421 597.708 238.878 597.84 239.429 597.84C239.95 597.84 240.413 597.737 240.817 597.532C241.222 597.321 241.538 597.037 241.767 596.68C242.001 596.322 242.118 595.918 242.118 595.467V592.531C242.118 591.945 241.939 591.5 241.582 591.195C241.23 590.885 240.7 590.729 239.991 590.729C239.423 590.729 238.957 590.832 238.594 591.037C238.23 591.236 237.987 591.523 237.864 591.898L237.855 591.925H236.335L236.344 591.872C236.42 591.374 236.622 590.938 236.95 590.562C237.284 590.188 237.715 589.897 238.242 589.692C238.77 589.481 239.37 589.376 240.044 589.376C240.817 589.376 241.471 589.502 242.004 589.754C242.537 590.006 242.944 590.366 243.226 590.835C243.507 591.304 243.647 591.866 243.647 592.522V599H242.118V597.603H241.978C241.778 597.937 241.535 598.221 241.248 598.455C240.967 598.689 240.647 598.868 240.29 598.991C239.933 599.108 239.54 599.167 239.112 599.167ZM246.495 599V585.79H248.024V599H246.495ZM66.46 620.299C65.3115 620.299 64.3154 620.029 63.4717 619.49C62.6338 618.951 61.9863 618.187 61.5293 617.196C61.0781 616.206 60.8525 615.031 60.8525 613.672V613.654C60.8525 612.289 61.0781 611.111 61.5293 610.121C61.9863 609.131 62.6338 608.366 63.4717 607.827C64.3096 607.288 65.3027 607.019 66.4512 607.019C67.3418 607.019 68.1504 607.194 68.877 607.546C69.6094 607.892 70.2129 608.375 70.6875 608.996C71.1621 609.611 71.4609 610.323 71.584 611.132L71.5752 611.149H69.9844L69.9756 611.123C69.835 610.584 69.5977 610.118 69.2637 609.726C68.9297 609.327 68.5225 609.02 68.042 608.803C67.5674 608.586 67.0371 608.478 66.4512 608.478C65.6426 608.478 64.9395 608.688 64.3418 609.11C63.7441 609.532 63.2842 610.13 62.9619 610.903C62.6396 611.677 62.4785 612.594 62.4785 613.654V613.672C62.4785 614.727 62.6396 615.641 62.9619 616.414C63.2842 617.188 63.7441 617.785 64.3418 618.207C64.9395 618.629 65.6455 618.84 66.46 618.84C67.0518 618.84 67.5879 618.746 68.0684 618.559C68.5488 618.365 68.9531 618.09 69.2812 617.732C69.6094 617.375 69.8379 616.953 69.9668 616.467L69.9844 616.44H71.584V616.467C71.4434 617.24 71.1387 617.914 70.6699 618.488C70.2012 619.057 69.6064 619.502 68.8857 619.824C68.1709 620.141 67.3623 620.299 66.46 620.299ZM77.9033 620.167C77.0127 620.167 76.2393 619.971 75.583 619.578C74.9326 619.18 74.4287 618.614 74.0713 617.882C73.7197 617.149 73.5439 616.282 73.5439 615.28V615.263C73.5439 614.249 73.7197 613.379 74.0713 612.652C74.4287 611.92 74.9326 611.357 75.583 610.965C76.2393 610.572 77.0127 610.376 77.9033 610.376C78.8057 610.376 79.582 610.572 80.2324 610.965C80.8828 611.357 81.3838 611.92 81.7354 612.652C82.0928 613.379 82.2715 614.249 82.2715 615.263V615.28C82.2715 616.288 82.0928 617.158 81.7354 617.891C81.3838 618.617 80.8828 619.18 80.2324 619.578C79.582 619.971 78.8057 620.167 77.9033 620.167ZM77.9033 618.813C78.501 618.813 79.0078 618.673 79.4238 618.392C79.8398 618.11 80.1562 617.709 80.373 617.188C80.5957 616.66 80.707 616.024 80.707 615.28V615.263C80.707 614.513 80.5957 613.874 80.373 613.347C80.1562 612.819 79.8398 612.418 79.4238 612.143C79.0078 611.867 78.501 611.729 77.9033 611.729C77.3115 611.729 76.8076 611.867 76.3916 612.143C75.9756 612.418 75.6562 612.819 75.4336 613.347C75.2168 613.874 75.1084 614.513 75.1084 615.263V615.28C75.1084 616.024 75.2168 616.66 75.4336 617.188C75.6562 617.709 75.9756 618.11 76.3916 618.392C76.8076 618.673 77.3115 618.813 77.9033 618.813ZM86.9209 620L83.4229 610.543H85.04L87.6328 618.33H87.7646L90.3574 610.543H91.9746L88.4678 620H86.9209ZM97.4766 620.167C96.5742 620.167 95.8008 619.968 95.1562 619.569C94.5117 619.171 94.0137 618.608 93.6621 617.882C93.3164 617.155 93.1436 616.297 93.1436 615.307V615.298C93.1436 614.319 93.3164 613.461 93.6621 612.723C94.0137 611.984 94.5059 611.41 95.1387 611C95.7773 610.584 96.5244 610.376 97.3799 610.376C98.2412 610.376 98.9795 610.575 99.5947 610.974C100.216 611.366 100.69 611.92 101.019 612.635C101.353 613.344 101.52 614.17 101.52 615.113V615.711H93.9346V614.489H100.737L99.9814 615.605V614.999C99.9814 614.255 99.8701 613.643 99.6475 613.162C99.4248 612.682 99.1172 612.324 98.7246 612.09C98.332 611.855 97.8809 611.738 97.3711 611.738C96.8613 611.738 96.4072 611.861 96.0088 612.107C95.6104 612.354 95.2939 612.72 95.0596 613.206C94.8252 613.692 94.708 614.29 94.708 614.999V615.605C94.708 616.279 94.8223 616.854 95.0508 617.328C95.2793 617.803 95.6016 618.169 96.0176 618.427C96.4395 618.679 96.9375 618.805 97.5117 618.805C97.9395 618.805 98.3115 618.746 98.6279 618.629C98.9443 618.512 99.2051 618.362 99.4102 618.181C99.6152 617.999 99.7588 617.812 99.8408 617.618L99.876 617.539H101.405L101.388 617.609C101.306 617.938 101.159 618.254 100.948 618.559C100.743 618.857 100.474 619.13 100.14 619.376C99.8115 619.616 99.4248 619.81 98.9795 619.956C98.5342 620.097 98.0332 620.167 97.4766 620.167ZM103.866 620V610.543H105.396V611.949H105.527C105.709 611.451 106.014 611.064 106.441 610.789C106.875 610.514 107.408 610.376 108.041 610.376C108.188 610.376 108.331 610.385 108.472 610.402C108.618 610.414 108.727 610.426 108.797 610.438V611.923C108.645 611.894 108.492 611.873 108.34 611.861C108.193 611.844 108.035 611.835 107.865 611.835C107.385 611.835 106.957 611.932 106.582 612.125C106.213 612.312 105.923 612.579 105.712 612.925C105.501 613.271 105.396 613.675 105.396 614.138V620H103.866ZM113.271 620.167C112.673 620.167 112.134 620.053 111.653 619.824C111.179 619.596 110.804 619.271 110.528 618.849C110.253 618.427 110.115 617.929 110.115 617.354V617.337C110.115 616.499 110.414 615.843 111.012 615.368C111.609 614.888 112.459 614.615 113.561 614.551L117.041 614.34V615.562L113.745 615.772C113.03 615.813 112.506 615.963 112.172 616.221C111.844 616.479 111.68 616.839 111.68 617.302V617.319C111.68 617.8 111.858 618.175 112.216 618.444C112.579 618.708 113.036 618.84 113.587 618.84C114.108 618.84 114.571 618.737 114.976 618.532C115.38 618.321 115.696 618.037 115.925 617.68C116.159 617.322 116.276 616.918 116.276 616.467V613.531C116.276 612.945 116.098 612.5 115.74 612.195C115.389 611.885 114.858 611.729 114.149 611.729C113.581 611.729 113.115 611.832 112.752 612.037C112.389 612.236 112.146 612.523 112.022 612.898L112.014 612.925H110.493L110.502 612.872C110.578 612.374 110.78 611.938 111.108 611.562C111.442 611.188 111.873 610.897 112.4 610.692C112.928 610.481 113.528 610.376 114.202 610.376C114.976 610.376 115.629 610.502 116.162 610.754C116.695 611.006 117.103 611.366 117.384 611.835C117.665 612.304 117.806 612.866 117.806 613.522V620H116.276V618.603H116.136C115.937 618.937 115.693 619.221 115.406 619.455C115.125 619.689 114.806 619.868 114.448 619.991C114.091 620.108 113.698 620.167 113.271 620.167ZM124.468 623.34C123.706 623.34 123.041 623.231 122.473 623.015C121.904 622.804 121.45 622.502 121.11 622.109C120.776 621.723 120.568 621.271 120.486 620.756L120.495 620.747H122.077L122.086 620.756C122.174 621.113 122.423 621.406 122.833 621.635C123.243 621.869 123.788 621.986 124.468 621.986C125.312 621.986 125.971 621.793 126.445 621.406C126.926 621.02 127.166 620.478 127.166 619.78V617.899H127.025C126.826 618.245 126.577 618.541 126.278 618.787C125.979 619.033 125.643 619.221 125.268 619.35C124.893 619.473 124.488 619.534 124.055 619.534C123.246 619.534 122.543 619.341 121.945 618.954C121.354 618.562 120.896 618.022 120.574 617.337C120.252 616.651 120.091 615.863 120.091 614.973V614.955C120.091 614.07 120.252 613.285 120.574 612.6C120.902 611.908 121.365 611.366 121.963 610.974C122.561 610.575 123.27 610.376 124.09 610.376C124.535 610.376 124.945 610.446 125.32 610.587C125.695 610.728 126.026 610.927 126.313 611.185C126.606 611.442 126.85 611.75 127.043 612.107H127.148V610.543H128.678V619.859C128.678 620.562 128.505 621.175 128.159 621.696C127.819 622.218 127.333 622.622 126.7 622.909C126.067 623.196 125.323 623.34 124.468 623.34ZM124.389 618.181C124.975 618.181 125.476 618.046 125.892 617.776C126.308 617.501 126.627 617.123 126.85 616.643C127.078 616.162 127.192 615.605 127.192 614.973V614.955C127.192 614.328 127.078 613.771 126.85 613.285C126.627 612.799 126.308 612.418 125.892 612.143C125.476 611.867 124.975 611.729 124.389 611.729C123.809 611.729 123.313 611.867 122.903 612.143C122.499 612.418 122.188 612.799 121.972 613.285C121.761 613.771 121.655 614.328 121.655 614.955V614.973C121.655 615.605 121.761 616.162 121.972 616.643C122.188 617.123 122.499 617.501 122.903 617.776C123.313 618.046 123.809 618.181 124.389 618.181ZM135.34 620.167C134.438 620.167 133.664 619.968 133.02 619.569C132.375 619.171 131.877 618.608 131.525 617.882C131.18 617.155 131.007 616.297 131.007 615.307V615.298C131.007 614.319 131.18 613.461 131.525 612.723C131.877 611.984 132.369 611.41 133.002 611C133.641 610.584 134.388 610.376 135.243 610.376C136.104 610.376 136.843 610.575 137.458 610.974C138.079 611.366 138.554 611.92 138.882 612.635C139.216 613.344 139.383 614.17 139.383 615.113V615.711H131.798V614.489H138.601L137.845 615.605V614.999C137.845 614.255 137.733 613.643 137.511 613.162C137.288 612.682 136.98 612.324 136.588 612.09C136.195 611.855 135.744 611.738 135.234 611.738C134.725 611.738 134.271 611.861 133.872 612.107C133.474 612.354 133.157 612.72 132.923 613.206C132.688 613.692 132.571 614.29 132.571 614.999V615.605C132.571 616.279 132.686 616.854 132.914 617.328C133.143 617.803 133.465 618.169 133.881 618.427C134.303 618.679 134.801 618.805 135.375 618.805C135.803 618.805 136.175 618.746 136.491 618.629C136.808 618.512 137.068 618.362 137.273 618.181C137.479 617.999 137.622 617.812 137.704 617.618L137.739 617.539H139.269L139.251 617.609C139.169 617.938 139.022 618.254 138.812 618.559C138.606 618.857 138.337 619.13 138.003 619.376C137.675 619.616 137.288 619.81 136.843 619.956C136.397 620.097 135.896 620.167 135.34 620.167ZM145.922 620L150.598 607.317H151.811V609.356H151.318L147.583 620H145.922ZM148.04 616.37L148.532 615.025H154.263L154.755 616.37H148.04ZM155.177 620L151.45 609.356V607.317H152.162L156.838 620H155.177ZM158.833 620V610.543H160.362V611.958H160.494C160.734 611.46 161.08 611.073 161.531 610.798C161.988 610.517 162.565 610.376 163.263 610.376C164.323 610.376 165.138 610.681 165.706 611.29C166.28 611.894 166.567 612.755 166.567 613.874V620H165.038V614.243C165.038 613.388 164.856 612.755 164.493 612.345C164.136 611.935 163.579 611.729 162.823 611.729C162.325 611.729 161.892 611.838 161.522 612.055C161.153 612.271 160.866 612.579 160.661 612.978C160.462 613.37 160.362 613.845 160.362 614.401V620H158.833ZM172.781 620.167C171.99 620.167 171.296 619.965 170.698 619.561C170.101 619.156 169.638 618.588 169.31 617.855C168.981 617.123 168.817 616.265 168.817 615.28V615.263C168.817 614.272 168.981 613.411 169.31 612.679C169.638 611.946 170.098 611.381 170.689 610.982C171.287 610.578 171.984 610.376 172.781 610.376C173.432 610.376 174.021 610.528 174.548 610.833C175.081 611.132 175.477 611.533 175.734 612.037H175.875V606.79H177.404V620H175.875V618.488H175.734C175.447 619.016 175.049 619.429 174.539 619.728C174.029 620.021 173.443 620.167 172.781 620.167ZM173.133 618.813C173.707 618.813 174.199 618.67 174.609 618.383C175.025 618.096 175.345 617.688 175.567 617.161C175.796 616.628 175.91 616.001 175.91 615.28V615.263C175.91 614.53 175.796 613.903 175.567 613.382C175.345 612.854 175.025 612.447 174.609 612.16C174.199 611.873 173.707 611.729 173.133 611.729C172.559 611.729 172.066 611.873 171.656 612.16C171.246 612.441 170.93 612.846 170.707 613.373C170.49 613.895 170.382 614.524 170.382 615.263V615.28C170.382 616.013 170.49 616.643 170.707 617.17C170.93 617.697 171.246 618.104 171.656 618.392C172.066 618.673 172.559 618.813 173.133 618.813ZM185.499 620V607.317H193.198V608.741H187.081V613.101H192.697V614.507H187.081V620H185.499ZM195.606 620V610.543H197.136V620H195.606ZM196.38 608.724C196.093 608.724 195.847 608.621 195.642 608.416C195.437 608.205 195.334 607.959 195.334 607.678C195.334 607.385 195.437 607.136 195.642 606.931C195.847 606.726 196.093 606.623 196.38 606.623C196.673 606.623 196.922 606.726 197.127 606.931C197.332 607.136 197.435 607.385 197.435 607.678C197.435 607.959 197.332 608.205 197.127 608.416C196.922 608.621 196.673 608.724 196.38 608.724ZM199.983 620V610.543H201.513V611.958H201.645C201.885 611.46 202.23 611.073 202.682 610.798C203.139 610.517 203.716 610.376 204.413 610.376C205.474 610.376 206.288 610.681 206.856 611.29C207.431 611.894 207.718 612.755 207.718 613.874V620H206.188V614.243C206.188 613.388 206.007 612.755 205.644 612.345C205.286 611.935 204.729 611.729 203.974 611.729C203.476 611.729 203.042 611.838 202.673 612.055C202.304 612.271 202.017 612.579 201.812 612.978C201.612 613.37 201.513 613.845 201.513 614.401V620H199.983ZM213.044 620.167C212.446 620.167 211.907 620.053 211.427 619.824C210.952 619.596 210.577 619.271 210.302 618.849C210.026 618.427 209.889 617.929 209.889 617.354V617.337C209.889 616.499 210.188 615.843 210.785 615.368C211.383 614.888 212.232 614.615 213.334 614.551L216.814 614.34V615.562L213.519 615.772C212.804 615.813 212.279 615.963 211.945 616.221C211.617 616.479 211.453 616.839 211.453 617.302V617.319C211.453 617.8 211.632 618.175 211.989 618.444C212.353 618.708 212.81 618.84 213.36 618.84C213.882 618.84 214.345 618.737 214.749 618.532C215.153 618.321 215.47 618.037 215.698 617.68C215.933 617.322 216.05 616.918 216.05 616.467V613.531C216.05 612.945 215.871 612.5 215.514 612.195C215.162 611.885 214.632 611.729 213.923 611.729C213.354 611.729 212.889 611.832 212.525 612.037C212.162 612.236 211.919 612.523 211.796 612.898L211.787 612.925H210.267L210.275 612.872C210.352 612.374 210.554 611.938 210.882 611.562C211.216 611.188 211.646 610.897 212.174 610.692C212.701 610.481 213.302 610.376 213.976 610.376C214.749 610.376 215.402 610.502 215.936 610.754C216.469 611.006 216.876 611.366 217.157 611.835C217.438 612.304 217.579 612.866 217.579 613.522V620H216.05V618.603H215.909C215.71 618.937 215.467 619.221 215.18 619.455C214.898 619.689 214.579 619.868 214.222 619.991C213.864 620.108 213.472 620.167 213.044 620.167ZM220.339 620V610.543H221.868V611.958H222C222.24 611.46 222.586 611.073 223.037 610.798C223.494 610.517 224.071 610.376 224.769 610.376C225.829 610.376 226.644 610.681 227.212 611.29C227.786 611.894 228.073 612.755 228.073 613.874V620H226.544V614.243C226.544 613.388 226.362 612.755 225.999 612.345C225.642 611.935 225.085 611.729 224.329 611.729C223.831 611.729 223.397 611.838 223.028 612.055C222.659 612.271 222.372 612.579 222.167 612.978C221.968 613.37 221.868 613.845 221.868 614.401V620H220.339ZM234.665 620.167C233.786 620.167 233.021 619.965 232.371 619.561C231.721 619.156 231.217 618.588 230.859 617.855C230.502 617.117 230.323 616.247 230.323 615.245V615.228C230.323 614.243 230.499 613.388 230.851 612.661C231.208 611.935 231.712 611.372 232.362 610.974C233.013 610.575 233.777 610.376 234.656 610.376C235.424 610.376 236.086 610.511 236.643 610.78C237.199 611.05 237.645 611.413 237.979 611.87C238.312 612.321 238.526 612.828 238.62 613.391L238.629 613.443H237.108L237.1 613.417C236.982 612.948 236.716 612.55 236.3 612.222C235.884 611.894 235.336 611.729 234.656 611.729C234.094 611.729 233.604 611.873 233.188 612.16C232.772 612.447 232.45 612.852 232.222 613.373C231.999 613.895 231.888 614.513 231.888 615.228V615.245C231.888 615.972 232.002 616.602 232.23 617.135C232.459 617.668 232.781 618.081 233.197 618.374C233.613 618.667 234.1 618.813 234.656 618.813C235.295 618.813 235.816 618.676 236.221 618.4C236.625 618.119 236.915 617.718 237.091 617.196L237.108 617.135L238.62 617.126L238.603 617.223C238.474 617.791 238.245 618.298 237.917 618.743C237.589 619.188 237.155 619.537 236.616 619.789C236.077 620.041 235.427 620.167 234.665 620.167ZM240.87 620V610.543H242.399V620H240.87ZM241.644 608.724C241.356 608.724 241.11 608.621 240.905 608.416C240.7 608.205 240.598 607.959 240.598 607.678C240.598 607.385 240.7 607.136 240.905 606.931C241.11 606.726 241.356 606.623 241.644 606.623C241.937 606.623 242.186 606.726 242.391 606.931C242.596 607.136 242.698 607.385 242.698 607.678C242.698 607.959 242.596 608.205 242.391 608.416C242.186 608.621 241.937 608.724 241.644 608.724ZM247.849 620.167C247.251 620.167 246.712 620.053 246.231 619.824C245.757 619.596 245.382 619.271 245.106 618.849C244.831 618.427 244.693 617.929 244.693 617.354V617.337C244.693 616.499 244.992 615.843 245.59 615.368C246.188 614.888 247.037 614.615 248.139 614.551L251.619 614.34V615.562L248.323 615.772C247.608 615.813 247.084 615.963 246.75 616.221C246.422 616.479 246.258 616.839 246.258 617.302V617.319C246.258 617.8 246.437 618.175 246.794 618.444C247.157 618.708 247.614 618.84 248.165 618.84C248.687 618.84 249.149 618.737 249.554 618.532C249.958 618.321 250.274 618.037 250.503 617.68C250.737 617.322 250.854 616.918 250.854 616.467V613.531C250.854 612.945 250.676 612.5 250.318 612.195C249.967 611.885 249.437 611.729 248.728 611.729C248.159 611.729 247.693 611.832 247.33 612.037C246.967 612.236 246.724 612.523 246.601 612.898L246.592 612.925H245.071L245.08 612.872C245.156 612.374 245.358 611.938 245.687 611.562C246.021 611.188 246.451 610.897 246.979 610.692C247.506 610.481 248.106 610.376 248.78 610.376C249.554 610.376 250.207 610.502 250.74 610.754C251.273 611.006 251.681 611.366 251.962 611.835C252.243 612.304 252.384 612.866 252.384 613.522V620H250.854V618.603H250.714C250.515 618.937 250.271 619.221 249.984 619.455C249.703 619.689 249.384 619.868 249.026 619.991C248.669 620.108 248.276 620.167 247.849 620.167ZM255.231 620V606.79H256.761V620H255.231ZM61.0635 641V628.317H62.6455V633.802H69.6064V628.317H71.1885V641H69.6064V635.226H62.6455V641H61.0635ZM78.0527 641.167C77.1504 641.167 76.377 640.968 75.7324 640.569C75.0879 640.171 74.5898 639.608 74.2383 638.882C73.8926 638.155 73.7197 637.297 73.7197 636.307V636.298C73.7197 635.319 73.8926 634.461 74.2383 633.723C74.5898 632.984 75.082 632.41 75.7148 632C76.3535 631.584 77.1006 631.376 77.9561 631.376C78.8174 631.376 79.5557 631.575 80.1709 631.974C80.792 632.366 81.2666 632.92 81.5947 633.635C81.9287 634.344 82.0957 635.17 82.0957 636.113V636.711H74.5107V635.489H81.3135L80.5576 636.605V635.999C80.5576 635.255 80.4463 634.643 80.2236 634.162C80.001 633.682 79.6934 633.324 79.3008 633.09C78.9082 632.855 78.457 632.738 77.9473 632.738C77.4375 632.738 76.9834 632.861 76.585 633.107C76.1865 633.354 75.8701 633.72 75.6357 634.206C75.4014 634.692 75.2842 635.29 75.2842 635.999V636.605C75.2842 637.279 75.3984 637.854 75.627 638.328C75.8555 638.803 76.1777 639.169 76.5938 639.427C77.0156 639.679 77.5137 639.805 78.0879 639.805C78.5156 639.805 78.8877 639.746 79.2041 639.629C79.5205 639.512 79.7812 639.362 79.9863 639.181C80.1914 638.999 80.335 638.812 80.417 638.618L80.4521 638.539H81.9814L81.9639 638.609C81.8818 638.938 81.7354 639.254 81.5244 639.559C81.3193 639.857 81.0498 640.13 80.7158 640.376C80.3877 640.616 80.001 640.81 79.5557 640.956C79.1104 641.097 78.6094 641.167 78.0527 641.167ZM87.0439 641.167C86.4463 641.167 85.9072 641.053 85.4268 640.824C84.9521 640.596 84.5771 640.271 84.3018 639.849C84.0264 639.427 83.8887 638.929 83.8887 638.354V638.337C83.8887 637.499 84.1875 636.843 84.7852 636.368C85.3828 635.888 86.2324 635.615 87.334 635.551L90.8145 635.34V636.562L87.5186 636.772C86.8037 636.813 86.2793 636.963 85.9453 637.221C85.6172 637.479 85.4531 637.839 85.4531 638.302V638.319C85.4531 638.8 85.6318 639.175 85.9893 639.444C86.3525 639.708 86.8096 639.84 87.3604 639.84C87.8818 639.84 88.3447 639.737 88.749 639.532C89.1533 639.321 89.4697 639.037 89.6982 638.68C89.9326 638.322 90.0498 637.918 90.0498 637.467V634.531C90.0498 633.945 89.8711 633.5 89.5137 633.195C89.1621 632.885 88.6318 632.729 87.9229 632.729C87.3545 632.729 86.8887 632.832 86.5254 633.037C86.1621 633.236 85.9189 633.523 85.7959 633.898L85.7871 633.925H84.2666L84.2754 633.872C84.3516 633.374 84.5537 632.938 84.8818 632.562C85.2158 632.188 85.6465 631.897 86.1738 631.692C86.7012 631.481 87.3018 631.376 87.9756 631.376C88.749 631.376 89.4023 631.502 89.9355 631.754C90.4688 632.006 90.876 632.366 91.1572 632.835C91.4385 633.304 91.5791 633.866 91.5791 634.522V641H90.0498V639.603H89.9092C89.71 639.937 89.4668 640.221 89.1797 640.455C88.8984 640.689 88.5791 640.868 88.2217 640.991C87.8643 641.108 87.4717 641.167 87.0439 641.167ZM94.4268 641V627.79H95.9561V641H94.4268ZM102.205 641.079C101.238 641.079 100.535 640.883 100.096 640.49C99.6621 640.092 99.4453 639.444 99.4453 638.548V632.809H97.96V631.543H99.4453V629.091H101.027V631.543H103.084V632.809H101.027V638.179C101.027 638.729 101.133 639.125 101.344 639.365C101.555 639.605 101.903 639.726 102.39 639.726C102.524 639.726 102.639 639.723 102.732 639.717C102.832 639.711 102.949 639.702 103.084 639.69V640.991C102.943 641.015 102.8 641.035 102.653 641.053C102.507 641.07 102.357 641.079 102.205 641.079ZM105.431 641V627.79H106.96V632.967H107.092C107.332 632.463 107.678 632.073 108.129 631.798C108.586 631.517 109.163 631.376 109.86 631.376C110.563 631.376 111.161 631.514 111.653 631.789C112.146 632.059 112.521 632.457 112.778 632.984C113.036 633.506 113.165 634.142 113.165 634.892V641H111.636V635.252C111.636 634.396 111.454 633.764 111.091 633.354C110.733 632.938 110.177 632.729 109.421 632.729C108.917 632.729 108.48 632.838 108.111 633.055C107.748 633.271 107.464 633.579 107.259 633.978C107.06 634.376 106.96 634.851 106.96 635.401V641H105.431ZM121.093 641V628.317H128.95V629.741H122.675V633.811H128.625V635.217H122.675V639.576H128.95V641H121.093ZM132.211 641V632.809H130.655V631.543H132.211V630.479C132.211 629.542 132.442 628.845 132.905 628.388C133.374 627.925 134.057 627.693 134.953 627.693C135.141 627.693 135.316 627.702 135.48 627.72C135.65 627.731 135.812 627.752 135.964 627.781V629.003C135.87 628.985 135.762 628.974 135.639 628.968C135.516 628.962 135.39 628.959 135.261 628.959C134.722 628.959 134.332 629.091 134.092 629.354C133.857 629.618 133.74 630.008 133.74 630.523V631.543H135.885V632.809H133.74V641H132.211ZM138.68 641V632.809H137.124V631.543H138.68V630.479C138.68 629.542 138.911 628.845 139.374 628.388C139.843 627.925 140.525 627.693 141.422 627.693C141.609 627.693 141.785 627.702 141.949 627.72C142.119 627.731 142.28 627.752 142.433 627.781V629.003C142.339 628.985 142.23 628.974 142.107 628.968C141.984 628.962 141.858 628.959 141.729 628.959C141.19 628.959 140.801 629.091 140.561 629.354C140.326 629.618 140.209 630.008 140.209 630.523V631.543H142.354V632.809H140.209V641H138.68ZM147.987 641.167C147.097 641.167 146.323 640.971 145.667 640.578C145.017 640.18 144.513 639.614 144.155 638.882C143.804 638.149 143.628 637.282 143.628 636.28V636.263C143.628 635.249 143.804 634.379 144.155 633.652C144.513 632.92 145.017 632.357 145.667 631.965C146.323 631.572 147.097 631.376 147.987 631.376C148.89 631.376 149.666 631.572 150.316 631.965C150.967 632.357 151.468 632.92 151.819 633.652C152.177 634.379 152.355 635.249 152.355 636.263V636.28C152.355 637.288 152.177 638.158 151.819 638.891C151.468 639.617 150.967 640.18 150.316 640.578C149.666 640.971 148.89 641.167 147.987 641.167ZM147.987 639.813C148.585 639.813 149.092 639.673 149.508 639.392C149.924 639.11 150.24 638.709 150.457 638.188C150.68 637.66 150.791 637.024 150.791 636.28V636.263C150.791 635.513 150.68 634.874 150.457 634.347C150.24 633.819 149.924 633.418 149.508 633.143C149.092 632.867 148.585 632.729 147.987 632.729C147.396 632.729 146.892 632.867 146.476 633.143C146.06 633.418 145.74 633.819 145.518 634.347C145.301 634.874 145.192 635.513 145.192 636.263V636.28C145.192 637.024 145.301 637.66 145.518 638.188C145.74 638.709 146.06 639.11 146.476 639.392C146.892 639.673 147.396 639.813 147.987 639.813ZM154.685 641V631.543H156.214V632.949H156.346C156.527 632.451 156.832 632.064 157.26 631.789C157.693 631.514 158.227 631.376 158.859 631.376C159.006 631.376 159.149 631.385 159.29 631.402C159.437 631.414 159.545 631.426 159.615 631.438V632.923C159.463 632.894 159.311 632.873 159.158 632.861C159.012 632.844 158.854 632.835 158.684 632.835C158.203 632.835 157.775 632.932 157.4 633.125C157.031 633.312 156.741 633.579 156.53 633.925C156.319 634.271 156.214 634.675 156.214 635.138V641H154.685ZM165.346 641.079C164.379 641.079 163.676 640.883 163.236 640.49C162.803 640.092 162.586 639.444 162.586 638.548V632.809H161.101V631.543H162.586V629.091H164.168V631.543H166.225V632.809H164.168V638.179C164.168 638.729 164.273 639.125 164.484 639.365C164.695 639.605 165.044 639.726 165.53 639.726C165.665 639.726 165.779 639.723 165.873 639.717C165.973 639.711 166.09 639.702 166.225 639.69V640.991C166.084 641.015 165.94 641.035 165.794 641.053C165.647 641.07 165.498 641.079 165.346 641.079ZM168.571 641V627.79H170.101V641H168.571ZM176.859 641.167C175.957 641.167 175.184 640.968 174.539 640.569C173.895 640.171 173.396 639.608 173.045 638.882C172.699 638.155 172.526 637.297 172.526 636.307V636.298C172.526 635.319 172.699 634.461 173.045 633.723C173.396 632.984 173.889 632.41 174.521 632C175.16 631.584 175.907 631.376 176.763 631.376C177.624 631.376 178.362 631.575 178.978 631.974C179.599 632.366 180.073 632.92 180.401 633.635C180.735 634.344 180.902 635.17 180.902 636.113V636.711H173.317V635.489H180.12L179.364 636.605V635.999C179.364 635.255 179.253 634.643 179.03 634.162C178.808 633.682 178.5 633.324 178.107 633.09C177.715 632.855 177.264 632.738 176.754 632.738C176.244 632.738 175.79 632.861 175.392 633.107C174.993 633.354 174.677 633.72 174.442 634.206C174.208 634.692 174.091 635.29 174.091 635.999V636.605C174.091 637.279 174.205 637.854 174.434 638.328C174.662 638.803 174.984 639.169 175.4 639.427C175.822 639.679 176.32 639.805 176.895 639.805C177.322 639.805 177.694 639.746 178.011 639.629C178.327 639.512 178.588 639.362 178.793 639.181C178.998 638.999 179.142 638.812 179.224 638.618L179.259 638.539H180.788L180.771 638.609C180.688 638.938 180.542 639.254 180.331 639.559C180.126 639.857 179.856 640.13 179.522 640.376C179.194 640.616 178.808 640.81 178.362 640.956C177.917 641.097 177.416 641.167 176.859 641.167ZM186.501 641.167C185.798 641.167 185.177 641.062 184.638 640.851C184.099 640.634 183.665 640.332 183.337 639.945C183.015 639.553 182.824 639.096 182.766 638.574H184.33C184.459 638.973 184.708 639.292 185.077 639.532C185.452 639.772 185.944 639.893 186.554 639.893C186.976 639.893 187.348 639.831 187.67 639.708C187.998 639.579 188.253 639.406 188.435 639.189C188.622 638.973 188.716 638.721 188.716 638.434V638.416C188.716 638.094 188.587 637.821 188.329 637.599C188.077 637.37 187.661 637.186 187.081 637.045L185.613 636.693C184.729 636.482 184.078 636.175 183.662 635.771C183.246 635.36 183.038 634.815 183.038 634.136V634.127C183.038 633.6 183.19 633.128 183.495 632.712C183.806 632.296 184.225 631.971 184.752 631.736C185.285 631.496 185.886 631.376 186.554 631.376C187.216 631.376 187.802 631.481 188.312 631.692C188.827 631.897 189.24 632.193 189.551 632.58C189.867 632.961 190.058 633.406 190.122 633.916V633.925H188.628H188.619C188.525 633.544 188.3 633.236 187.942 633.002C187.585 632.768 187.119 632.65 186.545 632.65C186.17 632.65 185.836 632.712 185.543 632.835C185.256 632.952 185.027 633.116 184.857 633.327C184.688 633.532 184.603 633.775 184.603 634.057V634.074C184.603 634.396 184.729 634.663 184.98 634.874C185.232 635.085 185.634 635.258 186.185 635.393L187.644 635.744C188.534 635.961 189.196 636.271 189.63 636.676C190.063 637.08 190.28 637.622 190.28 638.302V638.319C190.28 638.876 190.113 639.371 189.779 639.805C189.451 640.232 189 640.566 188.426 640.807C187.857 641.047 187.216 641.167 186.501 641.167ZM195.712 641.167C195.009 641.167 194.388 641.062 193.849 640.851C193.31 640.634 192.876 640.332 192.548 639.945C192.226 639.553 192.035 639.096 191.977 638.574H193.541C193.67 638.973 193.919 639.292 194.288 639.532C194.663 639.772 195.155 639.893 195.765 639.893C196.187 639.893 196.559 639.831 196.881 639.708C197.209 639.579 197.464 639.406 197.646 639.189C197.833 638.973 197.927 638.721 197.927 638.434V638.416C197.927 638.094 197.798 637.821 197.54 637.599C197.288 637.37 196.872 637.186 196.292 637.045L194.824 636.693C193.939 636.482 193.289 636.175 192.873 635.771C192.457 635.36 192.249 634.815 192.249 634.136V634.127C192.249 633.6 192.401 633.128 192.706 632.712C193.017 632.296 193.436 631.971 193.963 631.736C194.496 631.496 195.097 631.376 195.765 631.376C196.427 631.376 197.013 631.481 197.522 631.692C198.038 631.897 198.451 632.193 198.762 632.58C199.078 632.961 199.269 633.406 199.333 633.916V633.925H197.839H197.83C197.736 633.544 197.511 633.236 197.153 633.002C196.796 632.768 196.33 632.65 195.756 632.65C195.381 632.65 195.047 632.712 194.754 632.835C194.467 632.952 194.238 633.116 194.068 633.327C193.898 633.532 193.813 633.775 193.813 634.057V634.074C193.813 634.396 193.939 634.663 194.191 634.874C194.443 635.085 194.845 635.258 195.396 635.393L196.854 635.744C197.745 635.961 198.407 636.271 198.841 636.676C199.274 637.08 199.491 637.622 199.491 638.302V638.319C199.491 638.876 199.324 639.371 198.99 639.805C198.662 640.232 198.211 640.566 197.637 640.807C197.068 641.047 196.427 641.167 195.712 641.167ZM201.935 641V627.79H203.464V641H201.935ZM207.173 644.313C207.073 644.313 206.959 644.308 206.83 644.296C206.707 644.29 206.593 644.278 206.487 644.261V643.004C206.581 643.021 206.684 643.033 206.795 643.039C206.906 643.045 207.015 643.048 207.12 643.048C207.554 643.048 207.908 642.937 208.184 642.714C208.465 642.497 208.69 642.116 208.86 641.571L209.036 641.009L205.538 631.543H207.173L210.082 640.262L209.484 639.33H210.196L209.599 640.262L212.499 631.543H214.107L210.407 641.58C210.149 642.283 209.877 642.834 209.59 643.232C209.309 643.631 208.975 643.909 208.588 644.067C208.207 644.231 207.735 644.313 207.173 644.313ZM223.934 641L220.479 628.317H222.132L224.654 638.636H224.76L227.599 628.317H229.198L232.037 638.636H232.143L234.665 628.317H236.317L232.863 641H231.369L228.451 630.98H228.346L225.428 641H223.934ZM238.532 641V631.543H240.062V641H238.532ZM239.306 629.724C239.019 629.724 238.772 629.621 238.567 629.416C238.362 629.205 238.26 628.959 238.26 628.678C238.26 628.385 238.362 628.136 238.567 627.931C238.772 627.726 239.019 627.623 239.306 627.623C239.599 627.623 239.848 627.726 240.053 627.931C240.258 628.136 240.36 628.385 240.36 628.678C240.36 628.959 240.258 629.205 240.053 629.416C239.848 629.621 239.599 629.724 239.306 629.724ZM246.258 641.079C245.291 641.079 244.588 640.883 244.148 640.49C243.715 640.092 243.498 639.444 243.498 638.548V632.809H242.013V631.543H243.498V629.091H245.08V631.543H247.137V632.809H245.08V638.179C245.08 638.729 245.186 639.125 245.396 639.365C245.607 639.605 245.956 639.726 246.442 639.726C246.577 639.726 246.691 639.723 246.785 639.717C246.885 639.711 247.002 639.702 247.137 639.69V640.991C246.996 641.015 246.853 641.035 246.706 641.053C246.56 641.07 246.41 641.079 246.258 641.079ZM249.483 641V627.79H251.013V632.967H251.145C251.385 632.463 251.73 632.073 252.182 631.798C252.639 631.517 253.216 631.376 253.913 631.376C254.616 631.376 255.214 631.514 255.706 631.789C256.198 632.059 256.573 632.457 256.831 632.984C257.089 633.506 257.218 634.142 257.218 634.892V641H255.688V635.252C255.688 634.396 255.507 633.764 255.144 633.354C254.786 632.938 254.229 632.729 253.474 632.729C252.97 632.729 252.533 632.838 252.164 633.055C251.801 633.271 251.517 633.579 251.312 633.978C251.112 634.376 251.013 634.851 251.013 635.401V641H249.483ZM61.3008 662.299C60.0879 662.299 59.0479 662.029 58.1807 661.49C57.3135 660.945 56.6455 660.175 56.1768 659.179C55.7139 658.183 55.4824 657.011 55.4824 655.663V655.646C55.4824 654.286 55.7168 653.111 56.1855 652.121C56.6602 651.131 57.3311 650.366 58.1982 649.827C59.0713 649.288 60.1055 649.019 61.3008 649.019C62.502 649.019 63.5361 649.288 64.4033 649.827C65.2764 650.366 65.9473 651.134 66.416 652.13C66.8848 653.12 67.1191 654.292 67.1191 655.646V655.663C67.1191 657.011 66.8848 658.183 66.416 659.179C65.9531 660.169 65.2852 660.937 64.4121 661.481C63.5449 662.026 62.5078 662.299 61.3008 662.299ZM61.3008 660.84C62.168 660.84 62.915 660.626 63.542 660.198C64.1689 659.771 64.6523 659.17 64.9922 658.396C65.332 657.617 65.502 656.706 65.502 655.663V655.646C65.502 654.591 65.332 653.677 64.9922 652.903C64.6523 652.13 64.1689 651.532 63.542 651.11C62.915 650.688 62.168 650.478 61.3008 650.478C60.4395 650.478 59.6953 650.688 59.0684 651.11C58.4414 651.532 57.9551 652.13 57.6094 652.903C57.2695 653.677 57.0996 654.591 57.0996 655.646V655.663C57.0996 656.706 57.2666 657.617 57.6006 658.396C57.9346 659.17 58.415 659.771 59.042 660.198C59.6689 660.626 60.4219 660.84 61.3008 660.84ZM72.8057 662.167C72.0908 662.167 71.4902 662.032 71.0039 661.763C70.5176 661.487 70.1514 661.089 69.9053 660.567C69.665 660.04 69.5449 659.407 69.5449 658.669V652.543H71.0742V658.3C71.0742 659.144 71.2383 659.773 71.5664 660.189C71.9004 660.605 72.4453 660.813 73.2012 660.813C73.752 660.813 74.2178 660.705 74.5986 660.488C74.9795 660.271 75.2666 659.964 75.46 659.565C75.6533 659.161 75.75 658.687 75.75 658.142V652.543H77.2793V662H75.75V660.594H75.6182C75.3779 661.092 75.0234 661.479 74.5547 661.754C74.0859 662.029 73.5029 662.167 72.8057 662.167ZM80.0918 662V652.543H81.6211V653.949H81.7529C81.9346 653.451 82.2393 653.064 82.667 652.789C83.1006 652.514 83.6338 652.376 84.2666 652.376C84.4131 652.376 84.5566 652.385 84.6973 652.402C84.8438 652.414 84.9521 652.426 85.0225 652.438V653.923C84.8701 653.894 84.7178 653.873 84.5654 653.861C84.4189 653.844 84.2607 653.835 84.0908 653.835C83.6104 653.835 83.1826 653.932 82.8076 654.125C82.4385 654.312 82.1484 654.579 81.9375 654.925C81.7266 655.271 81.6211 655.675 81.6211 656.138V662H80.0918ZM96.2549 662.299C95.3291 662.299 94.5205 662.149 93.8291 661.851C93.1436 661.546 92.5986 661.13 92.1943 660.603C91.7959 660.069 91.5645 659.46 91.5 658.774L91.4912 658.669H93.0732L93.082 658.774C93.123 659.196 93.2842 659.562 93.5654 659.873C93.8525 660.178 94.2334 660.415 94.708 660.585C95.1885 660.755 95.7334 660.84 96.3428 660.84C96.917 660.84 97.4268 660.749 97.8721 660.567C98.3232 660.38 98.6777 660.122 98.9355 659.794C99.1934 659.466 99.3223 659.088 99.3223 658.66V658.651C99.3223 658.124 99.1289 657.682 98.7422 657.324C98.3555 656.961 97.7256 656.683 96.8525 656.489L95.4463 656.182C94.1748 655.9 93.249 655.467 92.6689 654.881C92.0947 654.289 91.8076 653.533 91.8076 652.613V652.604C91.8135 651.901 92.0039 651.28 92.3789 650.741C92.7598 650.202 93.2842 649.78 93.9521 649.476C94.626 649.171 95.3994 649.019 96.2725 649.019C97.1162 649.019 97.8633 649.171 98.5137 649.476C99.1641 649.774 99.6797 650.182 100.061 650.697C100.447 651.207 100.661 651.778 100.702 652.411L100.711 652.534H99.1289L99.1113 652.42C99.0527 652.045 98.9004 651.711 98.6543 651.418C98.4082 651.125 98.0801 650.894 97.6699 650.724C97.2598 650.554 96.7793 650.472 96.2285 650.478C95.7012 650.478 95.2266 650.562 94.8047 650.732C94.3828 650.896 94.0459 651.131 93.7939 651.436C93.5479 651.74 93.4248 652.115 93.4248 652.561V652.569C93.4248 653.073 93.6123 653.498 93.9873 653.844C94.3623 654.189 94.9805 654.456 95.8418 654.644L97.248 654.96C98.5723 655.253 99.5186 655.678 100.087 656.234C100.655 656.791 100.939 657.526 100.939 658.44V658.449C100.939 659.24 100.746 659.923 100.359 660.497C99.9727 661.071 99.4277 661.517 98.7246 661.833C98.0215 662.144 97.1982 662.299 96.2549 662.299ZM107.206 662.167C106.304 662.167 105.53 661.968 104.886 661.569C104.241 661.171 103.743 660.608 103.392 659.882C103.046 659.155 102.873 658.297 102.873 657.307V657.298C102.873 656.319 103.046 655.461 103.392 654.723C103.743 653.984 104.235 653.41 104.868 653C105.507 652.584 106.254 652.376 107.109 652.376C107.971 652.376 108.709 652.575 109.324 652.974C109.945 653.366 110.42 653.92 110.748 654.635C111.082 655.344 111.249 656.17 111.249 657.113V657.711H103.664V656.489H110.467L109.711 657.605V656.999C109.711 656.255 109.6 655.643 109.377 655.162C109.154 654.682 108.847 654.324 108.454 654.09C108.062 653.855 107.61 653.738 107.101 653.738C106.591 653.738 106.137 653.861 105.738 654.107C105.34 654.354 105.023 654.72 104.789 655.206C104.555 655.692 104.438 656.29 104.438 656.999V657.605C104.438 658.279 104.552 658.854 104.78 659.328C105.009 659.803 105.331 660.169 105.747 660.427C106.169 660.679 106.667 660.805 107.241 660.805C107.669 660.805 108.041 660.746 108.357 660.629C108.674 660.512 108.935 660.362 109.14 660.181C109.345 659.999 109.488 659.812 109.57 659.618L109.605 659.539H111.135L111.117 659.609C111.035 659.938 110.889 660.254 110.678 660.559C110.473 660.857 110.203 661.13 109.869 661.376C109.541 661.616 109.154 661.81 108.709 661.956C108.264 662.097 107.763 662.167 107.206 662.167ZM116.197 662.167C115.6 662.167 115.061 662.053 114.58 661.824C114.105 661.596 113.73 661.271 113.455 660.849C113.18 660.427 113.042 659.929 113.042 659.354V659.337C113.042 658.499 113.341 657.843 113.938 657.368C114.536 656.888 115.386 656.615 116.487 656.551L119.968 656.34V657.562L116.672 657.772C115.957 657.813 115.433 657.963 115.099 658.221C114.771 658.479 114.606 658.839 114.606 659.302V659.319C114.606 659.8 114.785 660.175 115.143 660.444C115.506 660.708 115.963 660.84 116.514 660.84C117.035 660.84 117.498 660.737 117.902 660.532C118.307 660.321 118.623 660.037 118.852 659.68C119.086 659.322 119.203 658.918 119.203 658.467V655.531C119.203 654.945 119.024 654.5 118.667 654.195C118.315 653.885 117.785 653.729 117.076 653.729C116.508 653.729 116.042 653.832 115.679 654.037C115.315 654.236 115.072 654.523 114.949 654.898L114.94 654.925H113.42L113.429 654.872C113.505 654.374 113.707 653.938 114.035 653.562C114.369 653.188 114.8 652.897 115.327 652.692C115.854 652.481 116.455 652.376 117.129 652.376C117.902 652.376 118.556 652.502 119.089 652.754C119.622 653.006 120.029 653.366 120.311 653.835C120.592 654.304 120.732 654.866 120.732 655.522V662H119.203V660.603H119.062C118.863 660.937 118.62 661.221 118.333 661.455C118.052 661.689 117.732 661.868 117.375 661.991C117.018 662.108 116.625 662.167 116.197 662.167ZM123.492 662V652.543H125.021V653.976H125.153C125.364 653.472 125.687 653.079 126.12 652.798C126.56 652.517 127.09 652.376 127.711 652.376C128.139 652.376 128.522 652.446 128.862 652.587C129.202 652.728 129.495 652.924 129.741 653.176C129.987 653.422 130.184 653.709 130.33 654.037H130.462C130.632 653.703 130.86 653.413 131.147 653.167C131.435 652.915 131.766 652.722 132.141 652.587C132.521 652.446 132.929 652.376 133.362 652.376C134.007 652.376 134.552 652.496 134.997 652.736C135.448 652.977 135.791 653.328 136.025 653.791C136.26 654.248 136.377 654.805 136.377 655.461V662H134.848V655.812C134.848 655.121 134.684 654.603 134.355 654.257C134.033 653.905 133.538 653.729 132.87 653.729C132.431 653.729 132.047 653.829 131.719 654.028C131.396 654.222 131.145 654.485 130.963 654.819C130.781 655.147 130.69 655.514 130.69 655.918V662H129.161V655.584C129.161 655.021 128.982 654.573 128.625 654.239C128.268 653.899 127.79 653.729 127.192 653.729C126.782 653.729 126.413 653.838 126.085 654.055C125.757 654.266 125.496 654.556 125.303 654.925C125.115 655.288 125.021 655.692 125.021 656.138V662H123.492ZM139.189 662V648.79H140.719V662H139.189ZM147.478 662.167C146.575 662.167 145.802 661.968 145.157 661.569C144.513 661.171 144.015 660.608 143.663 659.882C143.317 659.155 143.145 658.297 143.145 657.307V657.298C143.145 656.319 143.317 655.461 143.663 654.723C144.015 653.984 144.507 653.41 145.14 653C145.778 652.584 146.525 652.376 147.381 652.376C148.242 652.376 148.98 652.575 149.596 652.974C150.217 653.366 150.691 653.92 151.02 654.635C151.354 655.344 151.521 656.17 151.521 657.113V657.711H143.936V656.489H150.738L149.982 657.605V656.999C149.982 656.255 149.871 655.643 149.648 655.162C149.426 654.682 149.118 654.324 148.726 654.09C148.333 653.855 147.882 653.738 147.372 653.738C146.862 653.738 146.408 653.861 146.01 654.107C145.611 654.354 145.295 654.72 145.061 655.206C144.826 655.692 144.709 656.29 144.709 656.999V657.605C144.709 658.279 144.823 658.854 145.052 659.328C145.28 659.803 145.603 660.169 146.019 660.427C146.44 660.679 146.938 660.805 147.513 660.805C147.94 660.805 148.312 660.746 148.629 660.629C148.945 660.512 149.206 660.362 149.411 660.181C149.616 659.999 149.76 659.812 149.842 659.618L149.877 659.539H151.406L151.389 659.609C151.307 659.938 151.16 660.254 150.949 660.559C150.744 660.857 150.475 661.13 150.141 661.376C149.812 661.616 149.426 661.81 148.98 661.956C148.535 662.097 148.034 662.167 147.478 662.167ZM157.119 662.167C156.416 662.167 155.795 662.062 155.256 661.851C154.717 661.634 154.283 661.332 153.955 660.945C153.633 660.553 153.442 660.096 153.384 659.574H154.948C155.077 659.973 155.326 660.292 155.695 660.532C156.07 660.772 156.562 660.893 157.172 660.893C157.594 660.893 157.966 660.831 158.288 660.708C158.616 660.579 158.871 660.406 159.053 660.189C159.24 659.973 159.334 659.721 159.334 659.434V659.416C159.334 659.094 159.205 658.821 158.947 658.599C158.695 658.37 158.279 658.186 157.699 658.045L156.231 657.693C155.347 657.482 154.696 657.175 154.28 656.771C153.864 656.36 153.656 655.815 153.656 655.136V655.127C153.656 654.6 153.809 654.128 154.113 653.712C154.424 653.296 154.843 652.971 155.37 652.736C155.903 652.496 156.504 652.376 157.172 652.376C157.834 652.376 158.42 652.481 158.93 652.692C159.445 652.897 159.858 653.193 160.169 653.58C160.485 653.961 160.676 654.406 160.74 654.916V654.925H159.246H159.237C159.144 654.544 158.918 654.236 158.561 654.002C158.203 653.768 157.737 653.65 157.163 653.65C156.788 653.65 156.454 653.712 156.161 653.835C155.874 653.952 155.646 654.116 155.476 654.327C155.306 654.532 155.221 654.775 155.221 655.057V655.074C155.221 655.396 155.347 655.663 155.599 655.874C155.851 656.085 156.252 656.258 156.803 656.393L158.262 656.744C159.152 656.961 159.814 657.271 160.248 657.676C160.682 658.08 160.898 658.622 160.898 659.302V659.319C160.898 659.876 160.731 660.371 160.397 660.805C160.069 661.232 159.618 661.566 159.044 661.807C158.476 662.047 157.834 662.167 157.119 662.167ZM166.33 662.167C165.627 662.167 165.006 662.062 164.467 661.851C163.928 661.634 163.494 661.332 163.166 660.945C162.844 660.553 162.653 660.096 162.595 659.574H164.159C164.288 659.973 164.537 660.292 164.906 660.532C165.281 660.772 165.773 660.893 166.383 660.893C166.805 660.893 167.177 660.831 167.499 660.708C167.827 660.579 168.082 660.406 168.264 660.189C168.451 659.973 168.545 659.721 168.545 659.434V659.416C168.545 659.094 168.416 658.821 168.158 658.599C167.906 658.37 167.49 658.186 166.91 658.045L165.442 657.693C164.558 657.482 163.907 657.175 163.491 656.771C163.075 656.36 162.867 655.815 162.867 655.136V655.127C162.867 654.6 163.02 654.128 163.324 653.712C163.635 653.296 164.054 652.971 164.581 652.736C165.114 652.496 165.715 652.376 166.383 652.376C167.045 652.376 167.631 652.481 168.141 652.692C168.656 652.897 169.069 653.193 169.38 653.58C169.696 653.961 169.887 654.406 169.951 654.916V654.925H168.457H168.448C168.354 654.544 168.129 654.236 167.771 654.002C167.414 653.768 166.948 653.65 166.374 653.65C165.999 653.65 165.665 653.712 165.372 653.835C165.085 653.952 164.856 654.116 164.687 654.327C164.517 654.532 164.432 654.775 164.432 655.057V655.074C164.432 655.396 164.558 655.663 164.81 655.874C165.062 656.085 165.463 656.258 166.014 656.393L167.473 656.744C168.363 656.961 169.025 657.271 169.459 657.676C169.893 658.08 170.109 658.622 170.109 659.302V659.319C170.109 659.876 169.942 660.371 169.608 660.805C169.28 661.232 168.829 661.566 168.255 661.807C167.687 662.047 167.045 662.167 166.33 662.167ZM172.069 665.19L172.834 660.225H174.574L173.194 665.19H172.069ZM188.232 662.299C187.02 662.299 185.979 662.029 185.112 661.49C184.245 660.945 183.577 660.175 183.108 659.179C182.646 658.183 182.414 657.011 182.414 655.663V655.646C182.414 654.286 182.648 653.111 183.117 652.121C183.592 651.131 184.263 650.366 185.13 649.827C186.003 649.288 187.037 649.019 188.232 649.019C189.434 649.019 190.468 649.288 191.335 649.827C192.208 650.366 192.879 651.134 193.348 652.13C193.816 653.12 194.051 654.292 194.051 655.646V655.663C194.051 657.011 193.816 658.183 193.348 659.179C192.885 660.169 192.217 660.937 191.344 661.481C190.477 662.026 189.439 662.299 188.232 662.299ZM188.232 660.84C189.1 660.84 189.847 660.626 190.474 660.198C191.101 659.771 191.584 659.17 191.924 658.396C192.264 657.617 192.434 656.706 192.434 655.663V655.646C192.434 654.591 192.264 653.677 191.924 652.903C191.584 652.13 191.101 651.532 190.474 651.11C189.847 650.688 189.1 650.478 188.232 650.478C187.371 650.478 186.627 650.688 186 651.11C185.373 651.532 184.887 652.13 184.541 652.903C184.201 653.677 184.031 654.591 184.031 655.646V655.663C184.031 656.706 184.198 657.617 184.532 658.396C184.866 659.17 185.347 659.771 185.974 660.198C186.601 660.626 187.354 660.84 188.232 660.84ZM196.564 662V652.543H198.094V653.958H198.226C198.466 653.46 198.812 653.073 199.263 652.798C199.72 652.517 200.297 652.376 200.994 652.376C202.055 652.376 202.869 652.681 203.438 653.29C204.012 653.894 204.299 654.755 204.299 655.874V662H202.77V656.243C202.77 655.388 202.588 654.755 202.225 654.345C201.867 653.935 201.311 653.729 200.555 653.729C200.057 653.729 199.623 653.838 199.254 654.055C198.885 654.271 198.598 654.579 198.393 654.978C198.193 655.37 198.094 655.845 198.094 656.401V662H196.564ZM210.882 662.167C209.979 662.167 209.206 661.968 208.562 661.569C207.917 661.171 207.419 660.608 207.067 659.882C206.722 659.155 206.549 658.297 206.549 657.307V657.298C206.549 656.319 206.722 655.461 207.067 654.723C207.419 653.984 207.911 653.41 208.544 653C209.183 652.584 209.93 652.376 210.785 652.376C211.646 652.376 212.385 652.575 213 652.974C213.621 653.366 214.096 653.92 214.424 654.635C214.758 655.344 214.925 656.17 214.925 657.113V657.711H207.34V656.489H214.143L213.387 657.605V656.999C213.387 656.255 213.275 655.643 213.053 655.162C212.83 654.682 212.522 654.324 212.13 654.09C211.737 653.855 211.286 653.738 210.776 653.738C210.267 653.738 209.812 653.861 209.414 654.107C209.016 654.354 208.699 654.72 208.465 655.206C208.23 655.692 208.113 656.29 208.113 656.999V657.605C208.113 658.279 208.228 658.854 208.456 659.328C208.685 659.803 209.007 660.169 209.423 660.427C209.845 660.679 210.343 660.805 210.917 660.805C211.345 660.805 211.717 660.746 212.033 660.629C212.35 660.512 212.61 660.362 212.815 660.181C213.021 659.999 213.164 659.812 213.246 659.618L213.281 659.539H214.811L214.793 659.609C214.711 659.938 214.564 660.254 214.354 660.559C214.148 660.857 213.879 661.13 213.545 661.376C213.217 661.616 212.83 661.81 212.385 661.956C211.939 662.097 211.438 662.167 210.882 662.167ZM217.148 657.605V656.182H223.037V657.605H217.148ZM230.077 662.299C229.151 662.299 228.343 662.149 227.651 661.851C226.966 661.546 226.421 661.13 226.017 660.603C225.618 660.069 225.387 659.46 225.322 658.774L225.313 658.669H226.896L226.904 658.774C226.945 659.196 227.106 659.562 227.388 659.873C227.675 660.178 228.056 660.415 228.53 660.585C229.011 660.755 229.556 660.84 230.165 660.84C230.739 660.84 231.249 660.749 231.694 660.567C232.146 660.38 232.5 660.122 232.758 659.794C233.016 659.466 233.145 659.088 233.145 658.66V658.651C233.145 658.124 232.951 657.682 232.564 657.324C232.178 656.961 231.548 656.683 230.675 656.489L229.269 656.182C227.997 655.9 227.071 655.467 226.491 654.881C225.917 654.289 225.63 653.533 225.63 652.613V652.604C225.636 651.901 225.826 651.28 226.201 650.741C226.582 650.202 227.106 649.78 227.774 649.476C228.448 649.171 229.222 649.019 230.095 649.019C230.938 649.019 231.686 649.171 232.336 649.476C232.986 649.774 233.502 650.182 233.883 650.697C234.27 651.207 234.483 651.778 234.524 652.411L234.533 652.534H232.951L232.934 652.42C232.875 652.045 232.723 651.711 232.477 651.418C232.23 651.125 231.902 650.894 231.492 650.724C231.082 650.554 230.602 650.472 230.051 650.478C229.523 650.478 229.049 650.562 228.627 650.732C228.205 650.896 227.868 651.131 227.616 651.436C227.37 651.74 227.247 652.115 227.247 652.561V652.569C227.247 653.073 227.435 653.498 227.81 653.844C228.185 654.189 228.803 654.456 229.664 654.644L231.07 654.96C232.395 655.253 233.341 655.678 233.909 656.234C234.478 656.791 234.762 657.526 234.762 658.44V658.449C234.762 659.24 234.568 659.923 234.182 660.497C233.795 661.071 233.25 661.517 232.547 661.833C231.844 662.144 231.021 662.299 230.077 662.299ZM240.519 662.079C239.552 662.079 238.849 661.883 238.409 661.49C237.976 661.092 237.759 660.444 237.759 659.548V653.809H236.273V652.543H237.759V650.091H239.341V652.543H241.397V653.809H239.341V659.179C239.341 659.729 239.446 660.125 239.657 660.365C239.868 660.605 240.217 660.726 240.703 660.726C240.838 660.726 240.952 660.723 241.046 660.717C241.146 660.711 241.263 660.702 241.397 660.69V661.991C241.257 662.015 241.113 662.035 240.967 662.053C240.82 662.07 240.671 662.079 240.519 662.079ZM247.4 662.167C246.51 662.167 245.736 661.971 245.08 661.578C244.43 661.18 243.926 660.614 243.568 659.882C243.217 659.149 243.041 658.282 243.041 657.28V657.263C243.041 656.249 243.217 655.379 243.568 654.652C243.926 653.92 244.43 653.357 245.08 652.965C245.736 652.572 246.51 652.376 247.4 652.376C248.303 652.376 249.079 652.572 249.729 652.965C250.38 653.357 250.881 653.92 251.232 654.652C251.59 655.379 251.769 656.249 251.769 657.263V657.28C251.769 658.288 251.59 659.158 251.232 659.891C250.881 660.617 250.38 661.18 249.729 661.578C249.079 661.971 248.303 662.167 247.4 662.167ZM247.4 660.813C247.998 660.813 248.505 660.673 248.921 660.392C249.337 660.11 249.653 659.709 249.87 659.188C250.093 658.66 250.204 658.024 250.204 657.28V657.263C250.204 656.513 250.093 655.874 249.87 655.347C249.653 654.819 249.337 654.418 248.921 654.143C248.505 653.867 247.998 653.729 247.4 653.729C246.809 653.729 246.305 653.867 245.889 654.143C245.473 654.418 245.153 654.819 244.931 655.347C244.714 655.874 244.605 656.513 244.605 657.263V657.28C244.605 658.024 244.714 658.66 244.931 659.188C245.153 659.709 245.473 660.11 245.889 660.392C246.305 660.673 246.809 660.813 247.4 660.813ZM254.098 665.164V652.543H255.627V654.055H255.759C255.952 653.703 256.195 653.404 256.488 653.158C256.781 652.906 257.115 652.713 257.49 652.578C257.865 652.443 258.272 652.376 258.712 652.376C259.515 652.376 260.212 652.578 260.804 652.982C261.401 653.387 261.864 653.955 262.192 654.688C262.521 655.42 262.685 656.278 262.685 657.263V657.28C262.685 658.271 262.521 659.132 262.192 659.864C261.864 660.591 261.401 661.156 260.804 661.561C260.212 661.965 259.515 662.167 258.712 662.167C258.278 662.167 257.868 662.1 257.481 661.965C257.101 661.824 256.761 661.631 256.462 661.385C256.169 661.139 255.935 660.846 255.759 660.506H255.627V665.164H254.098ZM258.36 660.813C258.94 660.813 259.436 660.673 259.846 660.392C260.256 660.104 260.569 659.697 260.786 659.17C261.009 658.643 261.12 658.013 261.12 657.28V657.263C261.12 656.524 261.009 655.892 260.786 655.364C260.569 654.837 260.256 654.433 259.846 654.151C259.436 653.87 258.94 653.729 258.36 653.729C257.792 653.729 257.3 653.873 256.884 654.16C256.468 654.447 256.148 654.854 255.926 655.382C255.703 655.903 255.592 656.53 255.592 657.263V657.28C255.592 658.001 255.703 658.628 255.926 659.161C256.148 659.688 256.468 660.096 256.884 660.383C257.3 660.67 257.792 660.813 258.36 660.813ZM123 678.474V677.067H126.577C127.485 677.067 128.188 676.833 128.687 676.364C129.185 675.89 129.434 675.236 129.434 674.404V674.387C129.434 673.549 129.185 672.896 128.687 672.427C128.188 671.958 127.485 671.724 126.577 671.724H123V670.317H126.981C127.778 670.317 128.481 670.487 129.091 670.827C129.7 671.167 130.178 671.642 130.523 672.251C130.875 672.86 131.051 673.566 131.051 674.369V674.387C131.051 675.189 130.875 675.898 130.523 676.514C130.178 677.129 129.7 677.609 129.091 677.955C128.481 678.301 127.778 678.474 126.981 678.474H123ZM122.209 683V670.317H123.791V683H122.209ZM133.494 683V669.79H135.023V683H133.494ZM140.525 683.167C139.928 683.167 139.389 683.053 138.908 682.824C138.434 682.596 138.059 682.271 137.783 681.849C137.508 681.427 137.37 680.929 137.37 680.354V680.337C137.37 679.499 137.669 678.843 138.267 678.368C138.864 677.888 139.714 677.615 140.815 677.551L144.296 677.34V678.562L141 678.772C140.285 678.813 139.761 678.963 139.427 679.221C139.099 679.479 138.935 679.839 138.935 680.302V680.319C138.935 680.8 139.113 681.175 139.471 681.444C139.834 681.708 140.291 681.84 140.842 681.84C141.363 681.84 141.826 681.737 142.23 681.532C142.635 681.321 142.951 681.037 143.18 680.68C143.414 680.322 143.531 679.918 143.531 679.467V676.531C143.531 675.945 143.353 675.5 142.995 675.195C142.644 674.885 142.113 674.729 141.404 674.729C140.836 674.729 140.37 674.832 140.007 675.037C139.644 675.236 139.4 675.523 139.277 675.898L139.269 675.925H137.748L137.757 675.872C137.833 675.374 138.035 674.938 138.363 674.562C138.697 674.188 139.128 673.897 139.655 673.692C140.183 673.481 140.783 673.376 141.457 673.376C142.23 673.376 142.884 673.502 143.417 673.754C143.95 674.006 144.357 674.366 144.639 674.835C144.92 675.304 145.061 675.866 145.061 676.522V683H143.531V681.603H143.391C143.191 681.937 142.948 682.221 142.661 682.455C142.38 682.689 142.061 682.868 141.703 682.991C141.346 683.108 140.953 683.167 140.525 683.167ZM151.169 683.079C150.202 683.079 149.499 682.883 149.06 682.49C148.626 682.092 148.409 681.444 148.409 680.548V674.809H146.924V673.543H148.409V671.091H149.991V673.543H152.048V674.809H149.991V680.179C149.991 680.729 150.097 681.125 150.308 681.365C150.519 681.605 150.867 681.726 151.354 681.726C151.488 681.726 151.603 681.723 151.696 681.717C151.796 681.711 151.913 681.702 152.048 681.69V682.991C151.907 683.015 151.764 683.035 151.617 683.053C151.471 683.07 151.321 683.079 151.169 683.079ZM154.931 683V674.809H153.375V673.543H154.931V672.479C154.931 671.542 155.162 670.845 155.625 670.388C156.094 669.925 156.776 669.693 157.673 669.693C157.86 669.693 158.036 669.702 158.2 669.72C158.37 669.731 158.531 669.752 158.684 669.781V671.003C158.59 670.985 158.481 670.974 158.358 670.968C158.235 670.962 158.109 670.959 157.98 670.959C157.441 670.959 157.052 671.091 156.812 671.354C156.577 671.618 156.46 672.008 156.46 672.523V673.543H158.604V674.809H156.46V683H154.931ZM164.238 683.167C163.348 683.167 162.574 682.971 161.918 682.578C161.268 682.18 160.764 681.614 160.406 680.882C160.055 680.149 159.879 679.282 159.879 678.28V678.263C159.879 677.249 160.055 676.379 160.406 675.652C160.764 674.92 161.268 674.357 161.918 673.965C162.574 673.572 163.348 673.376 164.238 673.376C165.141 673.376 165.917 673.572 166.567 673.965C167.218 674.357 167.719 674.92 168.07 675.652C168.428 676.379 168.606 677.249 168.606 678.263V678.28C168.606 679.288 168.428 680.158 168.07 680.891C167.719 681.617 167.218 682.18 166.567 682.578C165.917 682.971 165.141 683.167 164.238 683.167ZM164.238 681.813C164.836 681.813 165.343 681.673 165.759 681.392C166.175 681.11 166.491 680.709 166.708 680.188C166.931 679.66 167.042 679.024 167.042 678.28V678.263C167.042 677.513 166.931 676.874 166.708 676.347C166.491 675.819 166.175 675.418 165.759 675.143C165.343 674.867 164.836 674.729 164.238 674.729C163.646 674.729 163.143 674.867 162.727 675.143C162.311 675.418 161.991 675.819 161.769 676.347C161.552 676.874 161.443 677.513 161.443 678.263V678.28C161.443 679.024 161.552 679.66 161.769 680.188C161.991 680.709 162.311 681.11 162.727 681.392C163.143 681.673 163.646 681.813 164.238 681.813ZM170.936 683V673.543H172.465V674.949H172.597C172.778 674.451 173.083 674.064 173.511 673.789C173.944 673.514 174.478 673.376 175.11 673.376C175.257 673.376 175.4 673.385 175.541 673.402C175.688 673.414 175.796 673.426 175.866 673.438V674.923C175.714 674.894 175.562 674.873 175.409 674.861C175.263 674.844 175.104 674.835 174.935 674.835C174.454 674.835 174.026 674.932 173.651 675.125C173.282 675.312 172.992 675.579 172.781 675.925C172.57 676.271 172.465 676.675 172.465 677.138V683H170.936ZM177.914 683V673.543H179.443V674.976H179.575C179.786 674.472 180.108 674.079 180.542 673.798C180.981 673.517 181.512 673.376 182.133 673.376C182.561 673.376 182.944 673.446 183.284 673.587C183.624 673.728 183.917 673.924 184.163 674.176C184.409 674.422 184.605 674.709 184.752 675.037H184.884C185.054 674.703 185.282 674.413 185.569 674.167C185.856 673.915 186.188 673.722 186.562 673.587C186.943 673.446 187.351 673.376 187.784 673.376C188.429 673.376 188.974 673.496 189.419 673.736C189.87 673.977 190.213 674.328 190.447 674.791C190.682 675.248 190.799 675.805 190.799 676.461V683H189.27V676.812C189.27 676.121 189.105 675.603 188.777 675.257C188.455 674.905 187.96 674.729 187.292 674.729C186.853 674.729 186.469 674.829 186.141 675.028C185.818 675.222 185.566 675.485 185.385 675.819C185.203 676.147 185.112 676.514 185.112 676.918V683H183.583V676.584C183.583 676.021 183.404 675.573 183.047 675.239C182.689 674.899 182.212 674.729 181.614 674.729C181.204 674.729 180.835 674.838 180.507 675.055C180.179 675.266 179.918 675.556 179.725 675.925C179.537 676.288 179.443 676.692 179.443 677.138V683H177.914ZM194.754 683.088C194.443 683.088 194.177 682.977 193.954 682.754C193.731 682.531 193.62 682.265 193.62 681.954C193.62 681.638 193.731 681.371 193.954 681.154C194.177 680.932 194.443 680.82 194.754 680.82C195.07 680.82 195.337 680.932 195.554 681.154C195.776 681.371 195.888 681.638 195.888 681.954C195.888 682.265 195.776 682.531 195.554 682.754C195.337 682.977 195.07 683.088 194.754 683.088Z" fill="#2C6A72" fill-opacity="0.4"/>
<line x1="319.5" y1="-2.18557e-08" x2="319.5" y2="1081" stroke="#2C6A72" stroke-opacity="0.1"/>
</svg>
