<svg width="320" height="1081" viewBox="0 0 320 1081" fill="none" xmlns="http://www.w3.org/2000/svg">
<rect width="319" height="1081" fill="#E2FFFB"/>
<rect width="319" height="1081" fill="#E2FFFB"/>
<path d="M158.766 416.391C157.12 416.391 155.682 416.115 154.453 415.562C153.224 415.01 152.25 414.255 151.531 413.297C150.823 412.328 150.411 411.219 150.297 409.969L150.281 409.766H154.125L154.156 409.938C154.26 410.844 154.724 411.599 155.547 412.203C156.37 412.797 157.443 413.094 158.766 413.094C159.641 413.094 160.401 412.948 161.047 412.656C161.703 412.354 162.208 411.943 162.562 411.422C162.927 410.901 163.109 410.297 163.109 409.609V409.578C163.109 408.391 162.698 407.479 161.875 406.844C161.062 406.208 159.932 405.891 158.484 405.891H155.812V402.891H158.391C159.224 402.891 159.948 402.745 160.562 402.453C161.188 402.161 161.672 401.766 162.016 401.266C162.37 400.755 162.547 400.172 162.547 399.516V399.484C162.547 398.797 162.396 398.219 162.094 397.75C161.792 397.271 161.354 396.906 160.781 396.656C160.219 396.396 159.536 396.266 158.734 396.266C157.943 396.266 157.24 396.396 156.625 396.656C156.021 396.917 155.536 397.286 155.172 397.766C154.807 398.234 154.589 398.792 154.516 399.438L154.5 399.594H150.766L150.781 399.406C150.896 398.135 151.292 397.026 151.969 396.078C152.656 395.13 153.578 394.391 154.734 393.859C155.891 393.328 157.224 393.062 158.734 393.062C160.286 393.062 161.635 393.312 162.781 393.812C163.938 394.302 164.828 394.99 165.453 395.875C166.089 396.75 166.406 397.776 166.406 398.953V398.984C166.406 399.911 166.198 400.734 165.781 401.453C165.365 402.161 164.797 402.75 164.078 403.219C163.37 403.688 162.568 404.016 161.672 404.203V404.281C163.339 404.438 164.677 404.99 165.688 405.938C166.698 406.875 167.203 408.125 167.203 409.688V409.719C167.203 411.021 166.844 412.177 166.125 413.188C165.417 414.188 164.432 414.974 163.172 415.547C161.911 416.109 160.443 416.391 158.766 416.391Z" fill="#2C6A72" fill-opacity="0.4"/>
<path d="M39.0625 514.391C36.8646 514.391 34.9635 513.917 33.3594 512.969C31.7656 512.021 30.5312 510.677 29.6562 508.938C28.7917 507.188 28.3594 505.12 28.3594 502.734V502.703C28.3594 500.318 28.7969 498.255 29.6719 496.516C30.5469 494.776 31.7812 493.432 33.375 492.484C34.9792 491.536 36.875 491.062 39.0625 491.062C41.25 491.062 43.1406 491.536 44.7344 492.484C46.3385 493.432 47.5729 494.776 48.4375 496.516C49.3125 498.255 49.75 500.318 49.75 502.703V502.734C49.75 505.12 49.3125 507.188 48.4375 508.938C47.5729 510.677 46.3438 512.021 44.75 512.969C43.1562 513.917 41.2604 514.391 39.0625 514.391ZM39.0625 510.906C40.4271 510.906 41.599 510.573 42.5781 509.906C43.5677 509.229 44.3281 508.281 44.8594 507.062C45.3906 505.833 45.6562 504.391 45.6562 502.734V502.703C45.6562 501.036 45.3854 499.594 44.8438 498.375C44.3125 497.146 43.5521 496.203 42.5625 495.547C41.5729 494.88 40.4062 494.547 39.0625 494.547C37.7292 494.547 36.5625 494.88 35.5625 495.547C34.5729 496.203 33.8073 497.141 33.2656 498.359C32.7344 499.578 32.4688 501.026 32.4688 502.703V502.734C32.4688 504.401 32.7344 505.849 33.2656 507.078C33.8073 508.297 34.5729 509.24 35.5625 509.906C36.5521 510.573 37.7188 510.906 39.0625 510.906ZM57.0469 514L51.1875 497.438H55.3281L59.1719 510.391H59.2656L63.1094 497.438H67.1562L61.3281 514H57.0469ZM75.6406 514.328C73.9844 514.328 72.5573 513.979 71.3594 513.281C70.1719 512.583 69.2604 511.594 68.625 510.312C67.9896 509.031 67.6719 507.516 67.6719 505.766V505.75C67.6719 504.01 67.9896 502.495 68.625 501.203C69.2708 499.901 70.1719 498.891 71.3281 498.172C72.4948 497.453 73.8698 497.094 75.4531 497.094C77.026 497.094 78.3854 497.443 79.5312 498.141C80.6875 498.828 81.5729 499.797 82.1875 501.047C82.8125 502.297 83.125 503.755 83.125 505.422V506.672H69.5938V504.078H81.2656L79.3906 506.5V505C79.3906 503.917 79.224 503.016 78.8906 502.297C78.5573 501.578 78.099 501.042 77.5156 500.688C76.9323 500.323 76.2604 500.141 75.5 500.141C74.7292 500.141 74.0417 500.328 73.4375 500.703C72.8438 501.068 72.375 501.615 72.0312 502.344C71.6979 503.073 71.5312 503.958 71.5312 505V506.5C71.5312 507.51 71.6979 508.375 72.0312 509.094C72.375 509.802 72.8594 510.349 73.4844 510.734C74.1094 511.109 74.8542 511.297 75.7188 511.297C76.3646 511.297 76.9323 511.198 77.4219 511C77.9115 510.792 78.3125 510.526 78.625 510.203C78.9479 509.88 79.1719 509.531 79.2969 509.156L79.3281 509.047H82.9531L82.9219 509.219C82.7865 509.854 82.5365 510.479 82.1719 511.094C81.8073 511.698 81.3177 512.245 80.7031 512.734C80.0885 513.224 79.3594 513.615 78.5156 513.906C77.6719 514.188 76.7135 514.328 75.6406 514.328ZM85.6094 514V497.438H89.4844V500.297H89.5781C89.8281 499.297 90.2812 498.516 90.9375 497.953C91.6042 497.38 92.4167 497.094 93.375 497.094C93.6146 497.094 93.8438 497.109 94.0625 497.141C94.2812 497.172 94.4635 497.208 94.6094 497.25V500.766C94.4531 500.703 94.2292 500.651 93.9375 500.609C93.6562 500.568 93.349 500.547 93.0156 500.547C92.2865 500.547 91.6562 500.698 91.125 501C90.5938 501.292 90.1875 501.724 89.9062 502.297C89.625 502.87 89.4844 503.568 89.4844 504.391V514H85.6094ZM96.5156 506.562V503.125H106.594V506.562H96.5156ZM114.141 514V494.844H107.391V491.453H124.891V494.844H118.156V514H114.141ZM127.375 514V491.453H131.266V500.219H131.344C131.781 499.219 132.432 498.448 133.297 497.906C134.172 497.365 135.224 497.094 136.453 497.094C137.651 497.094 138.688 497.37 139.562 497.922C140.438 498.464 141.115 499.229 141.594 500.219C142.073 501.198 142.312 502.354 142.312 503.688V514H138.422V504.453C138.422 503.182 138.115 502.188 137.5 501.469C136.885 500.74 136.021 500.375 134.906 500.375C134.177 500.375 133.536 500.552 132.984 500.906C132.443 501.25 132.021 501.729 131.719 502.344C131.417 502.948 131.266 503.651 131.266 504.453V514H127.375ZM152.734 514.328C151.078 514.328 149.651 513.979 148.453 513.281C147.266 512.583 146.354 511.594 145.719 510.312C145.083 509.031 144.766 507.516 144.766 505.766V505.75C144.766 504.01 145.083 502.495 145.719 501.203C146.365 499.901 147.266 498.891 148.422 498.172C149.589 497.453 150.964 497.094 152.547 497.094C154.12 497.094 155.479 497.443 156.625 498.141C157.781 498.828 158.667 499.797 159.281 501.047C159.906 502.297 160.219 503.755 160.219 505.422V506.672H146.688V504.078H158.359L156.484 506.5V505C156.484 503.917 156.318 503.016 155.984 502.297C155.651 501.578 155.193 501.042 154.609 500.688C154.026 500.323 153.354 500.141 152.594 500.141C151.823 500.141 151.135 500.328 150.531 500.703C149.938 501.068 149.469 501.615 149.125 502.344C148.792 503.073 148.625 503.958 148.625 505V506.5C148.625 507.51 148.792 508.375 149.125 509.094C149.469 509.802 149.953 510.349 150.578 510.734C151.203 511.109 151.948 511.297 152.812 511.297C153.458 511.297 154.026 511.198 154.516 511C155.005 510.792 155.406 510.526 155.719 510.203C156.042 509.88 156.266 509.531 156.391 509.156L156.422 509.047H160.047L160.016 509.219C159.88 509.854 159.63 510.479 159.266 511.094C158.901 511.698 158.411 512.245 157.797 512.734C157.182 513.224 156.453 513.615 155.609 513.906C154.766 514.188 153.807 514.328 152.734 514.328ZM163.047 506.562V503.125H173.125V506.562H163.047ZM186.875 514.391C184.719 514.391 182.844 513.917 181.25 512.969C179.667 512.021 178.443 510.677 177.578 508.938C176.724 507.188 176.297 505.115 176.297 502.719V502.703C176.297 500.307 176.729 498.24 177.594 496.5C178.458 494.76 179.682 493.422 181.266 492.484C182.849 491.536 184.719 491.062 186.875 491.062C188.604 491.062 190.151 491.396 191.516 492.062C192.891 492.729 194.01 493.651 194.875 494.828C195.74 496.005 196.271 497.359 196.469 498.891L196.484 499.047H192.531L192.453 498.75C192.234 497.885 191.875 497.141 191.375 496.516C190.875 495.891 190.245 495.406 189.484 495.062C188.724 494.719 187.854 494.547 186.875 494.547C185.562 494.547 184.422 494.88 183.453 495.547C182.484 496.214 181.734 497.156 181.203 498.375C180.672 499.583 180.406 501.026 180.406 502.703V502.719C180.406 504.385 180.672 505.833 181.203 507.062C181.734 508.281 182.484 509.229 183.453 509.906C184.432 510.573 185.573 510.906 186.875 510.906C187.833 510.906 188.688 510.74 189.438 510.406C190.198 510.062 190.839 509.568 191.359 508.922C191.88 508.276 192.26 507.49 192.5 506.562L192.547 506.406H196.5L196.469 506.578C196.281 508.109 195.755 509.464 194.891 510.641C194.026 511.818 192.906 512.74 191.531 513.406C190.156 514.062 188.604 514.391 186.875 514.391ZM206.5 514.328C204.875 514.328 203.464 513.984 202.266 513.297C201.068 512.599 200.135 511.609 199.469 510.328C198.812 509.036 198.484 507.5 198.484 505.719V505.688C198.484 503.917 198.818 502.391 199.484 501.109C200.151 499.818 201.083 498.828 202.281 498.141C203.479 497.443 204.88 497.094 206.484 497.094C208.099 497.094 209.505 497.443 210.703 498.141C211.911 498.828 212.849 499.812 213.516 501.094C214.182 502.375 214.516 503.906 214.516 505.688V505.719C214.516 507.51 214.182 509.052 213.516 510.344C212.859 511.625 211.932 512.609 210.734 513.297C209.536 513.984 208.125 514.328 206.5 514.328ZM206.516 511.188C207.339 511.188 208.052 510.974 208.656 510.547C209.26 510.12 209.724 509.5 210.047 508.688C210.38 507.865 210.547 506.875 210.547 505.719V505.688C210.547 504.542 210.38 503.562 210.047 502.75C209.714 501.938 209.24 501.318 208.625 500.891C208.021 500.464 207.307 500.25 206.484 500.25C205.682 500.25 204.974 500.464 204.359 500.891C203.755 501.318 203.281 501.938 202.938 502.75C202.604 503.562 202.438 504.542 202.438 505.688V505.719C202.438 506.875 202.604 507.865 202.938 508.688C203.281 509.5 203.755 510.12 204.359 510.547C204.974 510.974 205.693 511.188 206.516 511.188ZM222.656 514.328C221.438 514.328 220.401 514.083 219.547 513.594C218.703 513.094 218.057 512.38 217.609 511.453C217.161 510.526 216.938 509.427 216.938 508.156V497.438H220.812V507.375C220.812 508.552 221.089 509.464 221.641 510.109C222.193 510.745 223.026 511.062 224.141 511.062C224.88 511.062 225.521 510.896 226.062 510.562C226.615 510.219 227.042 509.745 227.344 509.141C227.646 508.536 227.797 507.833 227.797 507.031V497.438H231.688V514H227.797V511.406H227.719C227.292 512.292 226.656 513 225.812 513.531C224.969 514.062 223.917 514.328 222.656 514.328ZM234.891 514V497.438H238.766V500.031H238.859C239.286 499.135 239.922 498.422 240.766 497.891C241.62 497.359 242.672 497.094 243.922 497.094C245.745 497.094 247.151 497.646 248.141 498.75C249.141 499.854 249.641 501.365 249.641 503.281V514H245.75V504.062C245.75 502.885 245.474 501.979 244.922 501.344C244.37 500.698 243.542 500.375 242.438 500.375C241.698 500.375 241.052 500.547 240.5 500.891C239.948 501.224 239.521 501.693 239.219 502.297C238.917 502.891 238.766 503.589 238.766 504.391V514H234.891ZM258.906 514.328C257.188 514.328 255.906 513.953 255.062 513.203C254.229 512.453 253.812 511.224 253.812 509.516V500.438H251.469V497.438H253.812V493.234H257.766V497.438H260.844V500.438H257.766V509.203C257.766 510.005 257.943 510.562 258.297 510.875C258.661 511.177 259.193 511.328 259.891 511.328C260.089 511.328 260.26 511.323 260.406 511.312C260.562 511.292 260.708 511.276 260.844 511.266V514.188C260.615 514.219 260.333 514.25 260 514.281C259.677 514.312 259.312 514.328 258.906 514.328ZM270.484 514.328C268.828 514.328 267.401 513.979 266.203 513.281C265.016 512.583 264.104 511.594 263.469 510.312C262.833 509.031 262.516 507.516 262.516 505.766V505.75C262.516 504.01 262.833 502.495 263.469 501.203C264.115 499.901 265.016 498.891 266.172 498.172C267.339 497.453 268.714 497.094 270.297 497.094C271.87 497.094 273.229 497.443 274.375 498.141C275.531 498.828 276.417 499.797 277.031 501.047C277.656 502.297 277.969 503.755 277.969 505.422V506.672H264.438V504.078H276.109L274.234 506.5V505C274.234 503.917 274.068 503.016 273.734 502.297C273.401 501.578 272.943 501.042 272.359 500.688C271.776 500.323 271.104 500.141 270.344 500.141C269.573 500.141 268.885 500.328 268.281 500.703C267.688 501.068 267.219 501.615 266.875 502.344C266.542 503.073 266.375 503.958 266.375 505V506.5C266.375 507.51 266.542 508.375 266.875 509.094C267.219 509.802 267.703 510.349 268.328 510.734C268.953 511.109 269.698 511.297 270.562 511.297C271.208 511.297 271.776 511.198 272.266 511C272.755 510.792 273.156 510.526 273.469 510.203C273.792 509.88 274.016 509.531 274.141 509.156L274.172 509.047H277.797L277.766 509.219C277.63 509.854 277.38 510.479 277.016 511.094C276.651 511.698 276.161 512.245 275.547 512.734C274.932 513.224 274.203 513.615 273.359 513.906C272.516 514.188 271.557 514.328 270.484 514.328ZM280.453 514V497.438H284.328V500.297H284.422C284.672 499.297 285.125 498.516 285.781 497.953C286.448 497.38 287.26 497.094 288.219 497.094C288.458 497.094 288.688 497.109 288.906 497.141C289.125 497.172 289.307 497.208 289.453 497.25V500.766C289.297 500.703 289.073 500.651 288.781 500.609C288.5 500.568 288.193 500.547 287.859 500.547C287.13 500.547 286.5 500.698 285.969 501C285.438 501.292 285.031 501.724 284.75 502.297C284.469 502.87 284.328 503.568 284.328 504.391V514H280.453ZM73.5 552V529.453H78.1562L85.0625 546.688H85.1719L92.0781 529.453H96.7344V552H93.1094V535.953H91.25L95.3594 530.078L86.4844 552H83.75L74.875 530.078L78.9844 535.953H77.125V552H73.5ZM107.609 552.328C105.953 552.328 104.526 551.979 103.328 551.281C102.141 550.583 101.229 549.594 100.594 548.312C99.9583 547.031 99.6406 545.516 99.6406 543.766V543.75C99.6406 542.01 99.9583 540.495 100.594 539.203C101.24 537.901 102.141 536.891 103.297 536.172C104.464 535.453 105.839 535.094 107.422 535.094C108.995 535.094 110.354 535.443 111.5 536.141C112.656 536.828 113.542 537.797 114.156 539.047C114.781 540.297 115.094 541.755 115.094 543.422V544.672H101.562V542.078H113.234L111.359 544.5V543C111.359 541.917 111.193 541.016 110.859 540.297C110.526 539.578 110.068 539.042 109.484 538.688C108.901 538.323 108.229 538.141 107.469 538.141C106.698 538.141 106.01 538.328 105.406 538.703C104.812 539.068 104.344 539.615 104 540.344C103.667 541.073 103.5 541.958 103.5 543V544.5C103.5 545.51 103.667 546.375 104 547.094C104.344 547.802 104.828 548.349 105.453 548.734C106.078 549.109 106.823 549.297 107.688 549.297C108.333 549.297 108.901 549.198 109.391 549C109.88 548.792 110.281 548.526 110.594 548.203C110.917 547.88 111.141 547.531 111.266 547.156L111.297 547.047H114.922L114.891 547.219C114.755 547.854 114.505 548.479 114.141 549.094C113.776 549.698 113.286 550.245 112.672 550.734C112.057 551.224 111.328 551.615 110.484 551.906C109.641 552.188 108.682 552.328 107.609 552.328ZM123.734 552.328C122.339 552.328 121.125 551.984 120.094 551.297C119.073 550.599 118.281 549.604 117.719 548.312C117.167 547.021 116.891 545.49 116.891 543.719V543.703C116.891 541.922 117.172 540.391 117.734 539.109C118.297 537.818 119.089 536.828 120.109 536.141C121.13 535.443 122.333 535.094 123.719 535.094C124.896 535.094 125.932 535.38 126.828 535.953C127.734 536.516 128.422 537.292 128.891 538.281H128.984V529.453H132.859V552H128.984V549.188H128.891C128.422 550.167 127.745 550.938 126.859 551.5C125.974 552.052 124.932 552.328 123.734 552.328ZM124.906 549.062C125.708 549.062 126.417 548.844 127.031 548.406C127.646 547.969 128.125 547.349 128.469 546.547C128.812 545.745 128.984 544.802 128.984 543.719V543.703C128.984 542.62 128.807 541.682 128.453 540.891C128.109 540.089 127.63 539.469 127.016 539.031C126.411 538.594 125.708 538.375 124.906 538.375C124.073 538.375 123.349 538.594 122.734 539.031C122.13 539.458 121.661 540.068 121.328 540.859C121.005 541.651 120.844 542.599 120.844 543.703V543.719C120.844 544.812 121.005 545.76 121.328 546.562C121.661 547.365 122.13 547.984 122.734 548.422C123.349 548.849 124.073 549.062 124.906 549.062ZM136.25 552V535.438H140.141V552H136.25ZM138.188 533.062C137.583 533.062 137.073 532.854 136.656 532.438C136.24 532.021 136.031 531.521 136.031 530.938C136.031 530.344 136.24 529.844 136.656 529.438C137.073 529.021 137.583 528.812 138.188 528.812C138.802 528.812 139.318 529.021 139.734 529.438C140.151 529.844 140.359 530.344 140.359 530.938C140.359 531.521 140.151 532.021 139.734 532.438C139.318 532.854 138.802 533.062 138.188 533.062ZM150.766 552.328C149.13 552.328 147.714 551.979 146.516 551.281C145.318 550.583 144.391 549.589 143.734 548.297C143.089 547.005 142.766 545.474 142.766 543.703V543.688C142.766 541.927 143.094 540.406 143.75 539.125C144.406 537.833 145.328 536.839 146.516 536.141C147.714 535.443 149.115 535.094 150.719 535.094C152.177 535.094 153.438 535.375 154.5 535.938C155.562 536.49 156.396 537.224 157 538.141C157.604 539.057 157.948 540.068 158.031 541.172V541.281H154.375L154.344 541.156C154.188 540.354 153.807 539.672 153.203 539.109C152.609 538.536 151.797 538.25 150.766 538.25C149.953 538.25 149.24 538.474 148.625 538.922C148.021 539.359 147.552 539.984 147.219 540.797C146.885 541.609 146.719 542.583 146.719 543.719V543.734C146.719 544.88 146.885 545.859 147.219 546.672C147.562 547.484 148.036 548.109 148.641 548.547C149.255 548.974 149.969 549.188 150.781 549.188C151.771 549.188 152.568 548.922 153.172 548.391C153.786 547.849 154.182 547.146 154.359 546.281L154.391 546.141H158.062L158.047 546.25C157.943 547.396 157.578 548.427 156.953 549.344C156.328 550.26 155.49 550.99 154.438 551.531C153.385 552.062 152.161 552.328 150.766 552.328ZM165.281 552.281C164.188 552.281 163.219 552.073 162.375 551.656C161.542 551.229 160.891 550.641 160.422 549.891C159.964 549.13 159.734 548.26 159.734 547.281V547.25C159.734 545.781 160.281 544.62 161.375 543.766C162.479 542.901 164.031 542.411 166.031 542.297L172.359 541.906V544.484L166.578 544.844C165.62 544.906 164.885 545.135 164.375 545.531C163.865 545.927 163.609 546.453 163.609 547.109V547.125C163.609 547.802 163.865 548.339 164.375 548.734C164.896 549.12 165.583 549.312 166.438 549.312C167.188 549.312 167.854 549.161 168.438 548.859C169.031 548.557 169.5 548.146 169.844 547.625C170.188 547.104 170.359 546.516 170.359 545.859V540.891C170.359 540.057 170.094 539.401 169.562 538.922C169.042 538.432 168.286 538.188 167.297 538.188C166.38 538.188 165.646 538.385 165.094 538.781C164.542 539.167 164.198 539.667 164.062 540.281L164.031 540.422H160.438L160.453 540.234C160.536 539.255 160.865 538.38 161.438 537.609C162.01 536.828 162.802 536.214 163.812 535.766C164.833 535.318 166.042 535.094 167.438 535.094C168.823 535.094 170.021 535.323 171.031 535.781C172.052 536.24 172.839 536.88 173.391 537.703C173.953 538.526 174.234 539.495 174.234 540.609V552H170.359V549.453H170.266C169.953 550.026 169.547 550.526 169.047 550.953C168.547 551.38 167.974 551.708 167.328 551.938C166.693 552.167 166.01 552.281 165.281 552.281ZM183.531 552.328C181.812 552.328 180.531 551.953 179.688 551.203C178.854 550.453 178.438 549.224 178.438 547.516V538.438H176.094V535.438H178.438V531.234H182.391V535.438H185.469V538.438H182.391V547.203C182.391 548.005 182.568 548.562 182.922 548.875C183.286 549.177 183.818 549.328 184.516 549.328C184.714 549.328 184.885 549.323 185.031 549.312C185.188 549.292 185.333 549.276 185.469 549.266V552.188C185.24 552.219 184.958 552.25 184.625 552.281C184.302 552.312 183.938 552.328 183.531 552.328ZM188.25 552V535.438H192.141V552H188.25ZM190.188 533.062C189.583 533.062 189.073 532.854 188.656 532.438C188.24 532.021 188.031 531.521 188.031 530.938C188.031 530.344 188.24 529.844 188.656 529.438C189.073 529.021 189.583 528.812 190.188 528.812C190.802 528.812 191.318 529.021 191.734 529.438C192.151 529.844 192.359 530.344 192.359 530.938C192.359 531.521 192.151 532.021 191.734 532.438C191.318 532.854 190.802 533.062 190.188 533.062ZM202.781 552.328C201.156 552.328 199.745 551.984 198.547 551.297C197.349 550.599 196.417 549.609 195.75 548.328C195.094 547.036 194.766 545.5 194.766 543.719V543.688C194.766 541.917 195.099 540.391 195.766 539.109C196.432 537.818 197.365 536.828 198.562 536.141C199.76 535.443 201.161 535.094 202.766 535.094C204.38 535.094 205.786 535.443 206.984 536.141C208.193 536.828 209.13 537.812 209.797 539.094C210.464 540.375 210.797 541.906 210.797 543.688V543.719C210.797 545.51 210.464 547.052 209.797 548.344C209.141 549.625 208.214 550.609 207.016 551.297C205.818 551.984 204.406 552.328 202.781 552.328ZM202.797 549.188C203.62 549.188 204.333 548.974 204.938 548.547C205.542 548.12 206.005 547.5 206.328 546.688C206.661 545.865 206.828 544.875 206.828 543.719V543.688C206.828 542.542 206.661 541.562 206.328 540.75C205.995 539.938 205.521 539.318 204.906 538.891C204.302 538.464 203.589 538.25 202.766 538.25C201.964 538.25 201.255 538.464 200.641 538.891C200.036 539.318 199.562 539.938 199.219 540.75C198.885 541.562 198.719 542.542 198.719 543.688V543.719C198.719 544.875 198.885 545.865 199.219 546.688C199.562 547.5 200.036 548.12 200.641 548.547C201.255 548.974 201.974 549.188 202.797 549.188ZM213.297 552V535.438H217.172V538.031H217.266C217.693 537.135 218.328 536.422 219.172 535.891C220.026 535.359 221.078 535.094 222.328 535.094C224.151 535.094 225.557 535.646 226.547 536.75C227.547 537.854 228.047 539.365 228.047 541.281V552H224.156V542.062C224.156 540.885 223.88 539.979 223.328 539.344C222.776 538.698 221.948 538.375 220.844 538.375C220.104 538.375 219.458 538.547 218.906 538.891C218.354 539.224 217.927 539.693 217.625 540.297C217.323 540.891 217.172 541.589 217.172 542.391V552H213.297ZM237.641 552.328C236.193 552.328 234.953 552.115 233.922 551.688C232.901 551.26 232.099 550.661 231.516 549.891C230.943 549.109 230.594 548.208 230.469 547.188L230.453 547.047H234.281L234.312 547.188C234.458 547.906 234.802 548.464 235.344 548.859C235.896 549.255 236.667 549.453 237.656 549.453C238.292 549.453 238.833 549.375 239.281 549.219C239.729 549.062 240.073 548.833 240.312 548.531C240.562 548.229 240.688 547.875 240.688 547.469V547.453C240.688 546.964 240.521 546.568 240.188 546.266C239.854 545.953 239.255 545.698 238.391 545.5L235.641 544.891C234.057 544.547 232.865 543.984 232.062 543.203C231.271 542.422 230.875 541.417 230.875 540.188V540.172C230.875 539.161 231.151 538.276 231.703 537.516C232.255 536.755 233.031 536.161 234.031 535.734C235.031 535.307 236.193 535.094 237.516 535.094C238.891 535.094 240.068 535.323 241.047 535.781C242.026 536.24 242.781 536.854 243.312 537.625C243.854 538.396 244.146 539.26 244.188 540.219L244.203 540.391H240.578L240.562 540.266C240.479 539.599 240.177 539.052 239.656 538.625C239.135 538.188 238.422 537.969 237.516 537.969C236.943 537.969 236.443 538.052 236.016 538.219C235.599 538.385 235.276 538.62 235.047 538.922C234.828 539.224 234.719 539.578 234.719 539.984V540C234.719 540.469 234.896 540.865 235.25 541.188C235.615 541.51 236.224 541.771 237.078 541.969L239.828 542.578C241.547 542.964 242.771 543.516 243.5 544.234C244.229 544.943 244.594 545.896 244.594 547.094V547.109C244.594 548.151 244.297 549.068 243.703 549.859C243.109 550.641 242.286 551.25 241.234 551.688C240.193 552.115 238.995 552.328 237.641 552.328Z" fill="#2C6A72"/>
<path d="M64.4473 637.299C63.2812 637.299 62.2676 637.029 61.4062 636.49C60.5449 635.945 59.877 635.175 59.4023 634.179C58.9336 633.183 58.6992 632.011 58.6992 630.663V630.646C58.6992 629.31 58.9365 628.146 59.4111 627.156C59.8857 626.16 60.5537 625.39 61.415 624.845C62.2822 624.294 63.293 624.019 64.4473 624.019C65.3906 624.019 66.2285 624.186 66.9609 624.52C67.6934 624.854 68.2969 625.319 68.7715 625.917C69.252 626.509 69.5742 627.206 69.7383 628.009L69.7559 628.097H68.1562L68.1299 628.009C67.8721 627.194 67.4297 626.57 66.8027 626.137C66.1758 625.697 65.3906 625.478 64.4473 625.478C63.6094 625.478 62.8799 625.691 62.2588 626.119C61.6436 626.541 61.166 627.139 60.8262 627.912C60.4863 628.686 60.3164 629.597 60.3164 630.646V630.663C60.3164 631.724 60.4834 632.644 60.8174 633.423C61.1572 634.196 61.6348 634.794 62.25 635.216C62.8711 635.632 63.6064 635.84 64.4561 635.84C65.2119 635.84 65.874 635.69 66.4424 635.392C67.0166 635.087 67.4619 634.665 67.7783 634.126C68.0947 633.587 68.2529 632.96 68.2529 632.245V631.938H64.6934V630.549H69.835V632.078C69.835 633.127 69.6123 634.044 69.167 634.829C68.7217 635.608 68.0947 636.215 67.2861 636.648C66.4834 637.082 65.5371 637.299 64.4473 637.299ZM76.2686 637.167C75.3662 637.167 74.5928 636.968 73.9482 636.569C73.3037 636.171 72.8057 635.608 72.4541 634.882C72.1084 634.155 71.9355 633.297 71.9355 632.307V632.298C71.9355 631.319 72.1084 630.461 72.4541 629.723C72.8057 628.984 73.2979 628.41 73.9307 628C74.5693 627.584 75.3164 627.376 76.1719 627.376C77.0332 627.376 77.7715 627.575 78.3867 627.974C79.0078 628.366 79.4824 628.92 79.8105 629.635C80.1445 630.344 80.3115 631.17 80.3115 632.113V632.711H72.7266V631.489H79.5293L78.7734 632.605V631.999C78.7734 631.255 78.6621 630.643 78.4395 630.162C78.2168 629.682 77.9092 629.324 77.5166 629.09C77.124 628.855 76.6729 628.738 76.1631 628.738C75.6533 628.738 75.1992 628.861 74.8008 629.107C74.4023 629.354 74.0859 629.72 73.8516 630.206C73.6172 630.692 73.5 631.29 73.5 631.999V632.605C73.5 633.279 73.6143 633.854 73.8428 634.328C74.0713 634.803 74.3936 635.169 74.8096 635.427C75.2314 635.679 75.7295 635.805 76.3037 635.805C76.7314 635.805 77.1035 635.746 77.4199 635.629C77.7363 635.512 77.9971 635.362 78.2021 635.181C78.4072 634.999 78.5508 634.812 78.6328 634.618L78.668 634.539H80.1973L80.1797 634.609C80.0977 634.938 79.9512 635.254 79.7402 635.559C79.5352 635.857 79.2656 636.13 78.9316 636.376C78.6035 636.616 78.2168 636.81 77.7715 636.956C77.3262 637.097 76.8252 637.167 76.2686 637.167ZM86.0068 637.079C85.04 637.079 84.3369 636.883 83.8975 636.49C83.4639 636.092 83.2471 635.444 83.2471 634.548V628.809H81.7617V627.543H83.2471V625.091H84.8291V627.543H86.8857V628.809H84.8291V634.179C84.8291 634.729 84.9346 635.125 85.1455 635.365C85.3564 635.605 85.7051 635.726 86.1914 635.726C86.3262 635.726 86.4404 635.723 86.5342 635.717C86.6338 635.711 86.751 635.702 86.8857 635.69V636.991C86.7451 637.015 86.6016 637.035 86.4551 637.053C86.3086 637.07 86.1592 637.079 86.0068 637.079ZM94.3477 637V624.317H102.205V625.741H95.9297V629.811H101.88V631.217H95.9297V635.576H102.205V637H94.3477ZM108.094 637.167C107.391 637.167 106.77 637.062 106.23 636.851C105.691 636.634 105.258 636.332 104.93 635.945C104.607 635.553 104.417 635.096 104.358 634.574H105.923C106.052 634.973 106.301 635.292 106.67 635.532C107.045 635.772 107.537 635.893 108.146 635.893C108.568 635.893 108.94 635.831 109.263 635.708C109.591 635.579 109.846 635.406 110.027 635.189C110.215 634.973 110.309 634.721 110.309 634.434V634.416C110.309 634.094 110.18 633.821 109.922 633.599C109.67 633.37 109.254 633.186 108.674 633.045L107.206 632.693C106.321 632.482 105.671 632.175 105.255 631.771C104.839 631.36 104.631 630.815 104.631 630.136V630.127C104.631 629.6 104.783 629.128 105.088 628.712C105.398 628.296 105.817 627.971 106.345 627.736C106.878 627.496 107.479 627.376 108.146 627.376C108.809 627.376 109.395 627.481 109.904 627.692C110.42 627.897 110.833 628.193 111.144 628.58C111.46 628.961 111.65 629.406 111.715 629.916V629.925H110.221H110.212C110.118 629.544 109.893 629.236 109.535 629.002C109.178 628.768 108.712 628.65 108.138 628.65C107.763 628.65 107.429 628.712 107.136 628.835C106.849 628.952 106.62 629.116 106.45 629.327C106.28 629.532 106.195 629.775 106.195 630.057V630.074C106.195 630.396 106.321 630.663 106.573 630.874C106.825 631.085 107.227 631.258 107.777 631.393L109.236 631.744C110.127 631.961 110.789 632.271 111.223 632.676C111.656 633.08 111.873 633.622 111.873 634.302V634.319C111.873 634.876 111.706 635.371 111.372 635.805C111.044 636.232 110.593 636.566 110.019 636.807C109.45 637.047 108.809 637.167 108.094 637.167ZM117.305 637.167C116.602 637.167 115.98 637.062 115.441 636.851C114.902 636.634 114.469 636.332 114.141 635.945C113.818 635.553 113.628 635.096 113.569 634.574H115.134C115.263 634.973 115.512 635.292 115.881 635.532C116.256 635.772 116.748 635.893 117.357 635.893C117.779 635.893 118.151 635.831 118.474 635.708C118.802 635.579 119.057 635.406 119.238 635.189C119.426 634.973 119.52 634.721 119.52 634.434V634.416C119.52 634.094 119.391 633.821 119.133 633.599C118.881 633.37 118.465 633.186 117.885 633.045L116.417 632.693C115.532 632.482 114.882 632.175 114.466 631.771C114.05 631.36 113.842 630.815 113.842 630.136V630.127C113.842 629.6 113.994 629.128 114.299 628.712C114.609 628.296 115.028 627.971 115.556 627.736C116.089 627.496 116.689 627.376 117.357 627.376C118.02 627.376 118.605 627.481 119.115 627.692C119.631 627.897 120.044 628.193 120.354 628.58C120.671 628.961 120.861 629.406 120.926 629.916V629.925H119.432H119.423C119.329 629.544 119.104 629.236 118.746 629.002C118.389 628.768 117.923 628.65 117.349 628.65C116.974 628.65 116.64 628.712 116.347 628.835C116.06 628.952 115.831 629.116 115.661 629.327C115.491 629.532 115.406 629.775 115.406 630.057V630.074C115.406 630.396 115.532 630.663 115.784 630.874C116.036 631.085 116.438 631.258 116.988 631.393L118.447 631.744C119.338 631.961 120 632.271 120.434 632.676C120.867 633.08 121.084 633.622 121.084 634.302V634.319C121.084 634.876 120.917 635.371 120.583 635.805C120.255 636.232 119.804 636.566 119.229 636.807C118.661 637.047 118.02 637.167 117.305 637.167ZM127.298 637.167C126.396 637.167 125.622 636.968 124.978 636.569C124.333 636.171 123.835 635.608 123.483 634.882C123.138 634.155 122.965 633.297 122.965 632.307V632.298C122.965 631.319 123.138 630.461 123.483 629.723C123.835 628.984 124.327 628.41 124.96 628C125.599 627.584 126.346 627.376 127.201 627.376C128.062 627.376 128.801 627.575 129.416 627.974C130.037 628.366 130.512 628.92 130.84 629.635C131.174 630.344 131.341 631.17 131.341 632.113V632.711H123.756V631.489H130.559L129.803 632.605V631.999C129.803 631.255 129.691 630.643 129.469 630.162C129.246 629.682 128.938 629.324 128.546 629.09C128.153 628.855 127.702 628.738 127.192 628.738C126.683 628.738 126.229 628.861 125.83 629.107C125.432 629.354 125.115 629.72 124.881 630.206C124.646 630.692 124.529 631.29 124.529 631.999V632.605C124.529 633.279 124.644 633.854 124.872 634.328C125.101 634.803 125.423 635.169 125.839 635.427C126.261 635.679 126.759 635.805 127.333 635.805C127.761 635.805 128.133 635.746 128.449 635.629C128.766 635.512 129.026 635.362 129.231 635.181C129.437 634.999 129.58 634.812 129.662 634.618L129.697 634.539H131.227L131.209 634.609C131.127 634.938 130.98 635.254 130.77 635.559C130.564 635.857 130.295 636.13 129.961 636.376C129.633 636.616 129.246 636.81 128.801 636.956C128.355 637.097 127.854 637.167 127.298 637.167ZM133.688 637V627.543H135.217V628.958H135.349C135.589 628.46 135.935 628.073 136.386 627.798C136.843 627.517 137.42 627.376 138.117 627.376C139.178 627.376 139.992 627.681 140.561 628.29C141.135 628.894 141.422 629.755 141.422 630.874V637H139.893V631.243C139.893 630.388 139.711 629.755 139.348 629.345C138.99 628.935 138.434 628.729 137.678 628.729C137.18 628.729 136.746 628.838 136.377 629.055C136.008 629.271 135.721 629.579 135.516 629.978C135.316 630.37 135.217 630.845 135.217 631.401V637H133.688ZM147.495 637.079C146.528 637.079 145.825 636.883 145.386 636.49C144.952 636.092 144.735 635.444 144.735 634.548V628.809H143.25V627.543H144.735V625.091H146.317V627.543H148.374V628.809H146.317V634.179C146.317 634.729 146.423 635.125 146.634 635.365C146.845 635.605 147.193 635.726 147.68 635.726C147.814 635.726 147.929 635.723 148.022 635.717C148.122 635.711 148.239 635.702 148.374 635.69V636.991C148.233 637.015 148.09 637.035 147.943 637.053C147.797 637.07 147.647 637.079 147.495 637.079ZM150.668 637V627.543H152.197V637H150.668ZM151.441 625.724C151.154 625.724 150.908 625.621 150.703 625.416C150.498 625.205 150.396 624.959 150.396 624.678C150.396 624.385 150.498 624.136 150.703 623.931C150.908 623.726 151.154 623.623 151.441 623.623C151.734 623.623 151.983 623.726 152.188 623.931C152.394 624.136 152.496 624.385 152.496 624.678C152.496 624.959 152.394 625.205 152.188 625.416C151.983 625.621 151.734 625.724 151.441 625.724ZM157.646 637.167C157.049 637.167 156.51 637.053 156.029 636.824C155.555 636.596 155.18 636.271 154.904 635.849C154.629 635.427 154.491 634.929 154.491 634.354V634.337C154.491 633.499 154.79 632.843 155.388 632.368C155.985 631.888 156.835 631.615 157.937 631.551L161.417 631.34V632.562L158.121 632.772C157.406 632.813 156.882 632.963 156.548 633.221C156.22 633.479 156.056 633.839 156.056 634.302V634.319C156.056 634.8 156.234 635.175 156.592 635.444C156.955 635.708 157.412 635.84 157.963 635.84C158.484 635.84 158.947 635.737 159.352 635.532C159.756 635.321 160.072 635.037 160.301 634.68C160.535 634.322 160.652 633.918 160.652 633.467V630.531C160.652 629.945 160.474 629.5 160.116 629.195C159.765 628.885 159.234 628.729 158.525 628.729C157.957 628.729 157.491 628.832 157.128 629.037C156.765 629.236 156.521 629.523 156.398 629.898L156.39 629.925H154.869L154.878 629.872C154.954 629.374 155.156 628.938 155.484 628.562C155.818 628.188 156.249 627.897 156.776 627.692C157.304 627.481 157.904 627.376 158.578 627.376C159.352 627.376 160.005 627.502 160.538 627.754C161.071 628.006 161.479 628.366 161.76 628.835C162.041 629.304 162.182 629.866 162.182 630.522V637H160.652V635.603H160.512C160.312 635.937 160.069 636.221 159.782 636.455C159.501 636.689 159.182 636.868 158.824 636.991C158.467 637.108 158.074 637.167 157.646 637.167ZM165.029 637V623.79H166.559V637H165.029ZM179.988 637.299C178.775 637.299 177.735 637.029 176.868 636.49C176.001 635.945 175.333 635.175 174.864 634.179C174.401 633.183 174.17 632.011 174.17 630.663V630.646C174.17 629.286 174.404 628.111 174.873 627.121C175.348 626.131 176.019 625.366 176.886 624.827C177.759 624.288 178.793 624.019 179.988 624.019C181.189 624.019 182.224 624.288 183.091 624.827C183.964 625.366 184.635 626.134 185.104 627.13C185.572 628.12 185.807 629.292 185.807 630.646V630.663C185.807 632.011 185.572 633.183 185.104 634.179C184.641 635.169 183.973 635.937 183.1 636.481C182.232 637.026 181.195 637.299 179.988 637.299ZM179.988 635.84C180.855 635.84 181.603 635.626 182.229 635.198C182.856 634.771 183.34 634.17 183.68 633.396C184.02 632.617 184.189 631.706 184.189 630.663V630.646C184.189 629.591 184.02 628.677 183.68 627.903C183.34 627.13 182.856 626.532 182.229 626.11C181.603 625.688 180.855 625.478 179.988 625.478C179.127 625.478 178.383 625.688 177.756 626.11C177.129 626.532 176.643 627.13 176.297 627.903C175.957 628.677 175.787 629.591 175.787 630.646V630.663C175.787 631.706 175.954 632.617 176.288 633.396C176.622 634.17 177.103 634.771 177.729 635.198C178.356 635.626 179.109 635.84 179.988 635.84ZM190.992 637L187.494 627.543H189.111L191.704 635.33H191.836L194.429 627.543H196.046L192.539 637H190.992ZM201.548 637.167C200.646 637.167 199.872 636.968 199.228 636.569C198.583 636.171 198.085 635.608 197.733 634.882C197.388 634.155 197.215 633.297 197.215 632.307V632.298C197.215 631.319 197.388 630.461 197.733 629.723C198.085 628.984 198.577 628.41 199.21 628C199.849 627.584 200.596 627.376 201.451 627.376C202.312 627.376 203.051 627.575 203.666 627.974C204.287 628.366 204.762 628.92 205.09 629.635C205.424 630.344 205.591 631.17 205.591 632.113V632.711H198.006V631.489H204.809L204.053 632.605V631.999C204.053 631.255 203.941 630.643 203.719 630.162C203.496 629.682 203.188 629.324 202.796 629.09C202.403 628.855 201.952 628.738 201.442 628.738C200.933 628.738 200.479 628.861 200.08 629.107C199.682 629.354 199.365 629.72 199.131 630.206C198.896 630.692 198.779 631.29 198.779 631.999V632.605C198.779 633.279 198.894 633.854 199.122 634.328C199.351 634.803 199.673 635.169 200.089 635.427C200.511 635.679 201.009 635.805 201.583 635.805C202.011 635.805 202.383 635.746 202.699 635.629C203.016 635.512 203.276 635.362 203.481 635.181C203.687 634.999 203.83 634.812 203.912 634.618L203.947 634.539H205.477L205.459 634.609C205.377 634.938 205.23 635.254 205.02 635.559C204.814 635.857 204.545 636.13 204.211 636.376C203.883 636.616 203.496 636.81 203.051 636.956C202.605 637.097 202.104 637.167 201.548 637.167ZM207.938 637V627.543H209.467V628.949H209.599C209.78 628.451 210.085 628.064 210.513 627.789C210.946 627.514 211.479 627.376 212.112 627.376C212.259 627.376 212.402 627.385 212.543 627.402C212.689 627.414 212.798 627.426 212.868 627.438V628.923C212.716 628.894 212.563 628.873 212.411 628.861C212.265 628.844 212.106 628.835 211.937 628.835C211.456 628.835 211.028 628.932 210.653 629.125C210.284 629.312 209.994 629.579 209.783 629.925C209.572 630.271 209.467 630.675 209.467 631.138V637H207.938ZM213.932 632.605V631.182H219.82V632.605H213.932ZM224.681 637V625.741H220.594V624.317H230.341V625.741H226.263V637H224.681ZM232.652 637V623.79H234.182V628.967H234.313C234.554 628.463 234.899 628.073 235.351 627.798C235.808 627.517 236.385 627.376 237.082 627.376C237.785 627.376 238.383 627.514 238.875 627.789C239.367 628.059 239.742 628.457 240 628.984C240.258 629.506 240.387 630.142 240.387 630.892V637H238.857V631.252C238.857 630.396 238.676 629.764 238.312 629.354C237.955 628.938 237.398 628.729 236.643 628.729C236.139 628.729 235.702 628.838 235.333 629.055C234.97 629.271 234.686 629.579 234.48 629.978C234.281 630.376 234.182 630.851 234.182 631.401V637H232.652ZM246.97 637.167C246.067 637.167 245.294 636.968 244.649 636.569C244.005 636.171 243.507 635.608 243.155 634.882C242.81 634.155 242.637 633.297 242.637 632.307V632.298C242.637 631.319 242.81 630.461 243.155 629.723C243.507 628.984 243.999 628.41 244.632 628C245.271 627.584 246.018 627.376 246.873 627.376C247.734 627.376 248.473 627.575 249.088 627.974C249.709 628.366 250.184 628.92 250.512 629.635C250.846 630.344 251.013 631.17 251.013 632.113V632.711H243.428V631.489H250.23L249.475 632.605V631.999C249.475 631.255 249.363 630.643 249.141 630.162C248.918 629.682 248.61 629.324 248.218 629.09C247.825 628.855 247.374 628.738 246.864 628.738C246.354 628.738 245.9 628.861 245.502 629.107C245.104 629.354 244.787 629.72 244.553 630.206C244.318 630.692 244.201 631.29 244.201 631.999V632.605C244.201 633.279 244.315 633.854 244.544 634.328C244.772 634.803 245.095 635.169 245.511 635.427C245.933 635.679 246.431 635.805 247.005 635.805C247.433 635.805 247.805 635.746 248.121 635.629C248.438 635.512 248.698 635.362 248.903 635.181C249.108 634.999 249.252 634.812 249.334 634.618L249.369 634.539H250.898L250.881 634.609C250.799 634.938 250.652 635.254 250.441 635.559C250.236 635.857 249.967 636.13 249.633 636.376C249.305 636.616 248.918 636.81 248.473 636.956C248.027 637.097 247.526 637.167 246.97 637.167ZM253.236 632.605V631.182H259.125V632.605H253.236ZM63.8408 658.299C62.6924 658.299 61.6963 658.029 60.8525 657.49C60.0146 656.951 59.3672 656.187 58.9102 655.196C58.459 654.206 58.2334 653.031 58.2334 651.672V651.654C58.2334 650.289 58.459 649.111 58.9102 648.121C59.3672 647.131 60.0146 646.366 60.8525 645.827C61.6904 645.288 62.6836 645.019 63.832 645.019C64.7227 645.019 65.5312 645.194 66.2578 645.546C66.9902 645.892 67.5938 646.375 68.0684 646.996C68.543 647.611 68.8418 648.323 68.9648 649.132L68.9561 649.149H67.3652L67.3564 649.123C67.2158 648.584 66.9785 648.118 66.6445 647.726C66.3105 647.327 65.9033 647.02 65.4229 646.803C64.9482 646.586 64.418 646.478 63.832 646.478C63.0234 646.478 62.3203 646.688 61.7227 647.11C61.125 647.532 60.665 648.13 60.3428 648.903C60.0205 649.677 59.8594 650.594 59.8594 651.654V651.672C59.8594 652.727 60.0205 653.641 60.3428 654.414C60.665 655.188 61.125 655.785 61.7227 656.207C62.3203 656.629 63.0264 656.84 63.8408 656.84C64.4326 656.84 64.9688 656.746 65.4492 656.559C65.9297 656.365 66.334 656.09 66.6621 655.732C66.9902 655.375 67.2188 654.953 67.3477 654.467L67.3652 654.44H68.9648V654.467C68.8242 655.24 68.5195 655.914 68.0508 656.488C67.582 657.057 66.9873 657.502 66.2666 657.824C65.5518 658.141 64.7432 658.299 63.8408 658.299ZM75.2842 658.167C74.3936 658.167 73.6201 657.971 72.9639 657.578C72.3135 657.18 71.8096 656.614 71.4521 655.882C71.1006 655.149 70.9248 654.282 70.9248 653.28V653.263C70.9248 652.249 71.1006 651.379 71.4521 650.652C71.8096 649.92 72.3135 649.357 72.9639 648.965C73.6201 648.572 74.3936 648.376 75.2842 648.376C76.1865 648.376 76.9629 648.572 77.6133 648.965C78.2637 649.357 78.7646 649.92 79.1162 650.652C79.4736 651.379 79.6523 652.249 79.6523 653.263V653.28C79.6523 654.288 79.4736 655.158 79.1162 655.891C78.7646 656.617 78.2637 657.18 77.6133 657.578C76.9629 657.971 76.1865 658.167 75.2842 658.167ZM75.2842 656.813C75.8818 656.813 76.3887 656.673 76.8047 656.392C77.2207 656.11 77.5371 655.709 77.7539 655.188C77.9766 654.66 78.0879 654.024 78.0879 653.28V653.263C78.0879 652.513 77.9766 651.874 77.7539 651.347C77.5371 650.819 77.2207 650.418 76.8047 650.143C76.3887 649.867 75.8818 649.729 75.2842 649.729C74.6924 649.729 74.1885 649.867 73.7725 650.143C73.3564 650.418 73.0371 650.819 72.8145 651.347C72.5977 651.874 72.4893 652.513 72.4893 653.263V653.28C72.4893 654.024 72.5977 654.66 72.8145 655.188C73.0371 655.709 73.3564 656.11 73.7725 656.392C74.1885 656.673 74.6924 656.813 75.2842 656.813ZM85.1543 658.167C84.4395 658.167 83.8389 658.032 83.3525 657.763C82.8662 657.487 82.5 657.089 82.2539 656.567C82.0137 656.04 81.8936 655.407 81.8936 654.669V648.543H83.4229V654.3C83.4229 655.144 83.5869 655.773 83.915 656.189C84.249 656.605 84.7939 656.813 85.5498 656.813C86.1006 656.813 86.5664 656.705 86.9473 656.488C87.3281 656.271 87.6152 655.964 87.8086 655.565C88.002 655.161 88.0986 654.687 88.0986 654.142V648.543H89.6279V658H88.0986V656.594H87.9668C87.7266 657.092 87.3721 657.479 86.9033 657.754C86.4346 658.029 85.8516 658.167 85.1543 658.167ZM92.4404 658V648.543H93.9697V649.958H94.1016C94.3418 649.46 94.6875 649.073 95.1387 648.798C95.5957 648.517 96.1729 648.376 96.8701 648.376C97.9307 648.376 98.7451 648.681 99.3135 649.29C99.8877 649.894 100.175 650.755 100.175 651.874V658H98.6455V652.243C98.6455 651.388 98.4639 650.755 98.1006 650.345C97.7432 649.935 97.1865 649.729 96.4307 649.729C95.9326 649.729 95.499 649.838 95.1299 650.055C94.7607 650.271 94.4736 650.579 94.2686 650.978C94.0693 651.37 93.9697 651.845 93.9697 652.401V658H92.4404ZM106.248 658.079C105.281 658.079 104.578 657.883 104.139 657.49C103.705 657.092 103.488 656.444 103.488 655.548V649.809H102.003V648.543H103.488V646.091H105.07V648.543H107.127V649.809H105.07V655.179C105.07 655.729 105.176 656.125 105.387 656.365C105.598 656.605 105.946 656.726 106.433 656.726C106.567 656.726 106.682 656.723 106.775 656.717C106.875 656.711 106.992 656.702 107.127 656.69V657.991C106.986 658.015 106.843 658.035 106.696 658.053C106.55 658.07 106.4 658.079 106.248 658.079ZM113.104 658.167C112.201 658.167 111.428 657.968 110.783 657.569C110.139 657.171 109.641 656.608 109.289 655.882C108.943 655.155 108.771 654.297 108.771 653.307V653.298C108.771 652.319 108.943 651.461 109.289 650.723C109.641 649.984 110.133 649.41 110.766 649C111.404 648.584 112.151 648.376 113.007 648.376C113.868 648.376 114.606 648.575 115.222 648.974C115.843 649.366 116.317 649.92 116.646 650.635C116.979 651.344 117.146 652.17 117.146 653.113V653.711H109.562V652.489H116.364L115.608 653.605V652.999C115.608 652.255 115.497 651.643 115.274 651.162C115.052 650.682 114.744 650.324 114.352 650.09C113.959 649.855 113.508 649.738 112.998 649.738C112.488 649.738 112.034 649.861 111.636 650.107C111.237 650.354 110.921 650.72 110.687 651.206C110.452 651.692 110.335 652.29 110.335 652.999V653.605C110.335 654.279 110.449 654.854 110.678 655.328C110.906 655.803 111.229 656.169 111.645 656.427C112.066 656.679 112.564 656.805 113.139 656.805C113.566 656.805 113.938 656.746 114.255 656.629C114.571 656.512 114.832 656.362 115.037 656.181C115.242 655.999 115.386 655.812 115.468 655.618L115.503 655.539H117.032L117.015 655.609C116.933 655.938 116.786 656.254 116.575 656.559C116.37 656.857 116.101 657.13 115.767 657.376C115.438 657.616 115.052 657.81 114.606 657.956C114.161 658.097 113.66 658.167 113.104 658.167ZM119.493 658V648.543H121.022V649.949H121.154C121.336 649.451 121.641 649.064 122.068 648.789C122.502 648.514 123.035 648.376 123.668 648.376C123.814 648.376 123.958 648.385 124.099 648.402C124.245 648.414 124.354 648.426 124.424 648.438V649.923C124.271 649.894 124.119 649.873 123.967 649.861C123.82 649.844 123.662 649.835 123.492 649.835C123.012 649.835 122.584 649.932 122.209 650.125C121.84 650.312 121.55 650.579 121.339 650.925C121.128 651.271 121.022 651.675 121.022 652.138V658H119.493ZM131.499 658V645.317H133.336L137.678 655.908H137.818L142.16 645.317H143.997V658H142.521V648.306H141.747L143.522 645.669L138.416 658H137.08L131.982 645.669L133.749 648.306H132.976V658H131.499ZM150.861 658.167C149.959 658.167 149.186 657.968 148.541 657.569C147.896 657.171 147.398 656.608 147.047 655.882C146.701 655.155 146.528 654.297 146.528 653.307V653.298C146.528 652.319 146.701 651.461 147.047 650.723C147.398 649.984 147.891 649.41 148.523 649C149.162 648.584 149.909 648.376 150.765 648.376C151.626 648.376 152.364 648.575 152.979 648.974C153.601 649.366 154.075 649.92 154.403 650.635C154.737 651.344 154.904 652.17 154.904 653.113V653.711H147.319V652.489H154.122L153.366 653.605V652.999C153.366 652.255 153.255 651.643 153.032 651.162C152.81 650.682 152.502 650.324 152.109 650.09C151.717 649.855 151.266 649.738 150.756 649.738C150.246 649.738 149.792 649.861 149.394 650.107C148.995 650.354 148.679 650.72 148.444 651.206C148.21 651.692 148.093 652.29 148.093 652.999V653.605C148.093 654.279 148.207 654.854 148.436 655.328C148.664 655.803 148.986 656.169 149.402 656.427C149.824 656.679 150.322 656.805 150.896 656.805C151.324 656.805 151.696 656.746 152.013 656.629C152.329 656.512 152.59 656.362 152.795 656.181C153 655.999 153.144 655.812 153.226 655.618L153.261 655.539H154.79L154.772 655.609C154.69 655.938 154.544 656.254 154.333 656.559C154.128 656.857 153.858 657.13 153.524 657.376C153.196 657.616 152.81 657.81 152.364 657.956C151.919 658.097 151.418 658.167 150.861 658.167ZM160.74 658.167C159.949 658.167 159.255 657.965 158.657 657.561C158.06 657.156 157.597 656.588 157.269 655.855C156.94 655.123 156.776 654.265 156.776 653.28V653.263C156.776 652.272 156.94 651.411 157.269 650.679C157.597 649.946 158.057 649.381 158.648 648.982C159.246 648.578 159.943 648.376 160.74 648.376C161.391 648.376 161.979 648.528 162.507 648.833C163.04 649.132 163.436 649.533 163.693 650.037H163.834V644.79H165.363V658H163.834V656.488H163.693C163.406 657.016 163.008 657.429 162.498 657.728C161.988 658.021 161.402 658.167 160.74 658.167ZM161.092 656.813C161.666 656.813 162.158 656.67 162.568 656.383C162.984 656.096 163.304 655.688 163.526 655.161C163.755 654.628 163.869 654.001 163.869 653.28V653.263C163.869 652.53 163.755 651.903 163.526 651.382C163.304 650.854 162.984 650.447 162.568 650.16C162.158 649.873 161.666 649.729 161.092 649.729C160.518 649.729 160.025 649.873 159.615 650.16C159.205 650.441 158.889 650.846 158.666 651.373C158.449 651.895 158.341 652.524 158.341 653.263V653.28C158.341 654.013 158.449 654.643 158.666 655.17C158.889 655.697 159.205 656.104 159.615 656.392C160.025 656.673 160.518 656.813 161.092 656.813ZM171.507 658.167C170.804 658.167 170.183 658.062 169.644 657.851C169.104 657.634 168.671 657.332 168.343 656.945C168.021 656.553 167.83 656.096 167.771 655.574H169.336C169.465 655.973 169.714 656.292 170.083 656.532C170.458 656.772 170.95 656.893 171.56 656.893C171.981 656.893 172.354 656.831 172.676 656.708C173.004 656.579 173.259 656.406 173.44 656.189C173.628 655.973 173.722 655.721 173.722 655.434V655.416C173.722 655.094 173.593 654.821 173.335 654.599C173.083 654.37 172.667 654.186 172.087 654.045L170.619 653.693C169.734 653.482 169.084 653.175 168.668 652.771C168.252 652.36 168.044 651.815 168.044 651.136V651.127C168.044 650.6 168.196 650.128 168.501 649.712C168.812 649.296 169.23 648.971 169.758 648.736C170.291 648.496 170.892 648.376 171.56 648.376C172.222 648.376 172.808 648.481 173.317 648.692C173.833 648.897 174.246 649.193 174.557 649.58C174.873 649.961 175.063 650.406 175.128 650.916V650.925H173.634H173.625C173.531 650.544 173.306 650.236 172.948 650.002C172.591 649.768 172.125 649.65 171.551 649.65C171.176 649.65 170.842 649.712 170.549 649.835C170.262 649.952 170.033 650.116 169.863 650.327C169.693 650.532 169.608 650.775 169.608 651.057V651.074C169.608 651.396 169.734 651.663 169.986 651.874C170.238 652.085 170.64 652.258 171.19 652.393L172.649 652.744C173.54 652.961 174.202 653.271 174.636 653.676C175.069 654.08 175.286 654.622 175.286 655.302V655.319C175.286 655.876 175.119 656.371 174.785 656.805C174.457 657.232 174.006 657.566 173.432 657.807C172.863 658.047 172.222 658.167 171.507 658.167ZM182.845 658V645.317H187.195C188.449 645.317 189.521 645.569 190.412 646.073C191.309 646.571 191.994 647.292 192.469 648.235C192.943 649.179 193.181 650.315 193.181 651.646V651.663C193.181 652.993 192.943 654.133 192.469 655.082C191.994 656.025 191.312 656.749 190.421 657.253C189.53 657.751 188.455 658 187.195 658H182.845ZM184.427 656.576H187.09C188.033 656.576 188.839 656.383 189.507 655.996C190.175 655.609 190.685 655.05 191.036 654.317C191.388 653.585 191.563 652.706 191.563 651.681V651.663C191.563 650.632 191.385 649.75 191.027 649.018C190.676 648.279 190.166 647.717 189.498 647.33C188.83 646.938 188.027 646.741 187.09 646.741H184.427V656.576ZM199.553 658.167C198.65 658.167 197.877 657.968 197.232 657.569C196.588 657.171 196.09 656.608 195.738 655.882C195.393 655.155 195.22 654.297 195.22 653.307V653.298C195.22 652.319 195.393 651.461 195.738 650.723C196.09 649.984 196.582 649.41 197.215 649C197.854 648.584 198.601 648.376 199.456 648.376C200.317 648.376 201.056 648.575 201.671 648.974C202.292 649.366 202.767 649.92 203.095 650.635C203.429 651.344 203.596 652.17 203.596 653.113V653.711H196.011V652.489H202.813L202.058 653.605V652.999C202.058 652.255 201.946 651.643 201.724 651.162C201.501 650.682 201.193 650.324 200.801 650.09C200.408 649.855 199.957 649.738 199.447 649.738C198.938 649.738 198.483 649.861 198.085 650.107C197.687 650.354 197.37 650.72 197.136 651.206C196.901 651.692 196.784 652.29 196.784 652.999V653.605C196.784 654.279 196.898 654.854 197.127 655.328C197.355 655.803 197.678 656.169 198.094 656.427C198.516 656.679 199.014 656.805 199.588 656.805C200.016 656.805 200.388 656.746 200.704 656.629C201.021 656.512 201.281 656.362 201.486 656.181C201.691 655.999 201.835 655.812 201.917 655.618L201.952 655.539H203.481L203.464 655.609C203.382 655.938 203.235 656.254 203.024 656.559C202.819 656.857 202.55 657.13 202.216 657.376C201.888 657.616 201.501 657.81 201.056 657.956C200.61 658.097 200.109 658.167 199.553 658.167ZM206.03 658V644.79H207.56V658H206.03ZM210.495 658V648.543H212.024V658H210.495ZM211.269 646.724C210.981 646.724 210.735 646.621 210.53 646.416C210.325 646.205 210.223 645.959 210.223 645.678C210.223 645.385 210.325 645.136 210.53 644.931C210.735 644.726 210.981 644.623 211.269 644.623C211.562 644.623 211.811 644.726 212.016 644.931C212.221 645.136 212.323 645.385 212.323 645.678C212.323 645.959 212.221 646.205 212.016 646.416C211.811 646.621 211.562 646.724 211.269 646.724ZM217.544 658L214.046 648.543H215.663L218.256 656.33H218.388L220.98 648.543H222.598L219.091 658H217.544ZM228.1 658.167C227.197 658.167 226.424 657.968 225.779 657.569C225.135 657.171 224.637 656.608 224.285 655.882C223.939 655.155 223.767 654.297 223.767 653.307V653.298C223.767 652.319 223.939 651.461 224.285 650.723C224.637 649.984 225.129 649.41 225.762 649C226.4 648.584 227.147 648.376 228.003 648.376C228.864 648.376 229.603 648.575 230.218 648.974C230.839 649.366 231.313 649.92 231.642 650.635C231.976 651.344 232.143 652.17 232.143 653.113V653.711H224.558V652.489H231.36L230.604 653.605V652.999C230.604 652.255 230.493 651.643 230.271 651.162C230.048 650.682 229.74 650.324 229.348 650.09C228.955 649.855 228.504 649.738 227.994 649.738C227.484 649.738 227.03 649.861 226.632 650.107C226.233 650.354 225.917 650.72 225.683 651.206C225.448 651.692 225.331 652.29 225.331 652.999V653.605C225.331 654.279 225.445 654.854 225.674 655.328C225.902 655.803 226.225 656.169 226.641 656.427C227.062 656.679 227.561 656.805 228.135 656.805C228.562 656.805 228.935 656.746 229.251 656.629C229.567 656.512 229.828 656.362 230.033 656.181C230.238 655.999 230.382 655.812 230.464 655.618L230.499 655.539H232.028L232.011 655.609C231.929 655.938 231.782 656.254 231.571 656.559C231.366 656.857 231.097 657.13 230.763 657.376C230.435 657.616 230.048 657.81 229.603 657.956C229.157 658.097 228.656 658.167 228.1 658.167ZM234.489 658V648.543H236.019V649.949H236.15C236.332 649.451 236.637 649.064 237.064 648.789C237.498 648.514 238.031 648.376 238.664 648.376C238.811 648.376 238.954 648.385 239.095 648.402C239.241 648.414 239.35 648.426 239.42 648.438V649.923C239.268 649.894 239.115 649.873 238.963 649.861C238.816 649.844 238.658 649.835 238.488 649.835C238.008 649.835 237.58 649.932 237.205 650.125C236.836 650.312 236.546 650.579 236.335 650.925C236.124 651.271 236.019 651.675 236.019 652.138V658H234.489ZM244.887 658.167C243.984 658.167 243.211 657.968 242.566 657.569C241.922 657.171 241.424 656.608 241.072 655.882C240.727 655.155 240.554 654.297 240.554 653.307V653.298C240.554 652.319 240.727 651.461 241.072 650.723C241.424 649.984 241.916 649.41 242.549 649C243.188 648.584 243.935 648.376 244.79 648.376C245.651 648.376 246.39 648.575 247.005 648.974C247.626 649.366 248.101 649.92 248.429 650.635C248.763 651.344 248.93 652.17 248.93 653.113V653.711H241.345V652.489H248.147L247.392 653.605V652.999C247.392 652.255 247.28 651.643 247.058 651.162C246.835 650.682 246.527 650.324 246.135 650.09C245.742 649.855 245.291 649.738 244.781 649.738C244.271 649.738 243.817 649.861 243.419 650.107C243.021 650.354 242.704 650.72 242.47 651.206C242.235 651.692 242.118 652.29 242.118 652.999V653.605C242.118 654.279 242.232 654.854 242.461 655.328C242.689 655.803 243.012 656.169 243.428 656.427C243.85 656.679 244.348 656.805 244.922 656.805C245.35 656.805 245.722 656.746 246.038 656.629C246.354 656.512 246.615 656.362 246.82 656.181C247.025 655.999 247.169 655.812 247.251 655.618L247.286 655.539H248.815L248.798 655.609C248.716 655.938 248.569 656.254 248.358 656.559C248.153 656.857 247.884 657.13 247.55 657.376C247.222 657.616 246.835 657.81 246.39 657.956C245.944 658.097 245.443 658.167 244.887 658.167ZM254.766 658.167C253.975 658.167 253.28 657.965 252.683 657.561C252.085 657.156 251.622 656.588 251.294 655.855C250.966 655.123 250.802 654.265 250.802 653.28V653.263C250.802 652.272 250.966 651.411 251.294 650.679C251.622 649.946 252.082 649.381 252.674 648.982C253.271 648.578 253.969 648.376 254.766 648.376C255.416 648.376 256.005 648.528 256.532 648.833C257.065 649.132 257.461 649.533 257.719 650.037H257.859V644.79H259.389V658H257.859V656.488H257.719C257.432 657.016 257.033 657.429 256.523 657.728C256.014 658.021 255.428 658.167 254.766 658.167ZM255.117 656.813C255.691 656.813 256.184 656.67 256.594 656.383C257.01 656.096 257.329 655.688 257.552 655.161C257.78 654.628 257.895 654.001 257.895 653.28V653.263C257.895 652.53 257.78 651.903 257.552 651.382C257.329 650.854 257.01 650.447 256.594 650.16C256.184 649.873 255.691 649.729 255.117 649.729C254.543 649.729 254.051 649.873 253.641 650.16C253.23 650.441 252.914 650.846 252.691 651.373C252.475 651.895 252.366 652.524 252.366 653.263V653.28C252.366 654.013 252.475 654.643 252.691 655.17C252.914 655.697 253.23 656.104 253.641 656.392C254.051 656.673 254.543 656.813 255.117 656.813ZM74.1064 679.299C73.1807 679.299 72.3721 679.149 71.6807 678.851C70.9951 678.546 70.4502 678.13 70.0459 677.603C69.6475 677.069 69.416 676.46 69.3516 675.774L69.3428 675.669H70.9248L70.9336 675.774C70.9746 676.196 71.1357 676.562 71.417 676.873C71.7041 677.178 72.085 677.415 72.5596 677.585C73.04 677.755 73.585 677.84 74.1943 677.84C74.7686 677.84 75.2783 677.749 75.7236 677.567C76.1748 677.38 76.5293 677.122 76.7871 676.794C77.0449 676.466 77.1738 676.088 77.1738 675.66V675.651C77.1738 675.124 76.9805 674.682 76.5938 674.324C76.207 673.961 75.5771 673.683 74.7041 673.489L73.2979 673.182C72.0264 672.9 71.1006 672.467 70.5205 671.881C69.9463 671.289 69.6592 670.533 69.6592 669.613V669.604C69.665 668.901 69.8555 668.28 70.2305 667.741C70.6113 667.202 71.1357 666.78 71.8037 666.476C72.4775 666.171 73.251 666.019 74.124 666.019C74.9678 666.019 75.7148 666.171 76.3652 666.476C77.0156 666.774 77.5312 667.182 77.9121 667.697C78.2988 668.207 78.5127 668.778 78.5537 669.411L78.5625 669.534H76.9805L76.9629 669.42C76.9043 669.045 76.752 668.711 76.5059 668.418C76.2598 668.125 75.9316 667.894 75.5215 667.724C75.1113 667.554 74.6309 667.472 74.0801 667.478C73.5527 667.478 73.0781 667.562 72.6562 667.732C72.2344 667.896 71.8975 668.131 71.6455 668.436C71.3994 668.74 71.2764 669.115 71.2764 669.561V669.569C71.2764 670.073 71.4639 670.498 71.8389 670.844C72.2139 671.189 72.832 671.456 73.6934 671.644L75.0996 671.96C76.4238 672.253 77.3701 672.678 77.9385 673.234C78.5068 673.791 78.791 674.526 78.791 675.44V675.449C78.791 676.24 78.5977 676.923 78.2109 677.497C77.8242 678.071 77.2793 678.517 76.5762 678.833C75.873 679.144 75.0498 679.299 74.1064 679.299ZM84.5479 679.079C83.5811 679.079 82.8779 678.883 82.4385 678.49C82.0049 678.092 81.7881 677.444 81.7881 676.548V670.809H80.3027V669.543H81.7881V667.091H83.3701V669.543H85.4268V670.809H83.3701V676.179C83.3701 676.729 83.4756 677.125 83.6865 677.365C83.8975 677.605 84.2461 677.726 84.7324 677.726C84.8672 677.726 84.9814 677.723 85.0752 677.717C85.1748 677.711 85.292 677.702 85.4268 677.69V678.991C85.2861 679.015 85.1426 679.035 84.9961 679.053C84.8496 679.07 84.7002 679.079 84.5479 679.079ZM87.6855 679V669.543H89.2148V670.949H89.3467C89.5283 670.451 89.833 670.064 90.2607 669.789C90.6943 669.514 91.2275 669.376 91.8604 669.376C92.0068 669.376 92.1504 669.385 92.291 669.402C92.4375 669.414 92.5459 669.426 92.6162 669.438V670.923C92.4639 670.894 92.3115 670.873 92.1592 670.861C92.0127 670.844 91.8545 670.835 91.6846 670.835C91.2041 670.835 90.7764 670.932 90.4014 671.125C90.0322 671.312 89.7422 671.579 89.5312 671.925C89.3203 672.271 89.2148 672.675 89.2148 673.138V679H87.6855ZM97.0898 679.167C96.4922 679.167 95.9531 679.053 95.4727 678.824C94.998 678.596 94.623 678.271 94.3477 677.849C94.0723 677.427 93.9346 676.929 93.9346 676.354V676.337C93.9346 675.499 94.2334 674.843 94.8311 674.368C95.4287 673.888 96.2783 673.615 97.3799 673.551L100.86 673.34V674.562L97.5645 674.772C96.8496 674.813 96.3252 674.963 95.9912 675.221C95.6631 675.479 95.499 675.839 95.499 676.302V676.319C95.499 676.8 95.6777 677.175 96.0352 677.444C96.3984 677.708 96.8555 677.84 97.4062 677.84C97.9277 677.84 98.3906 677.737 98.7949 677.532C99.1992 677.321 99.5156 677.037 99.7441 676.68C99.9785 676.322 100.096 675.918 100.096 675.467V672.531C100.096 671.945 99.917 671.5 99.5596 671.195C99.208 670.885 98.6777 670.729 97.9688 670.729C97.4004 670.729 96.9346 670.832 96.5713 671.037C96.208 671.236 95.9648 671.523 95.8418 671.898L95.833 671.925H94.3125L94.3213 671.872C94.3975 671.374 94.5996 670.938 94.9277 670.562C95.2617 670.188 95.6924 669.897 96.2197 669.692C96.7471 669.481 97.3477 669.376 98.0215 669.376C98.7949 669.376 99.4482 669.502 99.9814 669.754C100.515 670.006 100.922 670.366 101.203 670.835C101.484 671.304 101.625 671.866 101.625 672.522V679H100.096V677.603H99.9551C99.7559 677.937 99.5127 678.221 99.2256 678.455C98.9443 678.689 98.625 678.868 98.2676 678.991C97.9102 679.108 97.5176 679.167 97.0898 679.167ZM104.42 679V669.543H105.949V679H104.42ZM105.193 667.724C104.906 667.724 104.66 667.621 104.455 667.416C104.25 667.205 104.147 666.959 104.147 666.678C104.147 666.385 104.25 666.136 104.455 665.931C104.66 665.726 104.906 665.623 105.193 665.623C105.486 665.623 105.735 665.726 105.94 665.931C106.146 666.136 106.248 666.385 106.248 666.678C106.248 666.959 106.146 667.205 105.94 667.416C105.735 667.621 105.486 667.724 105.193 667.724ZM112.699 682.34C111.938 682.34 111.272 682.231 110.704 682.015C110.136 681.804 109.682 681.502 109.342 681.109C109.008 680.723 108.8 680.271 108.718 679.756L108.727 679.747H110.309L110.317 679.756C110.405 680.113 110.654 680.406 111.064 680.635C111.475 680.869 112.02 680.986 112.699 680.986C113.543 680.986 114.202 680.793 114.677 680.406C115.157 680.02 115.397 679.478 115.397 678.78V676.899H115.257C115.058 677.245 114.809 677.541 114.51 677.787C114.211 678.033 113.874 678.221 113.499 678.35C113.124 678.473 112.72 678.534 112.286 678.534C111.478 678.534 110.774 678.341 110.177 677.954C109.585 677.562 109.128 677.022 108.806 676.337C108.483 675.651 108.322 674.863 108.322 673.973V673.955C108.322 673.07 108.483 672.285 108.806 671.6C109.134 670.908 109.597 670.366 110.194 669.974C110.792 669.575 111.501 669.376 112.321 669.376C112.767 669.376 113.177 669.446 113.552 669.587C113.927 669.728 114.258 669.927 114.545 670.185C114.838 670.442 115.081 670.75 115.274 671.107H115.38V669.543H116.909V678.859C116.909 679.562 116.736 680.175 116.391 680.696C116.051 681.218 115.564 681.622 114.932 681.909C114.299 682.196 113.555 682.34 112.699 682.34ZM112.62 677.181C113.206 677.181 113.707 677.046 114.123 676.776C114.539 676.501 114.858 676.123 115.081 675.643C115.31 675.162 115.424 674.605 115.424 673.973V673.955C115.424 673.328 115.31 672.771 115.081 672.285C114.858 671.799 114.539 671.418 114.123 671.143C113.707 670.867 113.206 670.729 112.62 670.729C112.04 670.729 111.545 670.867 111.135 671.143C110.73 671.418 110.42 671.799 110.203 672.285C109.992 672.771 109.887 673.328 109.887 673.955V673.973C109.887 674.605 109.992 675.162 110.203 675.643C110.42 676.123 110.73 676.501 111.135 676.776C111.545 677.046 112.04 677.181 112.62 677.181ZM119.801 679V665.79H121.33V670.967H121.462C121.702 670.463 122.048 670.073 122.499 669.798C122.956 669.517 123.533 669.376 124.23 669.376C124.934 669.376 125.531 669.514 126.023 669.789C126.516 670.059 126.891 670.457 127.148 670.984C127.406 671.506 127.535 672.142 127.535 672.892V679H126.006V673.252C126.006 672.396 125.824 671.764 125.461 671.354C125.104 670.938 124.547 670.729 123.791 670.729C123.287 670.729 122.851 670.838 122.481 671.055C122.118 671.271 121.834 671.579 121.629 671.978C121.43 672.376 121.33 672.851 121.33 673.401V679H119.801ZM133.608 679.079C132.642 679.079 131.938 678.883 131.499 678.49C131.065 678.092 130.849 677.444 130.849 676.548V670.809H129.363V669.543H130.849V667.091H132.431V669.543H134.487V670.809H132.431V676.179C132.431 676.729 132.536 677.125 132.747 677.365C132.958 677.605 133.307 677.726 133.793 677.726C133.928 677.726 134.042 677.723 134.136 677.717C134.235 677.711 134.353 677.702 134.487 677.69V678.991C134.347 679.015 134.203 679.035 134.057 679.053C133.91 679.07 133.761 679.079 133.608 679.079ZM145.245 679V667.741H141.158V666.317H150.905V667.741H146.827V679H145.245ZM155.221 679.167C154.33 679.167 153.557 678.971 152.9 678.578C152.25 678.18 151.746 677.614 151.389 676.882C151.037 676.149 150.861 675.282 150.861 674.28V674.263C150.861 673.249 151.037 672.379 151.389 671.652C151.746 670.92 152.25 670.357 152.9 669.965C153.557 669.572 154.33 669.376 155.221 669.376C156.123 669.376 156.899 669.572 157.55 669.965C158.2 670.357 158.701 670.92 159.053 671.652C159.41 672.379 159.589 673.249 159.589 674.263V674.28C159.589 675.288 159.41 676.158 159.053 676.891C158.701 677.617 158.2 678.18 157.55 678.578C156.899 678.971 156.123 679.167 155.221 679.167ZM155.221 677.813C155.818 677.813 156.325 677.673 156.741 677.392C157.157 677.11 157.474 676.709 157.69 676.188C157.913 675.66 158.024 675.024 158.024 674.28V674.263C158.024 673.513 157.913 672.874 157.69 672.347C157.474 671.819 157.157 671.418 156.741 671.143C156.325 670.867 155.818 670.729 155.221 670.729C154.629 670.729 154.125 670.867 153.709 671.143C153.293 671.418 152.974 671.819 152.751 672.347C152.534 672.874 152.426 673.513 152.426 674.263V674.28C152.426 675.024 152.534 675.66 152.751 676.188C152.974 676.709 153.293 677.11 153.709 677.392C154.125 677.673 154.629 677.813 155.221 677.813ZM170.61 679V673.542L166.11 666.317H167.912L171.331 671.951H171.472L174.891 666.317H176.692L172.192 673.542V679H170.61ZM181.078 679.167C180.188 679.167 179.414 678.971 178.758 678.578C178.107 678.18 177.604 677.614 177.246 676.882C176.895 676.149 176.719 675.282 176.719 674.28V674.263C176.719 673.249 176.895 672.379 177.246 671.652C177.604 670.92 178.107 670.357 178.758 669.965C179.414 669.572 180.188 669.376 181.078 669.376C181.98 669.376 182.757 669.572 183.407 669.965C184.058 670.357 184.559 670.92 184.91 671.652C185.268 672.379 185.446 673.249 185.446 674.263V674.28C185.446 675.288 185.268 676.158 184.91 676.891C184.559 677.617 184.058 678.18 183.407 678.578C182.757 678.971 181.98 679.167 181.078 679.167ZM181.078 677.813C181.676 677.813 182.183 677.673 182.599 677.392C183.015 677.11 183.331 676.709 183.548 676.188C183.771 675.66 183.882 675.024 183.882 674.28V674.263C183.882 673.513 183.771 672.874 183.548 672.347C183.331 671.819 183.015 671.418 182.599 671.143C182.183 670.867 181.676 670.729 181.078 670.729C180.486 670.729 179.982 670.867 179.566 671.143C179.15 671.418 178.831 671.819 178.608 672.347C178.392 672.874 178.283 673.513 178.283 674.263V674.28C178.283 675.024 178.392 675.66 178.608 676.188C178.831 676.709 179.15 677.11 179.566 677.392C179.982 677.673 180.486 677.813 181.078 677.813ZM190.948 679.167C190.233 679.167 189.633 679.032 189.146 678.763C188.66 678.487 188.294 678.089 188.048 677.567C187.808 677.04 187.688 676.407 187.688 675.669V669.543H189.217V675.3C189.217 676.144 189.381 676.773 189.709 677.189C190.043 677.605 190.588 677.813 191.344 677.813C191.895 677.813 192.36 677.705 192.741 677.488C193.122 677.271 193.409 676.964 193.603 676.565C193.796 676.161 193.893 675.687 193.893 675.142V669.543H195.422V679H193.893V677.594H193.761C193.521 678.092 193.166 678.479 192.697 678.754C192.229 679.029 191.646 679.167 190.948 679.167ZM198.234 679V669.543H199.764V670.949H199.896C200.077 670.451 200.382 670.064 200.81 669.789C201.243 669.514 201.776 669.376 202.409 669.376C202.556 669.376 202.699 669.385 202.84 669.402C202.986 669.414 203.095 669.426 203.165 669.438V670.923C203.013 670.894 202.86 670.873 202.708 670.861C202.562 670.844 202.403 670.835 202.233 670.835C201.753 670.835 201.325 670.932 200.95 671.125C200.581 671.312 200.291 671.579 200.08 671.925C199.869 672.271 199.764 672.675 199.764 673.138V679H198.234ZM210.24 679V666.317H214.591C215.845 666.317 216.917 666.569 217.808 667.073C218.704 667.571 219.39 668.292 219.864 669.235C220.339 670.179 220.576 671.315 220.576 672.646V672.663C220.576 673.993 220.339 675.133 219.864 676.082C219.39 677.025 218.707 677.749 217.816 678.253C216.926 678.751 215.851 679 214.591 679H210.24ZM211.822 677.576H214.485C215.429 677.576 216.234 677.383 216.902 676.996C217.57 676.609 218.08 676.05 218.432 675.317C218.783 674.585 218.959 673.706 218.959 672.681V672.663C218.959 671.632 218.78 670.75 218.423 670.018C218.071 669.279 217.562 668.717 216.894 668.33C216.226 667.938 215.423 667.741 214.485 667.741H211.822V677.576ZM226.975 679.167C226.084 679.167 225.311 678.971 224.654 678.578C224.004 678.18 223.5 677.614 223.143 676.882C222.791 676.149 222.615 675.282 222.615 674.28V674.263C222.615 673.249 222.791 672.379 223.143 671.652C223.5 670.92 224.004 670.357 224.654 669.965C225.311 669.572 226.084 669.376 226.975 669.376C227.877 669.376 228.653 669.572 229.304 669.965C229.954 670.357 230.455 670.92 230.807 671.652C231.164 672.379 231.343 673.249 231.343 674.263V674.28C231.343 675.288 231.164 676.158 230.807 676.891C230.455 677.617 229.954 678.18 229.304 678.578C228.653 678.971 227.877 679.167 226.975 679.167ZM226.975 677.813C227.572 677.813 228.079 677.673 228.495 677.392C228.911 677.11 229.228 676.709 229.444 676.188C229.667 675.66 229.778 675.024 229.778 674.28V674.263C229.778 673.513 229.667 672.874 229.444 672.347C229.228 671.819 228.911 671.418 228.495 671.143C228.079 670.867 227.572 670.729 226.975 670.729C226.383 670.729 225.879 670.867 225.463 671.143C225.047 671.418 224.728 671.819 224.505 672.347C224.288 672.874 224.18 673.513 224.18 674.263V674.28C224.18 675.024 224.288 675.66 224.505 676.188C224.728 676.709 225.047 677.11 225.463 677.392C225.879 677.673 226.383 677.813 226.975 677.813ZM237.557 679.167C236.666 679.167 235.893 678.971 235.236 678.578C234.586 678.18 234.082 677.614 233.725 676.882C233.373 676.149 233.197 675.282 233.197 674.28V674.263C233.197 673.249 233.373 672.379 233.725 671.652C234.082 670.92 234.586 670.357 235.236 669.965C235.893 669.572 236.666 669.376 237.557 669.376C238.459 669.376 239.235 669.572 239.886 669.965C240.536 670.357 241.037 670.92 241.389 671.652C241.746 672.379 241.925 673.249 241.925 674.263V674.28C241.925 675.288 241.746 676.158 241.389 676.891C241.037 677.617 240.536 678.18 239.886 678.578C239.235 678.971 238.459 679.167 237.557 679.167ZM237.557 677.813C238.154 677.813 238.661 677.673 239.077 677.392C239.493 677.11 239.81 676.709 240.026 676.188C240.249 675.66 240.36 675.024 240.36 674.28V674.263C240.36 673.513 240.249 672.874 240.026 672.347C239.81 671.819 239.493 671.418 239.077 671.143C238.661 670.867 238.154 670.729 237.557 670.729C236.965 670.729 236.461 670.867 236.045 671.143C235.629 671.418 235.31 671.819 235.087 672.347C234.87 672.874 234.762 673.513 234.762 674.263V674.28C234.762 675.024 234.87 675.66 235.087 676.188C235.31 676.709 235.629 677.11 236.045 677.392C236.461 677.673 236.965 677.813 237.557 677.813ZM244.254 679V669.543H245.783V670.949H245.915C246.097 670.451 246.401 670.064 246.829 669.789C247.263 669.514 247.796 669.376 248.429 669.376C248.575 669.376 248.719 669.385 248.859 669.402C249.006 669.414 249.114 669.426 249.185 669.438V670.923C249.032 670.894 248.88 670.873 248.728 670.861C248.581 670.844 248.423 670.835 248.253 670.835C247.772 670.835 247.345 670.932 246.97 671.125C246.601 671.312 246.311 671.579 246.1 671.925C245.889 672.271 245.783 672.675 245.783 673.138V679H244.254ZM87.1143 700V687.317H94.8135V688.741H88.6963V693.101H94.3125V694.507H88.6963V700H87.1143ZM101.054 700.167C100.163 700.167 99.3896 699.971 98.7334 699.578C98.083 699.18 97.5791 698.614 97.2217 697.882C96.8701 697.149 96.6943 696.282 96.6943 695.28V695.263C96.6943 694.249 96.8701 693.379 97.2217 692.652C97.5791 691.92 98.083 691.357 98.7334 690.965C99.3896 690.572 100.163 690.376 101.054 690.376C101.956 690.376 102.732 690.572 103.383 690.965C104.033 691.357 104.534 691.92 104.886 692.652C105.243 693.379 105.422 694.249 105.422 695.263V695.28C105.422 696.288 105.243 697.158 104.886 697.891C104.534 698.617 104.033 699.18 103.383 699.578C102.732 699.971 101.956 700.167 101.054 700.167ZM101.054 698.813C101.651 698.813 102.158 698.673 102.574 698.392C102.99 698.11 103.307 697.709 103.523 697.188C103.746 696.66 103.857 696.024 103.857 695.28V695.263C103.857 694.513 103.746 693.874 103.523 693.347C103.307 692.819 102.99 692.418 102.574 692.143C102.158 691.867 101.651 691.729 101.054 691.729C100.462 691.729 99.958 691.867 99.542 692.143C99.126 692.418 98.8066 692.819 98.584 693.347C98.3672 693.874 98.2588 694.513 98.2588 695.263V695.28C98.2588 696.024 98.3672 696.66 98.584 697.188C98.8066 697.709 99.126 698.11 99.542 698.392C99.958 698.673 100.462 698.813 101.054 698.813ZM107.751 700V690.543H109.28V691.949H109.412C109.594 691.451 109.898 691.064 110.326 690.789C110.76 690.514 111.293 690.376 111.926 690.376C112.072 690.376 112.216 690.385 112.356 690.402C112.503 690.414 112.611 690.426 112.682 690.438V691.923C112.529 691.894 112.377 691.873 112.225 691.861C112.078 691.844 111.92 691.835 111.75 691.835C111.27 691.835 110.842 691.932 110.467 692.125C110.098 692.312 109.808 692.579 109.597 692.925C109.386 693.271 109.28 693.675 109.28 694.138V700H107.751ZM124.872 700.299C123.724 700.299 122.728 700.029 121.884 699.49C121.046 698.951 120.398 698.187 119.941 697.196C119.49 696.206 119.265 695.031 119.265 693.672V693.654C119.265 692.289 119.49 691.111 119.941 690.121C120.398 689.131 121.046 688.366 121.884 687.827C122.722 687.288 123.715 687.019 124.863 687.019C125.754 687.019 126.562 687.194 127.289 687.546C128.021 687.892 128.625 688.375 129.1 688.996C129.574 689.611 129.873 690.323 129.996 691.132L129.987 691.149H128.396L128.388 691.123C128.247 690.584 128.01 690.118 127.676 689.726C127.342 689.327 126.935 689.02 126.454 688.803C125.979 688.586 125.449 688.478 124.863 688.478C124.055 688.478 123.352 688.688 122.754 689.11C122.156 689.532 121.696 690.13 121.374 690.903C121.052 691.677 120.891 692.594 120.891 693.654V693.672C120.891 694.727 121.052 695.641 121.374 696.414C121.696 697.188 122.156 697.785 122.754 698.207C123.352 698.629 124.058 698.84 124.872 698.84C125.464 698.84 126 698.746 126.48 698.559C126.961 698.365 127.365 698.09 127.693 697.732C128.021 697.375 128.25 696.953 128.379 696.467L128.396 696.44H129.996V696.467C129.855 697.24 129.551 697.914 129.082 698.488C128.613 699.057 128.019 699.502 127.298 699.824C126.583 700.141 125.774 700.299 124.872 700.299ZM136.315 700.167C135.425 700.167 134.651 699.971 133.995 699.578C133.345 699.18 132.841 698.614 132.483 697.882C132.132 697.149 131.956 696.282 131.956 695.28V695.263C131.956 694.249 132.132 693.379 132.483 692.652C132.841 691.92 133.345 691.357 133.995 690.965C134.651 690.572 135.425 690.376 136.315 690.376C137.218 690.376 137.994 690.572 138.645 690.965C139.295 691.357 139.796 691.92 140.147 692.652C140.505 693.379 140.684 694.249 140.684 695.263V695.28C140.684 696.288 140.505 697.158 140.147 697.891C139.796 698.617 139.295 699.18 138.645 699.578C137.994 699.971 137.218 700.167 136.315 700.167ZM136.315 698.813C136.913 698.813 137.42 698.673 137.836 698.392C138.252 698.11 138.568 697.709 138.785 697.188C139.008 696.66 139.119 696.024 139.119 695.28V695.263C139.119 694.513 139.008 693.874 138.785 693.347C138.568 692.819 138.252 692.418 137.836 692.143C137.42 691.867 136.913 691.729 136.315 691.729C135.724 691.729 135.22 691.867 134.804 692.143C134.388 692.418 134.068 692.819 133.846 693.347C133.629 693.874 133.521 694.513 133.521 695.263V695.28C133.521 696.024 133.629 696.66 133.846 697.188C134.068 697.709 134.388 698.11 134.804 698.392C135.22 698.673 135.724 698.813 136.315 698.813ZM143.013 700V690.543H144.542V691.958H144.674C144.914 691.46 145.26 691.073 145.711 690.798C146.168 690.517 146.745 690.376 147.442 690.376C148.503 690.376 149.317 690.681 149.886 691.29C150.46 691.894 150.747 692.755 150.747 693.874V700H149.218V694.243C149.218 693.388 149.036 692.755 148.673 692.345C148.315 691.935 147.759 691.729 147.003 691.729C146.505 691.729 146.071 691.838 145.702 692.055C145.333 692.271 145.046 692.579 144.841 692.978C144.642 693.37 144.542 693.845 144.542 694.401V700H143.013ZM155.81 700L152.312 690.543H153.929L156.521 698.33H156.653L159.246 690.543H160.863L157.356 700H155.81ZM166.365 700.167C165.463 700.167 164.689 699.968 164.045 699.569C163.4 699.171 162.902 698.608 162.551 697.882C162.205 697.155 162.032 696.297 162.032 695.307V695.298C162.032 694.319 162.205 693.461 162.551 692.723C162.902 691.984 163.395 691.41 164.027 691C164.666 690.584 165.413 690.376 166.269 690.376C167.13 690.376 167.868 690.575 168.483 690.974C169.104 691.366 169.579 691.92 169.907 692.635C170.241 693.344 170.408 694.17 170.408 695.113V695.711H162.823V694.489H169.626L168.87 695.605V694.999C168.87 694.255 168.759 693.643 168.536 693.162C168.313 692.682 168.006 692.324 167.613 692.09C167.221 691.855 166.77 691.738 166.26 691.738C165.75 691.738 165.296 691.861 164.897 692.107C164.499 692.354 164.183 692.72 163.948 693.206C163.714 693.692 163.597 694.29 163.597 694.999V695.605C163.597 696.279 163.711 696.854 163.939 697.328C164.168 697.803 164.49 698.169 164.906 698.427C165.328 698.679 165.826 698.805 166.4 698.805C166.828 698.805 167.2 698.746 167.517 698.629C167.833 698.512 168.094 698.362 168.299 698.181C168.504 697.999 168.647 697.812 168.729 697.618L168.765 697.539H170.294L170.276 697.609C170.194 697.938 170.048 698.254 169.837 698.559C169.632 698.857 169.362 699.13 169.028 699.376C168.7 699.616 168.313 699.81 167.868 699.956C167.423 700.097 166.922 700.167 166.365 700.167ZM172.755 700V690.543H174.284V691.958H174.416C174.656 691.46 175.002 691.073 175.453 690.798C175.91 690.517 176.487 690.376 177.185 690.376C178.245 690.376 179.06 690.681 179.628 691.29C180.202 691.894 180.489 692.755 180.489 693.874V700H178.96V694.243C178.96 693.388 178.778 692.755 178.415 692.345C178.058 691.935 177.501 691.729 176.745 691.729C176.247 691.729 175.813 691.838 175.444 692.055C175.075 692.271 174.788 692.579 174.583 692.978C174.384 693.37 174.284 693.845 174.284 694.401V700H172.755ZM183.249 700V690.543H184.778V700H183.249ZM184.022 688.724C183.735 688.724 183.489 688.621 183.284 688.416C183.079 688.205 182.977 687.959 182.977 687.678C182.977 687.385 183.079 687.136 183.284 686.931C183.489 686.726 183.735 686.623 184.022 686.623C184.315 686.623 184.564 686.726 184.77 686.931C184.975 687.136 185.077 687.385 185.077 687.678C185.077 687.959 184.975 688.205 184.77 688.416C184.564 688.621 184.315 688.724 184.022 688.724ZM191.484 700.167C190.582 700.167 189.809 699.968 189.164 699.569C188.52 699.171 188.021 698.608 187.67 697.882C187.324 697.155 187.151 696.297 187.151 695.307V695.298C187.151 694.319 187.324 693.461 187.67 692.723C188.021 691.984 188.514 691.41 189.146 691C189.785 690.584 190.532 690.376 191.388 690.376C192.249 690.376 192.987 690.575 193.603 690.974C194.224 691.366 194.698 691.92 195.026 692.635C195.36 693.344 195.527 694.17 195.527 695.113V695.711H187.942V694.489H194.745L193.989 695.605V694.999C193.989 694.255 193.878 693.643 193.655 693.162C193.433 692.682 193.125 692.324 192.732 692.09C192.34 691.855 191.889 691.738 191.379 691.738C190.869 691.738 190.415 691.861 190.017 692.107C189.618 692.354 189.302 692.72 189.067 693.206C188.833 693.692 188.716 694.29 188.716 694.999V695.605C188.716 696.279 188.83 696.854 189.059 697.328C189.287 697.803 189.609 698.169 190.025 698.427C190.447 698.679 190.945 698.805 191.52 698.805C191.947 698.805 192.319 698.746 192.636 698.629C192.952 698.512 193.213 698.362 193.418 698.181C193.623 697.999 193.767 697.812 193.849 697.618L193.884 697.539H195.413L195.396 697.609C195.313 697.938 195.167 698.254 194.956 698.559C194.751 698.857 194.481 699.13 194.147 699.376C193.819 699.616 193.433 699.81 192.987 699.956C192.542 700.097 192.041 700.167 191.484 700.167ZM197.874 700V690.543H199.403V691.958H199.535C199.775 691.46 200.121 691.073 200.572 690.798C201.029 690.517 201.606 690.376 202.304 690.376C203.364 690.376 204.179 690.681 204.747 691.29C205.321 691.894 205.608 692.755 205.608 693.874V700H204.079V694.243C204.079 693.388 203.897 692.755 203.534 692.345C203.177 691.935 202.62 691.729 201.864 691.729C201.366 691.729 200.933 691.838 200.563 692.055C200.194 692.271 199.907 692.579 199.702 692.978C199.503 693.37 199.403 693.845 199.403 694.401V700H197.874ZM212.2 700.167C211.321 700.167 210.557 699.965 209.906 699.561C209.256 699.156 208.752 698.588 208.395 697.855C208.037 697.117 207.858 696.247 207.858 695.245V695.228C207.858 694.243 208.034 693.388 208.386 692.661C208.743 691.935 209.247 691.372 209.897 690.974C210.548 690.575 211.312 690.376 212.191 690.376C212.959 690.376 213.621 690.511 214.178 690.78C214.734 691.05 215.18 691.413 215.514 691.87C215.848 692.321 216.062 692.828 216.155 693.391L216.164 693.443H214.644L214.635 693.417C214.518 692.948 214.251 692.55 213.835 692.222C213.419 691.894 212.871 691.729 212.191 691.729C211.629 691.729 211.14 691.873 210.724 692.16C210.308 692.447 209.985 692.852 209.757 693.373C209.534 693.895 209.423 694.513 209.423 695.228V695.245C209.423 695.972 209.537 696.602 209.766 697.135C209.994 697.668 210.316 698.081 210.732 698.374C211.148 698.667 211.635 698.813 212.191 698.813C212.83 698.813 213.352 698.676 213.756 698.4C214.16 698.119 214.45 697.718 214.626 697.196L214.644 697.135L216.155 697.126L216.138 697.223C216.009 697.791 215.78 698.298 215.452 698.743C215.124 699.188 214.69 699.537 214.151 699.789C213.612 700.041 212.962 700.167 212.2 700.167ZM222.229 700.167C221.326 700.167 220.553 699.968 219.908 699.569C219.264 699.171 218.766 698.608 218.414 697.882C218.068 697.155 217.896 696.297 217.896 695.307V695.298C217.896 694.319 218.068 693.461 218.414 692.723C218.766 691.984 219.258 691.41 219.891 691C220.529 690.584 221.276 690.376 222.132 690.376C222.993 690.376 223.731 690.575 224.347 690.974C224.968 691.366 225.442 691.92 225.771 692.635C226.104 693.344 226.271 694.17 226.271 695.113V695.711H218.687V694.489H225.489L224.733 695.605V694.999C224.733 694.255 224.622 693.643 224.399 693.162C224.177 692.682 223.869 692.324 223.477 692.09C223.084 691.855 222.633 691.738 222.123 691.738C221.613 691.738 221.159 691.861 220.761 692.107C220.362 692.354 220.046 692.72 219.812 693.206C219.577 693.692 219.46 694.29 219.46 694.999V695.605C219.46 696.279 219.574 696.854 219.803 697.328C220.031 697.803 220.354 698.169 220.77 698.427C221.191 698.679 221.689 698.805 222.264 698.805C222.691 698.805 223.063 698.746 223.38 698.629C223.696 698.512 223.957 698.362 224.162 698.181C224.367 697.999 224.511 697.812 224.593 697.618L224.628 697.539H226.157L226.14 697.609C226.058 697.938 225.911 698.254 225.7 698.559C225.495 698.857 225.226 699.13 224.892 699.376C224.563 699.616 224.177 699.81 223.731 699.956C223.286 700.097 222.785 700.167 222.229 700.167ZM229.849 700.088C229.538 700.088 229.271 699.977 229.049 699.754C228.826 699.531 228.715 699.265 228.715 698.954C228.715 698.638 228.826 698.371 229.049 698.154C229.271 697.932 229.538 697.82 229.849 697.82C230.165 697.82 230.432 697.932 230.648 698.154C230.871 698.371 230.982 698.638 230.982 698.954C230.982 699.265 230.871 699.531 230.648 699.754C230.432 699.977 230.165 700.088 229.849 700.088Z" fill="#2C6A72" fill-opacity="0.4"/>
<line x1="319.5" y1="-2.18557e-08" x2="319.5" y2="1081" stroke="#2C6A72" stroke-opacity="0.1"/>
</svg>
