<svg width="320" height="1081" viewBox="0 0 320 1081" fill="none" xmlns="http://www.w3.org/2000/svg">
<rect width="319" height="1081" fill="#E2FFFB"/>
<rect width="319" height="1081" fill="#E2FFFB"/>
<path d="M161.406 416V411.656H150.156V408.234C150.781 407.255 151.406 406.271 152.031 405.281C152.656 404.292 153.281 403.307 153.906 402.328C154.531 401.339 155.151 400.354 155.766 399.375C156.391 398.385 157.016 397.401 157.641 396.422C158.266 395.432 158.891 394.443 159.516 393.453H165.25V408.375H168.297V411.656H165.25V416H161.406ZM153.781 408.453H161.469V396.5H161.375C160.865 397.292 160.354 398.083 159.844 398.875C159.344 399.656 158.839 400.443 158.328 401.234C157.828 402.026 157.323 402.818 156.812 403.609C156.302 404.401 155.792 405.193 155.281 405.984C154.781 406.766 154.281 407.552 153.781 408.344V408.453Z" fill="#2C6A72" fill-opacity="0.4"/>
<path d="M105.906 514V494.844H99.1562V491.453H116.656V494.844H109.922V514H105.906ZM116.375 514V497.438H120.25V500.297H120.344C120.594 499.297 121.047 498.516 121.703 497.953C122.37 497.38 123.182 497.094 124.141 497.094C124.38 497.094 124.609 497.109 124.828 497.141C125.047 497.172 125.229 497.208 125.375 497.25V500.766C125.219 500.703 124.995 500.651 124.703 500.609C124.422 500.568 124.115 500.547 123.781 500.547C123.052 500.547 122.422 500.698 121.891 501C121.359 501.292 120.953 501.724 120.672 502.297C120.391 502.87 120.25 503.568 120.25 504.391V514H116.375ZM131.891 514.281C130.797 514.281 129.828 514.073 128.984 513.656C128.151 513.229 127.5 512.641 127.031 511.891C126.573 511.13 126.344 510.26 126.344 509.281V509.25C126.344 507.781 126.891 506.62 127.984 505.766C129.089 504.901 130.641 504.411 132.641 504.297L138.969 503.906V506.484L133.188 506.844C132.229 506.906 131.495 507.135 130.984 507.531C130.474 507.927 130.219 508.453 130.219 509.109V509.125C130.219 509.802 130.474 510.339 130.984 510.734C131.505 511.12 132.193 511.312 133.047 511.312C133.797 511.312 134.464 511.161 135.047 510.859C135.641 510.557 136.109 510.146 136.453 509.625C136.797 509.104 136.969 508.516 136.969 507.859V502.891C136.969 502.057 136.703 501.401 136.172 500.922C135.651 500.432 134.896 500.188 133.906 500.188C132.99 500.188 132.255 500.385 131.703 500.781C131.151 501.167 130.807 501.667 130.672 502.281L130.641 502.422H127.047L127.062 502.234C127.146 501.255 127.474 500.38 128.047 499.609C128.62 498.828 129.411 498.214 130.422 497.766C131.443 497.318 132.651 497.094 134.047 497.094C135.432 497.094 136.63 497.323 137.641 497.781C138.661 498.24 139.448 498.88 140 499.703C140.562 500.526 140.844 501.495 140.844 502.609V514H136.969V511.453H136.875C136.562 512.026 136.156 512.526 135.656 512.953C135.156 513.38 134.583 513.708 133.938 513.938C133.302 514.167 132.62 514.281 131.891 514.281ZM151.312 514.328C149.677 514.328 148.26 513.979 147.062 513.281C145.865 512.583 144.938 511.589 144.281 510.297C143.635 509.005 143.312 507.474 143.312 505.703V505.688C143.312 503.927 143.641 502.406 144.297 501.125C144.953 499.833 145.875 498.839 147.062 498.141C148.26 497.443 149.661 497.094 151.266 497.094C152.724 497.094 153.984 497.375 155.047 497.938C156.109 498.49 156.943 499.224 157.547 500.141C158.151 501.057 158.495 502.068 158.578 503.172V503.281H154.922L154.891 503.156C154.734 502.354 154.354 501.672 153.75 501.109C153.156 500.536 152.344 500.25 151.312 500.25C150.5 500.25 149.786 500.474 149.172 500.922C148.568 501.359 148.099 501.984 147.766 502.797C147.432 503.609 147.266 504.583 147.266 505.719V505.734C147.266 506.88 147.432 507.859 147.766 508.672C148.109 509.484 148.583 510.109 149.188 510.547C149.802 510.974 150.516 511.188 151.328 511.188C152.318 511.188 153.115 510.922 153.719 510.391C154.333 509.849 154.729 509.146 154.906 508.281L154.938 508.141H158.609L158.594 508.25C158.49 509.396 158.125 510.427 157.5 511.344C156.875 512.26 156.036 512.99 154.984 513.531C153.932 514.062 152.708 514.328 151.312 514.328ZM161.109 514V491.453H164.984V514H161.109ZM171.547 514L166 506.469L168.484 503.594L176.031 514H171.547ZM164.422 508.844V504.312H165.078L171.266 497.438H175.75L168.031 505.828H167.312L164.422 508.844ZM177.641 514V497.438H181.531V514H177.641ZM179.578 495.062C178.974 495.062 178.464 494.854 178.047 494.438C177.63 494.021 177.422 493.521 177.422 492.938C177.422 492.344 177.63 491.844 178.047 491.438C178.464 491.021 178.974 490.812 179.578 490.812C180.193 490.812 180.708 491.021 181.125 491.438C181.542 491.844 181.75 492.344 181.75 492.938C181.75 493.521 181.542 494.021 181.125 494.438C180.708 494.854 180.193 495.062 179.578 495.062ZM184.844 514V497.438H188.719V500.031H188.812C189.24 499.135 189.875 498.422 190.719 497.891C191.573 497.359 192.625 497.094 193.875 497.094C195.698 497.094 197.104 497.646 198.094 498.75C199.094 499.854 199.594 501.365 199.594 503.281V514H195.703V504.062C195.703 502.885 195.427 501.979 194.875 501.344C194.323 500.698 193.495 500.375 192.391 500.375C191.651 500.375 191.005 500.547 190.453 500.891C189.901 501.224 189.474 501.693 189.172 502.297C188.87 502.891 188.719 503.589 188.719 504.391V514H184.844ZM210.188 519.797C208.729 519.797 207.453 519.594 206.359 519.188C205.276 518.792 204.411 518.245 203.766 517.547C203.12 516.849 202.719 516.068 202.562 515.203L202.531 515.062H206.344L206.406 515.188C206.615 515.667 207.042 516.062 207.688 516.375C208.344 516.698 209.172 516.859 210.172 516.859C211.443 516.859 212.417 516.547 213.094 515.922C213.771 515.297 214.109 514.458 214.109 513.406V511.016H214.031C213.729 511.609 213.323 512.12 212.812 512.547C212.312 512.974 211.724 513.307 211.047 513.547C210.38 513.786 209.651 513.906 208.859 513.906C207.474 513.906 206.266 513.568 205.234 512.891C204.214 512.214 203.422 511.255 202.859 510.016C202.307 508.766 202.031 507.281 202.031 505.562V505.547C202.031 503.797 202.312 502.297 202.875 501.047C203.448 499.786 204.25 498.812 205.281 498.125C206.312 497.438 207.526 497.094 208.922 497.094C209.703 497.094 210.422 497.229 211.078 497.5C211.734 497.76 212.307 498.125 212.797 498.594C213.297 499.062 213.703 499.615 214.016 500.25H214.109V497.438H218V513.531C218 514.781 217.682 515.875 217.047 516.812C216.411 517.76 215.51 518.495 214.344 519.016C213.177 519.536 211.792 519.797 210.188 519.797ZM210.078 510.906C210.891 510.906 211.599 510.693 212.203 510.266C212.807 509.828 213.276 509.214 213.609 508.422C213.953 507.63 214.125 506.703 214.125 505.641V505.625C214.125 504.552 213.953 503.625 213.609 502.844C213.266 502.052 212.792 501.443 212.188 501.016C211.583 500.589 210.88 500.375 210.078 500.375C209.245 500.375 208.521 500.589 207.906 501.016C207.292 501.443 206.818 502.047 206.484 502.828C206.151 503.609 205.984 504.542 205.984 505.625V505.641C205.984 506.724 206.151 507.661 206.484 508.453C206.818 509.234 207.292 509.839 207.906 510.266C208.521 510.693 209.245 510.906 210.078 510.906Z" fill="#2C6A72"/>
<path d="M81.4277 599.299C80.2148 599.299 79.1748 599.029 78.3076 598.49C77.4404 597.945 76.7725 597.175 76.3037 596.179C75.8408 595.183 75.6094 594.011 75.6094 592.663V592.646C75.6094 591.286 75.8438 590.111 76.3125 589.121C76.7871 588.131 77.458 587.366 78.3252 586.827C79.1982 586.288 80.2324 586.019 81.4277 586.019C82.6289 586.019 83.6631 586.288 84.5303 586.827C85.4033 587.366 86.0742 588.134 86.543 589.13C87.0117 590.12 87.2461 591.292 87.2461 592.646V592.663C87.2461 594.011 87.0117 595.183 86.543 596.179C86.0801 597.169 85.4121 597.937 84.5391 598.481C83.6719 599.026 82.6348 599.299 81.4277 599.299ZM81.4277 597.84C82.2949 597.84 83.042 597.626 83.6689 597.198C84.2959 596.771 84.7793 596.17 85.1191 595.396C85.459 594.617 85.6289 593.706 85.6289 592.663V592.646C85.6289 591.591 85.459 590.677 85.1191 589.903C84.7793 589.13 84.2959 588.532 83.6689 588.11C83.042 587.688 82.2949 587.478 81.4277 587.478C80.5664 587.478 79.8223 587.688 79.1953 588.11C78.5684 588.532 78.082 589.13 77.7363 589.903C77.3965 590.677 77.2266 591.591 77.2266 592.646V592.663C77.2266 593.706 77.3936 594.617 77.7275 595.396C78.0615 596.17 78.542 596.771 79.1689 597.198C79.7959 597.626 80.5488 597.84 81.4277 597.84ZM92.9326 599.167C92.2178 599.167 91.6172 599.032 91.1309 598.763C90.6445 598.487 90.2783 598.089 90.0322 597.567C89.792 597.04 89.6719 596.407 89.6719 595.669V589.543H91.2012V595.3C91.2012 596.144 91.3652 596.773 91.6934 597.189C92.0273 597.605 92.5723 597.813 93.3281 597.813C93.8789 597.813 94.3447 597.705 94.7256 597.488C95.1064 597.271 95.3936 596.964 95.5869 596.565C95.7803 596.161 95.877 595.687 95.877 595.142V589.543H97.4062V599H95.877V597.594H95.7451C95.5049 598.092 95.1504 598.479 94.6816 598.754C94.2129 599.029 93.6299 599.167 92.9326 599.167ZM100.219 599V589.543H101.748V590.949H101.88C102.062 590.451 102.366 590.064 102.794 589.789C103.228 589.514 103.761 589.376 104.394 589.376C104.54 589.376 104.684 589.385 104.824 589.402C104.971 589.414 105.079 589.426 105.149 589.438V590.923C104.997 590.894 104.845 590.873 104.692 590.861C104.546 590.844 104.388 590.835 104.218 590.835C103.737 590.835 103.31 590.932 102.935 591.125C102.565 591.312 102.275 591.579 102.064 591.925C101.854 592.271 101.748 592.675 101.748 593.138V599H100.219ZM113.016 594.474V593.067H116.593C117.501 593.067 118.204 592.833 118.702 592.364C119.2 591.89 119.449 591.236 119.449 590.404V590.387C119.449 589.549 119.2 588.896 118.702 588.427C118.204 587.958 117.501 587.724 116.593 587.724H113.016V586.317H116.997C117.794 586.317 118.497 586.487 119.106 586.827C119.716 587.167 120.193 587.642 120.539 588.251C120.891 588.86 121.066 589.566 121.066 590.369V590.387C121.066 591.189 120.891 591.898 120.539 592.514C120.193 593.129 119.716 593.609 119.106 593.955C118.497 594.301 117.794 594.474 116.997 594.474H113.016ZM112.225 599V586.317H113.807V599H112.225ZM127.017 599.167C126.114 599.167 125.341 598.968 124.696 598.569C124.052 598.171 123.554 597.608 123.202 596.882C122.856 596.155 122.684 595.297 122.684 594.307V594.298C122.684 593.319 122.856 592.461 123.202 591.723C123.554 590.984 124.046 590.41 124.679 590C125.317 589.584 126.064 589.376 126.92 589.376C127.781 589.376 128.52 589.575 129.135 589.974C129.756 590.366 130.23 590.92 130.559 591.635C130.893 592.344 131.06 593.17 131.06 594.113V594.711H123.475V593.489H130.277L129.521 594.605V593.999C129.521 593.255 129.41 592.643 129.188 592.162C128.965 591.682 128.657 591.324 128.265 591.09C127.872 590.855 127.421 590.738 126.911 590.738C126.401 590.738 125.947 590.861 125.549 591.107C125.15 591.354 124.834 591.72 124.6 592.206C124.365 592.692 124.248 593.29 124.248 593.999V594.605C124.248 595.279 124.362 595.854 124.591 596.328C124.819 596.803 125.142 597.169 125.558 597.427C125.979 597.679 126.478 597.805 127.052 597.805C127.479 597.805 127.852 597.746 128.168 597.629C128.484 597.512 128.745 597.362 128.95 597.181C129.155 596.999 129.299 596.812 129.381 596.618L129.416 596.539H130.945L130.928 596.609C130.846 596.938 130.699 597.254 130.488 597.559C130.283 597.857 130.014 598.13 129.68 598.376C129.352 598.616 128.965 598.81 128.52 598.956C128.074 599.097 127.573 599.167 127.017 599.167ZM133.406 599V589.543H134.936V590.949H135.067C135.249 590.451 135.554 590.064 135.981 589.789C136.415 589.514 136.948 589.376 137.581 589.376C137.728 589.376 137.871 589.385 138.012 589.402C138.158 589.414 138.267 589.426 138.337 589.438V590.923C138.185 590.894 138.032 590.873 137.88 590.861C137.733 590.844 137.575 590.835 137.405 590.835C136.925 590.835 136.497 590.932 136.122 591.125C135.753 591.312 135.463 591.579 135.252 591.925C135.041 592.271 134.936 592.675 134.936 593.138V599H133.406ZM143.285 599.167C142.582 599.167 141.961 599.062 141.422 598.851C140.883 598.634 140.449 598.332 140.121 597.945C139.799 597.553 139.608 597.096 139.55 596.574H141.114C141.243 596.973 141.492 597.292 141.861 597.532C142.236 597.772 142.729 597.893 143.338 597.893C143.76 597.893 144.132 597.831 144.454 597.708C144.782 597.579 145.037 597.406 145.219 597.189C145.406 596.973 145.5 596.721 145.5 596.434V596.416C145.5 596.094 145.371 595.821 145.113 595.599C144.861 595.37 144.445 595.186 143.865 595.045L142.397 594.693C141.513 594.482 140.862 594.175 140.446 593.771C140.03 593.36 139.822 592.815 139.822 592.136V592.127C139.822 591.6 139.975 591.128 140.279 590.712C140.59 590.296 141.009 589.971 141.536 589.736C142.069 589.496 142.67 589.376 143.338 589.376C144 589.376 144.586 589.481 145.096 589.692C145.611 589.897 146.024 590.193 146.335 590.58C146.651 590.961 146.842 591.406 146.906 591.916V591.925H145.412H145.403C145.31 591.544 145.084 591.236 144.727 591.002C144.369 590.768 143.903 590.65 143.329 590.65C142.954 590.65 142.62 590.712 142.327 590.835C142.04 590.952 141.812 591.116 141.642 591.327C141.472 591.532 141.387 591.775 141.387 592.057V592.074C141.387 592.396 141.513 592.663 141.765 592.874C142.017 593.085 142.418 593.258 142.969 593.393L144.428 593.744C145.318 593.961 145.98 594.271 146.414 594.676C146.848 595.08 147.064 595.622 147.064 596.302V596.319C147.064 596.876 146.897 597.371 146.563 597.805C146.235 598.232 145.784 598.566 145.21 598.807C144.642 599.047 144 599.167 143.285 599.167ZM153.305 599.167C152.414 599.167 151.641 598.971 150.984 598.578C150.334 598.18 149.83 597.614 149.473 596.882C149.121 596.149 148.945 595.282 148.945 594.28V594.263C148.945 593.249 149.121 592.379 149.473 591.652C149.83 590.92 150.334 590.357 150.984 589.965C151.641 589.572 152.414 589.376 153.305 589.376C154.207 589.376 154.983 589.572 155.634 589.965C156.284 590.357 156.785 590.92 157.137 591.652C157.494 592.379 157.673 593.249 157.673 594.263V594.28C157.673 595.288 157.494 596.158 157.137 596.891C156.785 597.617 156.284 598.18 155.634 598.578C154.983 598.971 154.207 599.167 153.305 599.167ZM153.305 597.813C153.902 597.813 154.409 597.673 154.825 597.392C155.241 597.11 155.558 596.709 155.774 596.188C155.997 595.66 156.108 595.024 156.108 594.28V594.263C156.108 593.513 155.997 592.874 155.774 592.347C155.558 591.819 155.241 591.418 154.825 591.143C154.409 590.867 153.902 590.729 153.305 590.729C152.713 590.729 152.209 590.867 151.793 591.143C151.377 591.418 151.058 591.819 150.835 592.347C150.618 592.874 150.51 593.513 150.51 594.263V594.28C150.51 595.024 150.618 595.66 150.835 596.188C151.058 596.709 151.377 597.11 151.793 597.392C152.209 597.673 152.713 597.813 153.305 597.813ZM160.002 599V589.543H161.531V590.958H161.663C161.903 590.46 162.249 590.073 162.7 589.798C163.157 589.517 163.734 589.376 164.432 589.376C165.492 589.376 166.307 589.681 166.875 590.29C167.449 590.894 167.736 591.755 167.736 592.874V599H166.207V593.243C166.207 592.388 166.025 591.755 165.662 591.345C165.305 590.935 164.748 590.729 163.992 590.729C163.494 590.729 163.061 590.838 162.691 591.055C162.322 591.271 162.035 591.579 161.83 591.978C161.631 592.37 161.531 592.845 161.531 593.401V599H160.002ZM173.062 599.167C172.465 599.167 171.926 599.053 171.445 598.824C170.971 598.596 170.596 598.271 170.32 597.849C170.045 597.427 169.907 596.929 169.907 596.354V596.337C169.907 595.499 170.206 594.843 170.804 594.368C171.401 593.888 172.251 593.615 173.353 593.551L176.833 593.34V594.562L173.537 594.772C172.822 594.813 172.298 594.963 171.964 595.221C171.636 595.479 171.472 595.839 171.472 596.302V596.319C171.472 596.8 171.65 597.175 172.008 597.444C172.371 597.708 172.828 597.84 173.379 597.84C173.9 597.84 174.363 597.737 174.768 597.532C175.172 597.321 175.488 597.037 175.717 596.68C175.951 596.322 176.068 595.918 176.068 595.467V592.531C176.068 591.945 175.89 591.5 175.532 591.195C175.181 590.885 174.65 590.729 173.941 590.729C173.373 590.729 172.907 590.832 172.544 591.037C172.181 591.236 171.938 591.523 171.814 591.898L171.806 591.925H170.285L170.294 591.872C170.37 591.374 170.572 590.938 170.9 590.562C171.234 590.188 171.665 589.897 172.192 589.692C172.72 589.481 173.32 589.376 173.994 589.376C174.768 589.376 175.421 589.502 175.954 589.754C176.487 590.006 176.895 590.366 177.176 590.835C177.457 591.304 177.598 591.866 177.598 592.522V599H176.068V597.603H175.928C175.729 597.937 175.485 598.221 175.198 598.455C174.917 598.689 174.598 598.868 174.24 598.991C173.883 599.108 173.49 599.167 173.062 599.167ZM180.445 599V585.79H181.975V599H180.445ZM190.078 599V586.317H191.66V591.802H198.621V586.317H200.203V599H198.621V593.226H191.66V599H190.078ZM207.067 599.167C206.165 599.167 205.392 598.968 204.747 598.569C204.103 598.171 203.604 597.608 203.253 596.882C202.907 596.155 202.734 595.297 202.734 594.307V594.298C202.734 593.319 202.907 592.461 203.253 591.723C203.604 590.984 204.097 590.41 204.729 590C205.368 589.584 206.115 589.376 206.971 589.376C207.832 589.376 208.57 589.575 209.186 589.974C209.807 590.366 210.281 590.92 210.609 591.635C210.943 592.344 211.11 593.17 211.11 594.113V594.711H203.525V593.489H210.328L209.572 594.605V593.999C209.572 593.255 209.461 592.643 209.238 592.162C209.016 591.682 208.708 591.324 208.315 591.09C207.923 590.855 207.472 590.738 206.962 590.738C206.452 590.738 205.998 590.861 205.6 591.107C205.201 591.354 204.885 591.72 204.65 592.206C204.416 592.692 204.299 593.29 204.299 593.999V594.605C204.299 595.279 204.413 595.854 204.642 596.328C204.87 596.803 205.192 597.169 205.608 597.427C206.03 597.679 206.528 597.805 207.103 597.805C207.53 597.805 207.902 597.746 208.219 597.629C208.535 597.512 208.796 597.362 209.001 597.181C209.206 596.999 209.35 596.812 209.432 596.618L209.467 596.539H210.996L210.979 596.609C210.896 596.938 210.75 597.254 210.539 597.559C210.334 597.857 210.064 598.13 209.73 598.376C209.402 598.616 209.016 598.81 208.57 598.956C208.125 599.097 207.624 599.167 207.067 599.167ZM216.059 599.167C215.461 599.167 214.922 599.053 214.441 598.824C213.967 598.596 213.592 598.271 213.316 597.849C213.041 597.427 212.903 596.929 212.903 596.354V596.337C212.903 595.499 213.202 594.843 213.8 594.368C214.397 593.888 215.247 593.615 216.349 593.551L219.829 593.34V594.562L216.533 594.772C215.818 594.813 215.294 594.963 214.96 595.221C214.632 595.479 214.468 595.839 214.468 596.302V596.319C214.468 596.8 214.646 597.175 215.004 597.444C215.367 597.708 215.824 597.84 216.375 597.84C216.896 597.84 217.359 597.737 217.764 597.532C218.168 597.321 218.484 597.037 218.713 596.68C218.947 596.322 219.064 595.918 219.064 595.467V592.531C219.064 591.945 218.886 591.5 218.528 591.195C218.177 590.885 217.646 590.729 216.938 590.729C216.369 590.729 215.903 590.832 215.54 591.037C215.177 591.236 214.934 591.523 214.811 591.898L214.802 591.925H213.281L213.29 591.872C213.366 591.374 213.568 590.938 213.896 590.562C214.23 590.188 214.661 589.897 215.188 589.692C215.716 589.481 216.316 589.376 216.99 589.376C217.764 589.376 218.417 589.502 218.95 589.754C219.483 590.006 219.891 590.366 220.172 590.835C220.453 591.304 220.594 591.866 220.594 592.522V599H219.064V597.603H218.924C218.725 597.937 218.481 598.221 218.194 598.455C217.913 598.689 217.594 598.868 217.236 598.991C216.879 599.108 216.486 599.167 216.059 599.167ZM223.441 599V585.79H224.971V599H223.441ZM231.22 599.079C230.253 599.079 229.55 598.883 229.11 598.49C228.677 598.092 228.46 597.444 228.46 596.548V590.809H226.975V589.543H228.46V587.091H230.042V589.543H232.099V590.809H230.042V596.179C230.042 596.729 230.147 597.125 230.358 597.365C230.569 597.605 230.918 597.726 231.404 597.726C231.539 597.726 231.653 597.723 231.747 597.717C231.847 597.711 231.964 597.702 232.099 597.69V598.991C231.958 599.015 231.814 599.035 231.668 599.053C231.521 599.07 231.372 599.079 231.22 599.079ZM234.445 599V585.79H235.975V590.967H236.106C236.347 590.463 236.692 590.073 237.144 589.798C237.601 589.517 238.178 589.376 238.875 589.376C239.578 589.376 240.176 589.514 240.668 589.789C241.16 590.059 241.535 590.457 241.793 590.984C242.051 591.506 242.18 592.142 242.18 592.892V599H240.65V593.252C240.65 592.396 240.469 591.764 240.105 591.354C239.748 590.938 239.191 590.729 238.436 590.729C237.932 590.729 237.495 590.838 237.126 591.055C236.763 591.271 236.479 591.579 236.273 591.978C236.074 592.376 235.975 592.851 235.975 593.401V599H234.445ZM64.2715 620V608.741H60.1846V607.317H69.9316V608.741H65.8535V620H64.2715ZM70.8018 620V610.543H72.3311V611.949H72.4629C72.6445 611.451 72.9492 611.064 73.377 610.789C73.8105 610.514 74.3438 610.376 74.9766 610.376C75.123 610.376 75.2666 610.385 75.4072 610.402C75.5537 610.414 75.6621 610.426 75.7324 610.438V611.923C75.5801 611.894 75.4277 611.873 75.2754 611.861C75.1289 611.844 74.9707 611.835 74.8008 611.835C74.3203 611.835 73.8926 611.932 73.5176 612.125C73.1484 612.312 72.8584 612.579 72.6475 612.925C72.4365 613.271 72.3311 613.675 72.3311 614.138V620H70.8018ZM80.2061 620.167C79.6084 620.167 79.0693 620.053 78.5889 619.824C78.1143 619.596 77.7393 619.271 77.4639 618.849C77.1885 618.427 77.0508 617.929 77.0508 617.354V617.337C77.0508 616.499 77.3496 615.843 77.9473 615.368C78.5449 614.888 79.3945 614.615 80.4961 614.551L83.9766 614.34V615.562L80.6807 615.772C79.9658 615.813 79.4414 615.963 79.1074 616.221C78.7793 616.479 78.6152 616.839 78.6152 617.302V617.319C78.6152 617.8 78.7939 618.175 79.1514 618.444C79.5146 618.708 79.9717 618.84 80.5225 618.84C81.0439 618.84 81.5068 618.737 81.9111 618.532C82.3154 618.321 82.6318 618.037 82.8604 617.68C83.0947 617.322 83.2119 616.918 83.2119 616.467V613.531C83.2119 612.945 83.0332 612.5 82.6758 612.195C82.3242 611.885 81.7939 611.729 81.085 611.729C80.5166 611.729 80.0508 611.832 79.6875 612.037C79.3242 612.236 79.0811 612.523 78.958 612.898L78.9492 612.925H77.4287L77.4375 612.872C77.5137 612.374 77.7158 611.938 78.0439 611.562C78.3779 611.188 78.8086 610.897 79.3359 610.692C79.8633 610.481 80.4639 610.376 81.1377 610.376C81.9111 610.376 82.5645 610.502 83.0977 610.754C83.6309 611.006 84.0381 611.366 84.3193 611.835C84.6006 612.304 84.7412 612.866 84.7412 613.522V620H83.2119V618.603H83.0713C82.8721 618.937 82.6289 619.221 82.3418 619.455C82.0605 619.689 81.7412 619.868 81.3838 619.991C81.0264 620.108 80.6338 620.167 80.2061 620.167ZM91.3682 620.167C90.4893 620.167 89.7246 619.965 89.0742 619.561C88.4238 619.156 87.9199 618.588 87.5625 617.855C87.2051 617.117 87.0264 616.247 87.0264 615.245V615.228C87.0264 614.243 87.2021 613.388 87.5537 612.661C87.9111 611.935 88.415 611.372 89.0654 610.974C89.7158 610.575 90.4805 610.376 91.3594 610.376C92.127 610.376 92.7891 610.511 93.3457 610.78C93.9023 611.05 94.3477 611.413 94.6816 611.87C95.0156 612.321 95.2295 612.828 95.3232 613.391L95.332 613.443H93.8115L93.8027 613.417C93.6855 612.948 93.4189 612.55 93.0029 612.222C92.5869 611.894 92.0391 611.729 91.3594 611.729C90.7969 611.729 90.3076 611.873 89.8916 612.16C89.4756 612.447 89.1533 612.852 88.9248 613.373C88.7021 613.895 88.5908 614.513 88.5908 615.228V615.245C88.5908 615.972 88.7051 616.602 88.9336 617.135C89.1621 617.668 89.4844 618.081 89.9004 618.374C90.3164 618.667 90.8027 618.813 91.3594 618.813C91.998 618.813 92.5195 618.676 92.9238 618.4C93.3281 618.119 93.6182 617.718 93.7939 617.196L93.8115 617.135L95.3232 617.126L95.3057 617.223C95.1768 617.791 94.9482 618.298 94.6201 618.743C94.292 619.188 93.8584 619.537 93.3193 619.789C92.7803 620.041 92.1299 620.167 91.3682 620.167ZM97.626 620V606.79H99.1553V620H97.626ZM103.585 620L99.8936 615.368L101.019 614.393L105.501 620H103.585ZM98.9531 616.599L98.8916 614.674H99.2871L103.383 610.543H105.237L100.746 614.885L100.386 615.228L98.9531 616.599ZM107.312 620V610.543H108.841V620H107.312ZM108.085 608.724C107.798 608.724 107.552 608.621 107.347 608.416C107.142 608.205 107.039 607.959 107.039 607.678C107.039 607.385 107.142 607.136 107.347 606.931C107.552 606.726 107.798 606.623 108.085 606.623C108.378 606.623 108.627 606.726 108.832 606.931C109.037 607.136 109.14 607.385 109.14 607.678C109.14 607.959 109.037 608.205 108.832 608.416C108.627 608.621 108.378 608.724 108.085 608.724ZM111.688 620V610.543H113.218V611.958H113.35C113.59 611.46 113.936 611.073 114.387 610.798C114.844 610.517 115.421 610.376 116.118 610.376C117.179 610.376 117.993 610.681 118.562 611.29C119.136 611.894 119.423 612.755 119.423 613.874V620H117.894V614.243C117.894 613.388 117.712 612.755 117.349 612.345C116.991 611.935 116.435 611.729 115.679 611.729C115.181 611.729 114.747 611.838 114.378 612.055C114.009 612.271 113.722 612.579 113.517 612.978C113.317 613.37 113.218 613.845 113.218 614.401V620H111.688ZM126.05 623.34C125.288 623.34 124.623 623.231 124.055 623.015C123.486 622.804 123.032 622.502 122.692 622.109C122.358 621.723 122.15 621.271 122.068 620.756L122.077 620.747H123.659L123.668 620.756C123.756 621.113 124.005 621.406 124.415 621.635C124.825 621.869 125.37 621.986 126.05 621.986C126.894 621.986 127.553 621.793 128.027 621.406C128.508 621.02 128.748 620.478 128.748 619.78V617.899H128.607C128.408 618.245 128.159 618.541 127.86 618.787C127.562 619.033 127.225 619.221 126.85 619.35C126.475 619.473 126.07 619.534 125.637 619.534C124.828 619.534 124.125 619.341 123.527 618.954C122.936 618.562 122.479 618.022 122.156 617.337C121.834 616.651 121.673 615.863 121.673 614.973V614.955C121.673 614.07 121.834 613.285 122.156 612.6C122.484 611.908 122.947 611.366 123.545 610.974C124.143 610.575 124.852 610.376 125.672 610.376C126.117 610.376 126.527 610.446 126.902 610.587C127.277 610.728 127.608 610.927 127.896 611.185C128.188 611.442 128.432 611.75 128.625 612.107H128.73V610.543H130.26V619.859C130.26 620.562 130.087 621.175 129.741 621.696C129.401 622.218 128.915 622.622 128.282 622.909C127.649 623.196 126.905 623.34 126.05 623.34ZM125.971 618.181C126.557 618.181 127.058 618.046 127.474 617.776C127.89 617.501 128.209 617.123 128.432 616.643C128.66 616.162 128.774 615.605 128.774 614.973V614.955C128.774 614.328 128.66 613.771 128.432 613.285C128.209 612.799 127.89 612.418 127.474 612.143C127.058 611.867 126.557 611.729 125.971 611.729C125.391 611.729 124.896 611.867 124.485 612.143C124.081 612.418 123.771 612.799 123.554 613.285C123.343 613.771 123.237 614.328 123.237 614.955V614.973C123.237 615.605 123.343 616.162 123.554 616.643C123.771 617.123 124.081 617.501 124.485 617.776C124.896 618.046 125.391 618.181 125.971 618.181ZM142.424 620.299C141.498 620.299 140.689 620.149 139.998 619.851C139.312 619.546 138.768 619.13 138.363 618.603C137.965 618.069 137.733 617.46 137.669 616.774L137.66 616.669H139.242L139.251 616.774C139.292 617.196 139.453 617.562 139.734 617.873C140.021 618.178 140.402 618.415 140.877 618.585C141.357 618.755 141.902 618.84 142.512 618.84C143.086 618.84 143.596 618.749 144.041 618.567C144.492 618.38 144.847 618.122 145.104 617.794C145.362 617.466 145.491 617.088 145.491 616.66V616.651C145.491 616.124 145.298 615.682 144.911 615.324C144.524 614.961 143.895 614.683 143.021 614.489L141.615 614.182C140.344 613.9 139.418 613.467 138.838 612.881C138.264 612.289 137.977 611.533 137.977 610.613V610.604C137.982 609.901 138.173 609.28 138.548 608.741C138.929 608.202 139.453 607.78 140.121 607.476C140.795 607.171 141.568 607.019 142.441 607.019C143.285 607.019 144.032 607.171 144.683 607.476C145.333 607.774 145.849 608.182 146.229 608.697C146.616 609.207 146.83 609.778 146.871 610.411L146.88 610.534H145.298L145.28 610.42C145.222 610.045 145.069 609.711 144.823 609.418C144.577 609.125 144.249 608.894 143.839 608.724C143.429 608.554 142.948 608.472 142.397 608.478C141.87 608.478 141.396 608.562 140.974 608.732C140.552 608.896 140.215 609.131 139.963 609.436C139.717 609.74 139.594 610.115 139.594 610.561V610.569C139.594 611.073 139.781 611.498 140.156 611.844C140.531 612.189 141.149 612.456 142.011 612.644L143.417 612.96C144.741 613.253 145.688 613.678 146.256 614.234C146.824 614.791 147.108 615.526 147.108 616.44V616.449C147.108 617.24 146.915 617.923 146.528 618.497C146.142 619.071 145.597 619.517 144.894 619.833C144.19 620.144 143.367 620.299 142.424 620.299ZM150.325 623.313C150.226 623.313 150.111 623.308 149.982 623.296C149.859 623.29 149.745 623.278 149.64 623.261V622.004C149.733 622.021 149.836 622.033 149.947 622.039C150.059 622.045 150.167 622.048 150.272 622.048C150.706 622.048 151.061 621.937 151.336 621.714C151.617 621.497 151.843 621.116 152.013 620.571L152.188 620.009L148.69 610.543H150.325L153.234 619.262L152.637 618.33H153.349L152.751 619.262L155.651 610.543H157.26L153.56 620.58C153.302 621.283 153.029 621.834 152.742 622.232C152.461 622.631 152.127 622.909 151.74 623.067C151.359 623.231 150.888 623.313 150.325 623.313ZM162.261 620.167C161.558 620.167 160.937 620.062 160.397 619.851C159.858 619.634 159.425 619.332 159.097 618.945C158.774 618.553 158.584 618.096 158.525 617.574H160.09C160.219 617.973 160.468 618.292 160.837 618.532C161.212 618.772 161.704 618.893 162.313 618.893C162.735 618.893 163.107 618.831 163.43 618.708C163.758 618.579 164.013 618.406 164.194 618.189C164.382 617.973 164.476 617.721 164.476 617.434V617.416C164.476 617.094 164.347 616.821 164.089 616.599C163.837 616.37 163.421 616.186 162.841 616.045L161.373 615.693C160.488 615.482 159.838 615.175 159.422 614.771C159.006 614.36 158.798 613.815 158.798 613.136V613.127C158.798 612.6 158.95 612.128 159.255 611.712C159.565 611.296 159.984 610.971 160.512 610.736C161.045 610.496 161.646 610.376 162.313 610.376C162.976 610.376 163.562 610.481 164.071 610.692C164.587 610.897 165 611.193 165.311 611.58C165.627 611.961 165.817 612.406 165.882 612.916V612.925H164.388H164.379C164.285 612.544 164.06 612.236 163.702 612.002C163.345 611.768 162.879 611.65 162.305 611.65C161.93 611.65 161.596 611.712 161.303 611.835C161.016 611.952 160.787 612.116 160.617 612.327C160.447 612.532 160.362 612.775 160.362 613.057V613.074C160.362 613.396 160.488 613.663 160.74 613.874C160.992 614.085 161.394 614.258 161.944 614.393L163.403 614.744C164.294 614.961 164.956 615.271 165.39 615.676C165.823 616.08 166.04 616.622 166.04 617.302V617.319C166.04 617.876 165.873 618.371 165.539 618.805C165.211 619.232 164.76 619.566 164.186 619.807C163.617 620.047 162.976 620.167 162.261 620.167ZM171.656 620.079C170.689 620.079 169.986 619.883 169.547 619.49C169.113 619.092 168.896 618.444 168.896 617.548V611.809H167.411V610.543H168.896V608.091H170.479V610.543H172.535V611.809H170.479V617.179C170.479 617.729 170.584 618.125 170.795 618.365C171.006 618.605 171.354 618.726 171.841 618.726C171.976 618.726 172.09 618.723 172.184 618.717C172.283 618.711 172.4 618.702 172.535 618.69V619.991C172.395 620.015 172.251 620.035 172.104 620.053C171.958 620.07 171.809 620.079 171.656 620.079ZM178.512 620.167C177.609 620.167 176.836 619.968 176.191 619.569C175.547 619.171 175.049 618.608 174.697 617.882C174.352 617.155 174.179 616.297 174.179 615.307V615.298C174.179 614.319 174.352 613.461 174.697 612.723C175.049 611.984 175.541 611.41 176.174 611C176.812 610.584 177.56 610.376 178.415 610.376C179.276 610.376 180.015 610.575 180.63 610.974C181.251 611.366 181.726 611.92 182.054 612.635C182.388 613.344 182.555 614.17 182.555 615.113V615.711H174.97V614.489H181.772L181.017 615.605V614.999C181.017 614.255 180.905 613.643 180.683 613.162C180.46 612.682 180.152 612.324 179.76 612.09C179.367 611.855 178.916 611.738 178.406 611.738C177.896 611.738 177.442 611.861 177.044 612.107C176.646 612.354 176.329 612.72 176.095 613.206C175.86 613.692 175.743 614.29 175.743 614.999V615.605C175.743 616.279 175.857 616.854 176.086 617.328C176.314 617.803 176.637 618.169 177.053 618.427C177.475 618.679 177.973 618.805 178.547 618.805C178.975 618.805 179.347 618.746 179.663 618.629C179.979 618.512 180.24 618.362 180.445 618.181C180.65 617.999 180.794 617.812 180.876 617.618L180.911 617.539H182.44L182.423 617.609C182.341 617.938 182.194 618.254 181.983 618.559C181.778 618.857 181.509 619.13 181.175 619.376C180.847 619.616 180.46 619.81 180.015 619.956C179.569 620.097 179.068 620.167 178.512 620.167ZM184.901 620V610.543H186.431V611.976H186.562C186.773 611.472 187.096 611.079 187.529 610.798C187.969 610.517 188.499 610.376 189.12 610.376C189.548 610.376 189.932 610.446 190.271 610.587C190.611 610.728 190.904 610.924 191.15 611.176C191.396 611.422 191.593 611.709 191.739 612.037H191.871C192.041 611.703 192.27 611.413 192.557 611.167C192.844 610.915 193.175 610.722 193.55 610.587C193.931 610.446 194.338 610.376 194.771 610.376C195.416 610.376 195.961 610.496 196.406 610.736C196.857 610.977 197.2 611.328 197.435 611.791C197.669 612.248 197.786 612.805 197.786 613.461V620H196.257V613.812C196.257 613.121 196.093 612.603 195.765 612.257C195.442 611.905 194.947 611.729 194.279 611.729C193.84 611.729 193.456 611.829 193.128 612.028C192.806 612.222 192.554 612.485 192.372 612.819C192.19 613.147 192.1 613.514 192.1 613.918V620H190.57V613.584C190.57 613.021 190.392 612.573 190.034 612.239C189.677 611.899 189.199 611.729 188.602 611.729C188.191 611.729 187.822 611.838 187.494 612.055C187.166 612.266 186.905 612.556 186.712 612.925C186.524 613.288 186.431 613.692 186.431 614.138V620H184.901ZM205.714 620V607.317H207.551L211.893 617.908H212.033L216.375 607.317H218.212V620H216.735V610.306H215.962L217.737 607.669L212.631 620H211.295L206.197 607.669L207.964 610.306H207.19V620H205.714ZM223.802 620.167C223.204 620.167 222.665 620.053 222.185 619.824C221.71 619.596 221.335 619.271 221.06 618.849C220.784 618.427 220.646 617.929 220.646 617.354V617.337C220.646 616.499 220.945 615.843 221.543 615.368C222.141 614.888 222.99 614.615 224.092 614.551L227.572 614.34V615.562L224.276 615.772C223.562 615.813 223.037 615.963 222.703 616.221C222.375 616.479 222.211 616.839 222.211 617.302V617.319C222.211 617.8 222.39 618.175 222.747 618.444C223.11 618.708 223.567 618.84 224.118 618.84C224.64 618.84 225.103 618.737 225.507 618.532C225.911 618.321 226.228 618.037 226.456 617.68C226.69 617.322 226.808 616.918 226.808 616.467V613.531C226.808 612.945 226.629 612.5 226.271 612.195C225.92 611.885 225.39 611.729 224.681 611.729C224.112 611.729 223.646 611.832 223.283 612.037C222.92 612.236 222.677 612.523 222.554 612.898L222.545 612.925H221.024L221.033 612.872C221.109 612.374 221.312 611.938 221.64 611.562C221.974 611.188 222.404 610.897 222.932 610.692C223.459 610.481 224.06 610.376 224.733 610.376C225.507 610.376 226.16 610.502 226.693 610.754C227.227 611.006 227.634 611.366 227.915 611.835C228.196 612.304 228.337 612.866 228.337 613.522V620H226.808V618.603H226.667C226.468 618.937 226.225 619.221 225.938 619.455C225.656 619.689 225.337 619.868 224.979 619.991C224.622 620.108 224.229 620.167 223.802 620.167ZM231.185 620V606.79H232.714V620H231.185ZM237.144 620L233.452 615.368L234.577 614.393L239.06 620H237.144ZM232.512 616.599L232.45 614.674H232.846L236.941 610.543H238.796L234.305 614.885L233.944 615.228L232.512 616.599ZM244.254 620.167C243.352 620.167 242.578 619.968 241.934 619.569C241.289 619.171 240.791 618.608 240.439 617.882C240.094 617.155 239.921 616.297 239.921 615.307V615.298C239.921 614.319 240.094 613.461 240.439 612.723C240.791 611.984 241.283 611.41 241.916 611C242.555 610.584 243.302 610.376 244.157 610.376C245.019 610.376 245.757 610.575 246.372 610.974C246.993 611.366 247.468 611.92 247.796 612.635C248.13 613.344 248.297 614.17 248.297 615.113V615.711H240.712V614.489H247.515L246.759 615.605V614.999C246.759 614.255 246.647 613.643 246.425 613.162C246.202 612.682 245.895 612.324 245.502 612.09C245.109 611.855 244.658 611.738 244.148 611.738C243.639 611.738 243.185 611.861 242.786 612.107C242.388 612.354 242.071 612.72 241.837 613.206C241.603 613.692 241.485 614.29 241.485 614.999V615.605C241.485 616.279 241.6 616.854 241.828 617.328C242.057 617.803 242.379 618.169 242.795 618.427C243.217 618.679 243.715 618.805 244.289 618.805C244.717 618.805 245.089 618.746 245.405 618.629C245.722 618.512 245.982 618.362 246.188 618.181C246.393 617.999 246.536 617.812 246.618 617.618L246.653 617.539H248.183L248.165 617.609C248.083 617.938 247.937 618.254 247.726 618.559C247.521 618.857 247.251 619.13 246.917 619.376C246.589 619.616 246.202 619.81 245.757 619.956C245.312 620.097 244.811 620.167 244.254 620.167ZM253.896 620.167C253.192 620.167 252.571 620.062 252.032 619.851C251.493 619.634 251.06 619.332 250.731 618.945C250.409 618.553 250.219 618.096 250.16 617.574H251.725C251.854 617.973 252.103 618.292 252.472 618.532C252.847 618.772 253.339 618.893 253.948 618.893C254.37 618.893 254.742 618.831 255.064 618.708C255.393 618.579 255.647 618.406 255.829 618.189C256.017 617.973 256.11 617.721 256.11 617.434V617.416C256.11 617.094 255.981 616.821 255.724 616.599C255.472 616.37 255.056 616.186 254.476 616.045L253.008 615.693C252.123 615.482 251.473 615.175 251.057 614.771C250.641 614.36 250.433 613.815 250.433 613.136V613.127C250.433 612.6 250.585 612.128 250.89 611.712C251.2 611.296 251.619 610.971 252.146 610.736C252.68 610.496 253.28 610.376 253.948 610.376C254.61 610.376 255.196 610.481 255.706 610.692C256.222 610.897 256.635 611.193 256.945 611.58C257.262 611.961 257.452 612.406 257.517 612.916V612.925H256.022H256.014C255.92 612.544 255.694 612.236 255.337 612.002C254.979 611.768 254.514 611.65 253.939 611.65C253.564 611.65 253.23 611.712 252.938 611.835C252.65 611.952 252.422 612.116 252.252 612.327C252.082 612.532 251.997 612.775 251.997 613.057V613.074C251.997 613.396 252.123 613.663 252.375 613.874C252.627 614.085 253.028 614.258 253.579 614.393L255.038 614.744C255.929 614.961 256.591 615.271 257.024 615.676C257.458 616.08 257.675 616.622 257.675 617.302V617.319C257.675 617.876 257.508 618.371 257.174 618.805C256.846 619.232 256.395 619.566 255.82 619.807C255.252 620.047 254.61 620.167 253.896 620.167ZM63.6826 641V628.317H65.2646V641H63.6826ZM71.6191 641.079C70.6523 641.079 69.9492 640.883 69.5098 640.49C69.0762 640.092 68.8594 639.444 68.8594 638.548V632.809H67.374V631.543H68.8594V629.091H70.4414V631.543H72.498V632.809H70.4414V638.179C70.4414 638.729 70.5469 639.125 70.7578 639.365C70.9688 639.605 71.3174 639.726 71.8037 639.726C71.9385 639.726 72.0527 639.723 72.1465 639.717C72.2461 639.711 72.3633 639.702 72.498 639.69V640.991C72.3574 641.015 72.2139 641.035 72.0674 641.053C71.9209 641.07 71.7715 641.079 71.6191 641.079ZM79.96 641V628.317H87.8174V629.741H81.542V633.811H87.4922V635.217H81.542V639.576H87.8174V641H79.96ZM93.0557 641.167C92.458 641.167 91.9189 641.053 91.4385 640.824C90.9639 640.596 90.5889 640.271 90.3135 639.849C90.0381 639.427 89.9004 638.929 89.9004 638.354V638.337C89.9004 637.499 90.1992 636.843 90.7969 636.368C91.3945 635.888 92.2441 635.615 93.3457 635.551L96.8262 635.34V636.562L93.5303 636.772C92.8154 636.813 92.291 636.963 91.957 637.221C91.6289 637.479 91.4648 637.839 91.4648 638.302V638.319C91.4648 638.8 91.6436 639.175 92.001 639.444C92.3643 639.708 92.8213 639.84 93.3721 639.84C93.8936 639.84 94.3564 639.737 94.7607 639.532C95.165 639.321 95.4814 639.037 95.71 638.68C95.9443 638.322 96.0615 637.918 96.0615 637.467V634.531C96.0615 633.945 95.8828 633.5 95.5254 633.195C95.1738 632.885 94.6436 632.729 93.9346 632.729C93.3662 632.729 92.9004 632.832 92.5371 633.037C92.1738 633.236 91.9307 633.523 91.8076 633.898L91.7988 633.925H90.2783L90.2871 633.872C90.3633 633.374 90.5654 632.938 90.8936 632.562C91.2275 632.188 91.6582 631.897 92.1855 631.692C92.7129 631.481 93.3135 631.376 93.9873 631.376C94.7607 631.376 95.4141 631.502 95.9473 631.754C96.4805 632.006 96.8877 632.366 97.1689 632.835C97.4502 633.304 97.5908 633.866 97.5908 634.522V641H96.0615V639.603H95.9209C95.7217 639.937 95.4785 640.221 95.1914 640.455C94.9102 640.689 94.5908 640.868 94.2334 640.991C93.876 641.108 93.4834 641.167 93.0557 641.167ZM103.603 641.167C102.899 641.167 102.278 641.062 101.739 640.851C101.2 640.634 100.767 640.332 100.438 639.945C100.116 639.553 99.9258 639.096 99.8672 638.574H101.432C101.561 638.973 101.81 639.292 102.179 639.532C102.554 639.772 103.046 639.893 103.655 639.893C104.077 639.893 104.449 639.831 104.771 639.708C105.1 639.579 105.354 639.406 105.536 639.189C105.724 638.973 105.817 638.721 105.817 638.434V638.416C105.817 638.094 105.688 637.821 105.431 637.599C105.179 637.37 104.763 637.186 104.183 637.045L102.715 636.693C101.83 636.482 101.18 636.175 100.764 635.771C100.348 635.36 100.14 634.815 100.14 634.136V634.127C100.14 633.6 100.292 633.128 100.597 632.712C100.907 632.296 101.326 631.971 101.854 631.736C102.387 631.496 102.987 631.376 103.655 631.376C104.317 631.376 104.903 631.481 105.413 631.692C105.929 631.897 106.342 632.193 106.652 632.58C106.969 632.961 107.159 633.406 107.224 633.916V633.925H105.729H105.721C105.627 633.544 105.401 633.236 105.044 633.002C104.687 632.768 104.221 632.65 103.646 632.65C103.271 632.65 102.938 632.712 102.645 632.835C102.357 632.952 102.129 633.116 101.959 633.327C101.789 633.532 101.704 633.775 101.704 634.057V634.074C101.704 634.396 101.83 634.663 102.082 634.874C102.334 635.085 102.735 635.258 103.286 635.393L104.745 635.744C105.636 635.961 106.298 636.271 106.731 636.676C107.165 637.08 107.382 637.622 107.382 638.302V638.319C107.382 638.876 107.215 639.371 106.881 639.805C106.553 640.232 106.102 640.566 105.527 640.807C104.959 641.047 104.317 641.167 103.603 641.167ZM110.3 644.313C110.2 644.313 110.086 644.308 109.957 644.296C109.834 644.29 109.72 644.278 109.614 644.261V643.004C109.708 643.021 109.811 643.033 109.922 643.039C110.033 643.045 110.142 643.048 110.247 643.048C110.681 643.048 111.035 642.937 111.311 642.714C111.592 642.497 111.817 642.116 111.987 641.571L112.163 641.009L108.665 631.543H110.3L113.209 640.262L112.611 639.33H113.323L112.726 640.262L115.626 631.543H117.234L113.534 641.58C113.276 642.283 113.004 642.834 112.717 643.232C112.436 643.631 112.102 643.909 111.715 644.067C111.334 644.231 110.862 644.313 110.3 644.313ZM124.433 641V628.317H132.132V629.741H126.015V634.101H131.631V635.507H126.015V641H124.433ZM138.372 641.167C137.481 641.167 136.708 640.971 136.052 640.578C135.401 640.18 134.897 639.614 134.54 638.882C134.188 638.149 134.013 637.282 134.013 636.28V636.263C134.013 635.249 134.188 634.379 134.54 633.652C134.897 632.92 135.401 632.357 136.052 631.965C136.708 631.572 137.481 631.376 138.372 631.376C139.274 631.376 140.051 631.572 140.701 631.965C141.352 632.357 141.853 632.92 142.204 633.652C142.562 634.379 142.74 635.249 142.74 636.263V636.28C142.74 637.288 142.562 638.158 142.204 638.891C141.853 639.617 141.352 640.18 140.701 640.578C140.051 640.971 139.274 641.167 138.372 641.167ZM138.372 639.813C138.97 639.813 139.477 639.673 139.893 639.392C140.309 639.11 140.625 638.709 140.842 638.188C141.064 637.66 141.176 637.024 141.176 636.28V636.263C141.176 635.513 141.064 634.874 140.842 634.347C140.625 633.819 140.309 633.418 139.893 633.143C139.477 632.867 138.97 632.729 138.372 632.729C137.78 632.729 137.276 632.867 136.86 633.143C136.444 633.418 136.125 633.819 135.902 634.347C135.686 634.874 135.577 635.513 135.577 636.263V636.28C135.577 637.024 135.686 637.66 135.902 638.188C136.125 638.709 136.444 639.11 136.86 639.392C137.276 639.673 137.78 639.813 138.372 639.813ZM145.069 641V631.543H146.599V632.949H146.73C146.912 632.451 147.217 632.064 147.645 631.789C148.078 631.514 148.611 631.376 149.244 631.376C149.391 631.376 149.534 631.385 149.675 631.402C149.821 631.414 149.93 631.426 150 631.438V632.923C149.848 632.894 149.695 632.873 149.543 632.861C149.396 632.844 149.238 632.835 149.068 632.835C148.588 632.835 148.16 632.932 147.785 633.125C147.416 633.312 147.126 633.579 146.915 633.925C146.704 634.271 146.599 634.675 146.599 635.138V641H145.069ZM160.564 641V635.542L156.064 628.317H157.866L161.285 633.951H161.426L164.845 628.317H166.646L162.146 635.542V641H160.564ZM171.032 641.167C170.142 641.167 169.368 640.971 168.712 640.578C168.062 640.18 167.558 639.614 167.2 638.882C166.849 638.149 166.673 637.282 166.673 636.28V636.263C166.673 635.249 166.849 634.379 167.2 633.652C167.558 632.92 168.062 632.357 168.712 631.965C169.368 631.572 170.142 631.376 171.032 631.376C171.935 631.376 172.711 631.572 173.361 631.965C174.012 632.357 174.513 632.92 174.864 633.652C175.222 634.379 175.4 635.249 175.4 636.263V636.28C175.4 637.288 175.222 638.158 174.864 638.891C174.513 639.617 174.012 640.18 173.361 640.578C172.711 640.971 171.935 641.167 171.032 641.167ZM171.032 639.813C171.63 639.813 172.137 639.673 172.553 639.392C172.969 639.11 173.285 638.709 173.502 638.188C173.725 637.66 173.836 637.024 173.836 636.28V636.263C173.836 635.513 173.725 634.874 173.502 634.347C173.285 633.819 172.969 633.418 172.553 633.143C172.137 632.867 171.63 632.729 171.032 632.729C170.44 632.729 169.937 632.867 169.521 633.143C169.104 633.418 168.785 633.819 168.562 634.347C168.346 634.874 168.237 635.513 168.237 636.263V636.28C168.237 637.024 168.346 637.66 168.562 638.188C168.785 638.709 169.104 639.11 169.521 639.392C169.937 639.673 170.44 639.813 171.032 639.813ZM180.902 641.167C180.188 641.167 179.587 641.032 179.101 640.763C178.614 640.487 178.248 640.089 178.002 639.567C177.762 639.04 177.642 638.407 177.642 637.669V631.543H179.171V637.3C179.171 638.144 179.335 638.773 179.663 639.189C179.997 639.605 180.542 639.813 181.298 639.813C181.849 639.813 182.314 639.705 182.695 639.488C183.076 639.271 183.363 638.964 183.557 638.565C183.75 638.161 183.847 637.687 183.847 637.142V631.543H185.376V641H183.847V639.594H183.715C183.475 640.092 183.12 640.479 182.651 640.754C182.183 641.029 181.6 641.167 180.902 641.167ZM196.688 641V629.741H192.601V628.317H202.348V629.741H198.27V641H196.688ZM206.663 641.167C205.772 641.167 204.999 640.971 204.343 640.578C203.692 640.18 203.188 639.614 202.831 638.882C202.479 638.149 202.304 637.282 202.304 636.28V636.263C202.304 635.249 202.479 634.379 202.831 633.652C203.188 632.92 203.692 632.357 204.343 631.965C204.999 631.572 205.772 631.376 206.663 631.376C207.565 631.376 208.342 631.572 208.992 631.965C209.643 632.357 210.144 632.92 210.495 633.652C210.853 634.379 211.031 635.249 211.031 636.263V636.28C211.031 637.288 210.853 638.158 210.495 638.891C210.144 639.617 209.643 640.18 208.992 640.578C208.342 640.971 207.565 641.167 206.663 641.167ZM206.663 639.813C207.261 639.813 207.768 639.673 208.184 639.392C208.6 639.11 208.916 638.709 209.133 638.188C209.355 637.66 209.467 637.024 209.467 636.28V636.263C209.467 635.513 209.355 634.874 209.133 634.347C208.916 633.819 208.6 633.418 208.184 633.143C207.768 632.867 207.261 632.729 206.663 632.729C206.071 632.729 205.567 632.867 205.151 633.143C204.735 633.418 204.416 633.819 204.193 634.347C203.977 634.874 203.868 635.513 203.868 636.263V636.28C203.868 637.024 203.977 637.66 204.193 638.188C204.416 638.709 204.735 639.11 205.151 639.392C205.567 639.673 206.071 639.813 206.663 639.813ZM221.859 641V629.741H217.772V628.317H227.52V629.741H223.441V641H221.859ZM230.481 641.167C229.884 641.167 229.345 641.053 228.864 640.824C228.39 640.596 228.015 640.271 227.739 639.849C227.464 639.427 227.326 638.929 227.326 638.354V638.337C227.326 637.499 227.625 636.843 228.223 636.368C228.82 635.888 229.67 635.615 230.771 635.551L234.252 635.34V636.562L230.956 636.772C230.241 636.813 229.717 636.963 229.383 637.221C229.055 637.479 228.891 637.839 228.891 638.302V638.319C228.891 638.8 229.069 639.175 229.427 639.444C229.79 639.708 230.247 639.84 230.798 639.84C231.319 639.84 231.782 639.737 232.187 639.532C232.591 639.321 232.907 639.037 233.136 638.68C233.37 638.322 233.487 637.918 233.487 637.467V634.531C233.487 633.945 233.309 633.5 232.951 633.195C232.6 632.885 232.069 632.729 231.36 632.729C230.792 632.729 230.326 632.832 229.963 633.037C229.6 633.236 229.356 633.523 229.233 633.898L229.225 633.925H227.704L227.713 633.872C227.789 633.374 227.991 632.938 228.319 632.562C228.653 632.188 229.084 631.897 229.611 631.692C230.139 631.481 230.739 631.376 231.413 631.376C232.187 631.376 232.84 631.502 233.373 631.754C233.906 632.006 234.313 632.366 234.595 632.835C234.876 633.304 235.017 633.866 235.017 634.522V641H233.487V639.603H233.347C233.147 639.937 232.904 640.221 232.617 640.455C232.336 640.689 232.017 640.868 231.659 640.991C231.302 641.108 230.909 641.167 230.481 641.167ZM237.864 641V627.79H239.394V641H237.864ZM243.823 641L240.132 636.368L241.257 635.393L245.739 641H243.823ZM239.191 637.599L239.13 635.674H239.525L243.621 631.543H245.476L240.984 635.885L240.624 636.228L239.191 637.599ZM250.934 641.167C250.031 641.167 249.258 640.968 248.613 640.569C247.969 640.171 247.471 639.608 247.119 638.882C246.773 638.155 246.601 637.297 246.601 636.307V636.298C246.601 635.319 246.773 634.461 247.119 633.723C247.471 632.984 247.963 632.41 248.596 632C249.234 631.584 249.981 631.376 250.837 631.376C251.698 631.376 252.437 631.575 253.052 631.974C253.673 632.366 254.147 632.92 254.476 633.635C254.81 634.344 254.977 635.17 254.977 636.113V636.711H247.392V635.489H254.194L253.438 636.605V635.999C253.438 635.255 253.327 634.643 253.104 634.162C252.882 633.682 252.574 633.324 252.182 633.09C251.789 632.855 251.338 632.738 250.828 632.738C250.318 632.738 249.864 632.861 249.466 633.107C249.067 633.354 248.751 633.72 248.517 634.206C248.282 634.692 248.165 635.29 248.165 635.999V636.605C248.165 637.279 248.279 637.854 248.508 638.328C248.736 638.803 249.059 639.169 249.475 639.427C249.896 639.679 250.395 639.805 250.969 639.805C251.396 639.805 251.769 639.746 252.085 639.629C252.401 639.512 252.662 639.362 252.867 639.181C253.072 638.999 253.216 638.812 253.298 638.618L253.333 638.539H254.862L254.845 638.609C254.763 638.938 254.616 639.254 254.405 639.559C254.2 639.857 253.931 640.13 253.597 640.376C253.269 640.616 252.882 640.81 252.437 640.956C251.991 641.097 251.49 641.167 250.934 641.167ZM70.459 662.299C69.3105 662.299 68.3145 662.029 67.4707 661.49C66.6328 660.951 65.9854 660.187 65.5283 659.196C65.0771 658.206 64.8516 657.031 64.8516 655.672V655.654C64.8516 654.289 65.0771 653.111 65.5283 652.121C65.9854 651.131 66.6328 650.366 67.4707 649.827C68.3086 649.288 69.3018 649.019 70.4502 649.019C71.3408 649.019 72.1494 649.194 72.876 649.546C73.6084 649.892 74.2119 650.375 74.6865 650.996C75.1611 651.611 75.46 652.323 75.583 653.132L75.5742 653.149H73.9834L73.9746 653.123C73.834 652.584 73.5967 652.118 73.2627 651.726C72.9287 651.327 72.5215 651.02 72.041 650.803C71.5664 650.586 71.0361 650.478 70.4502 650.478C69.6416 650.478 68.9385 650.688 68.3408 651.11C67.7432 651.532 67.2832 652.13 66.9609 652.903C66.6387 653.677 66.4775 654.594 66.4775 655.654V655.672C66.4775 656.727 66.6387 657.641 66.9609 658.414C67.2832 659.188 67.7432 659.785 68.3408 660.207C68.9385 660.629 69.6445 660.84 70.459 660.84C71.0508 660.84 71.5869 660.746 72.0674 660.559C72.5479 660.365 72.9521 660.09 73.2803 659.732C73.6084 659.375 73.8369 658.953 73.9658 658.467L73.9834 658.44H75.583V658.467C75.4424 659.24 75.1377 659.914 74.6689 660.488C74.2002 661.057 73.6055 661.502 72.8848 661.824C72.1699 662.141 71.3613 662.299 70.459 662.299ZM81.9023 662.167C81.0117 662.167 80.2383 661.971 79.582 661.578C78.9316 661.18 78.4277 660.614 78.0703 659.882C77.7188 659.149 77.543 658.282 77.543 657.28V657.263C77.543 656.249 77.7188 655.379 78.0703 654.652C78.4277 653.92 78.9316 653.357 79.582 652.965C80.2383 652.572 81.0117 652.376 81.9023 652.376C82.8047 652.376 83.5811 652.572 84.2314 652.965C84.8818 653.357 85.3828 653.92 85.7344 654.652C86.0918 655.379 86.2705 656.249 86.2705 657.263V657.28C86.2705 658.288 86.0918 659.158 85.7344 659.891C85.3828 660.617 84.8818 661.18 84.2314 661.578C83.5811 661.971 82.8047 662.167 81.9023 662.167ZM81.9023 660.813C82.5 660.813 83.0068 660.673 83.4229 660.392C83.8389 660.11 84.1553 659.709 84.3721 659.188C84.5947 658.66 84.7061 658.024 84.7061 657.28V657.263C84.7061 656.513 84.5947 655.874 84.3721 655.347C84.1553 654.819 83.8389 654.418 83.4229 654.143C83.0068 653.867 82.5 653.729 81.9023 653.729C81.3105 653.729 80.8066 653.867 80.3906 654.143C79.9746 654.418 79.6553 654.819 79.4326 655.347C79.2158 655.874 79.1074 656.513 79.1074 657.263V657.28C79.1074 658.024 79.2158 658.66 79.4326 659.188C79.6553 659.709 79.9746 660.11 80.3906 660.392C80.8066 660.673 81.3105 660.813 81.9023 660.813ZM88.5996 662V652.543H90.1289V653.958H90.2607C90.501 653.46 90.8467 653.073 91.2979 652.798C91.7549 652.517 92.332 652.376 93.0293 652.376C94.0898 652.376 94.9043 652.681 95.4727 653.29C96.0469 653.894 96.334 654.755 96.334 655.874V662H94.8047V656.243C94.8047 655.388 94.623 654.755 94.2598 654.345C93.9023 653.935 93.3457 653.729 92.5898 653.729C92.0918 653.729 91.6582 653.838 91.2891 654.055C90.9199 654.271 90.6328 654.579 90.4277 654.978C90.2285 655.37 90.1289 655.845 90.1289 656.401V662H88.5996ZM102.407 662.079C101.44 662.079 100.737 661.883 100.298 661.49C99.8643 661.092 99.6475 660.444 99.6475 659.548V653.809H98.1621V652.543H99.6475V650.091H101.229V652.543H103.286V653.809H101.229V659.179C101.229 659.729 101.335 660.125 101.546 660.365C101.757 660.605 102.105 660.726 102.592 660.726C102.727 660.726 102.841 660.723 102.935 660.717C103.034 660.711 103.151 660.702 103.286 660.69V661.991C103.146 662.015 103.002 662.035 102.855 662.053C102.709 662.07 102.56 662.079 102.407 662.079ZM105.545 662V652.543H107.074V653.949H107.206C107.388 653.451 107.692 653.064 108.12 652.789C108.554 652.514 109.087 652.376 109.72 652.376C109.866 652.376 110.01 652.385 110.15 652.402C110.297 652.414 110.405 652.426 110.476 652.438V653.923C110.323 653.894 110.171 653.873 110.019 653.861C109.872 653.844 109.714 653.835 109.544 653.835C109.063 653.835 108.636 653.932 108.261 654.125C107.892 654.312 107.602 654.579 107.391 654.925C107.18 655.271 107.074 655.675 107.074 656.138V662H105.545ZM115.969 662.167C115.078 662.167 114.305 661.971 113.648 661.578C112.998 661.18 112.494 660.614 112.137 659.882C111.785 659.149 111.609 658.282 111.609 657.28V657.263C111.609 656.249 111.785 655.379 112.137 654.652C112.494 653.92 112.998 653.357 113.648 652.965C114.305 652.572 115.078 652.376 115.969 652.376C116.871 652.376 117.647 652.572 118.298 652.965C118.948 653.357 119.449 653.92 119.801 654.652C120.158 655.379 120.337 656.249 120.337 657.263V657.28C120.337 658.288 120.158 659.158 119.801 659.891C119.449 660.617 118.948 661.18 118.298 661.578C117.647 661.971 116.871 662.167 115.969 662.167ZM115.969 660.813C116.566 660.813 117.073 660.673 117.489 660.392C117.905 660.11 118.222 659.709 118.438 659.188C118.661 658.66 118.772 658.024 118.772 657.28V657.263C118.772 656.513 118.661 655.874 118.438 655.347C118.222 654.819 117.905 654.418 117.489 654.143C117.073 653.867 116.566 653.729 115.969 653.729C115.377 653.729 114.873 653.867 114.457 654.143C114.041 654.418 113.722 654.819 113.499 655.347C113.282 655.874 113.174 656.513 113.174 657.263V657.28C113.174 658.024 113.282 658.66 113.499 659.188C113.722 659.709 114.041 660.11 114.457 660.392C114.873 660.673 115.377 660.813 115.969 660.813ZM122.754 662V648.79H124.283V662H122.754ZM137.713 662.299C136.5 662.299 135.46 662.029 134.593 661.49C133.726 660.945 133.058 660.175 132.589 659.179C132.126 658.183 131.895 657.011 131.895 655.663V655.646C131.895 654.286 132.129 653.111 132.598 652.121C133.072 651.131 133.743 650.366 134.61 649.827C135.483 649.288 136.518 649.019 137.713 649.019C138.914 649.019 139.948 649.288 140.815 649.827C141.688 650.366 142.359 651.134 142.828 652.13C143.297 653.12 143.531 654.292 143.531 655.646V655.663C143.531 657.011 143.297 658.183 142.828 659.179C142.365 660.169 141.697 660.937 140.824 661.481C139.957 662.026 138.92 662.299 137.713 662.299ZM137.713 660.84C138.58 660.84 139.327 660.626 139.954 660.198C140.581 659.771 141.064 659.17 141.404 658.396C141.744 657.617 141.914 656.706 141.914 655.663V655.646C141.914 654.591 141.744 653.677 141.404 652.903C141.064 652.13 140.581 651.532 139.954 651.11C139.327 650.688 138.58 650.478 137.713 650.478C136.852 650.478 136.107 650.688 135.48 651.11C134.854 651.532 134.367 652.13 134.021 652.903C133.682 653.677 133.512 654.591 133.512 655.646V655.663C133.512 656.706 133.679 657.617 134.013 658.396C134.347 659.17 134.827 659.771 135.454 660.198C136.081 660.626 136.834 660.84 137.713 660.84ZM146.669 662V653.809H145.113V652.543H146.669V651.479C146.669 650.542 146.9 649.845 147.363 649.388C147.832 648.925 148.515 648.693 149.411 648.693C149.599 648.693 149.774 648.702 149.938 648.72C150.108 648.731 150.27 648.752 150.422 648.781V650.003C150.328 649.985 150.22 649.974 150.097 649.968C149.974 649.962 149.848 649.959 149.719 649.959C149.18 649.959 148.79 650.091 148.55 650.354C148.315 650.618 148.198 651.008 148.198 651.523V652.543H150.343V653.809H148.198V662H146.669ZM161.206 662V656.542L156.706 649.317H158.508L161.927 654.951H162.067L165.486 649.317H167.288L162.788 656.542V662H161.206ZM171.674 662.167C170.783 662.167 170.01 661.971 169.354 661.578C168.703 661.18 168.199 660.614 167.842 659.882C167.49 659.149 167.314 658.282 167.314 657.28V657.263C167.314 656.249 167.49 655.379 167.842 654.652C168.199 653.92 168.703 653.357 169.354 652.965C170.01 652.572 170.783 652.376 171.674 652.376C172.576 652.376 173.353 652.572 174.003 652.965C174.653 653.357 175.154 653.92 175.506 654.652C175.863 655.379 176.042 656.249 176.042 657.263V657.28C176.042 658.288 175.863 659.158 175.506 659.891C175.154 660.617 174.653 661.18 174.003 661.578C173.353 661.971 172.576 662.167 171.674 662.167ZM171.674 660.813C172.271 660.813 172.778 660.673 173.194 660.392C173.61 660.11 173.927 659.709 174.144 659.188C174.366 658.66 174.478 658.024 174.478 657.28V657.263C174.478 656.513 174.366 655.874 174.144 655.347C173.927 654.819 173.61 654.418 173.194 654.143C172.778 653.867 172.271 653.729 171.674 653.729C171.082 653.729 170.578 653.867 170.162 654.143C169.746 654.418 169.427 654.819 169.204 655.347C168.987 655.874 168.879 656.513 168.879 657.263V657.28C168.879 658.024 168.987 658.66 169.204 659.188C169.427 659.709 169.746 660.11 170.162 660.392C170.578 660.673 171.082 660.813 171.674 660.813ZM181.544 662.167C180.829 662.167 180.229 662.032 179.742 661.763C179.256 661.487 178.89 661.089 178.644 660.567C178.403 660.04 178.283 659.407 178.283 658.669V652.543H179.812V658.3C179.812 659.144 179.977 659.773 180.305 660.189C180.639 660.605 181.184 660.813 181.939 660.813C182.49 660.813 182.956 660.705 183.337 660.488C183.718 660.271 184.005 659.964 184.198 659.565C184.392 659.161 184.488 658.687 184.488 658.142V652.543H186.018V662H184.488V660.594H184.356C184.116 661.092 183.762 661.479 183.293 661.754C182.824 662.029 182.241 662.167 181.544 662.167ZM188.83 662V652.543H190.359V653.949H190.491C190.673 653.451 190.978 653.064 191.405 652.789C191.839 652.514 192.372 652.376 193.005 652.376C193.151 652.376 193.295 652.385 193.436 652.402C193.582 652.414 193.69 652.426 193.761 652.438V653.923C193.608 653.894 193.456 653.873 193.304 653.861C193.157 653.844 192.999 653.835 192.829 653.835C192.349 653.835 191.921 653.932 191.546 654.125C191.177 654.312 190.887 654.579 190.676 654.925C190.465 655.271 190.359 655.675 190.359 656.138V662H188.83ZM200.836 662V649.317H202.418V654.802H209.379V649.317H210.961V662H209.379V656.226H202.418V662H200.836ZM217.825 662.167C216.923 662.167 216.149 661.968 215.505 661.569C214.86 661.171 214.362 660.608 214.011 659.882C213.665 659.155 213.492 658.297 213.492 657.307V657.298C213.492 656.319 213.665 655.461 214.011 654.723C214.362 653.984 214.854 653.41 215.487 653C216.126 652.584 216.873 652.376 217.729 652.376C218.59 652.376 219.328 652.575 219.943 652.974C220.564 653.366 221.039 653.92 221.367 654.635C221.701 655.344 221.868 656.17 221.868 657.113V657.711H214.283V656.489H221.086L220.33 657.605V656.999C220.33 656.255 220.219 655.643 219.996 655.162C219.773 654.682 219.466 654.324 219.073 654.09C218.681 653.855 218.229 653.738 217.72 653.738C217.21 653.738 216.756 653.861 216.357 654.107C215.959 654.354 215.643 654.72 215.408 655.206C215.174 655.692 215.057 656.29 215.057 656.999V657.605C215.057 658.279 215.171 658.854 215.399 659.328C215.628 659.803 215.95 660.169 216.366 660.427C216.788 660.679 217.286 660.805 217.86 660.805C218.288 660.805 218.66 660.746 218.977 660.629C219.293 660.512 219.554 660.362 219.759 660.181C219.964 659.999 220.107 659.812 220.189 659.618L220.225 659.539H221.754L221.736 659.609C221.654 659.938 221.508 660.254 221.297 660.559C221.092 660.857 220.822 661.13 220.488 661.376C220.16 661.616 219.773 661.81 219.328 661.956C218.883 662.097 218.382 662.167 217.825 662.167ZM226.816 662.167C226.219 662.167 225.68 662.053 225.199 661.824C224.725 661.596 224.35 661.271 224.074 660.849C223.799 660.427 223.661 659.929 223.661 659.354V659.337C223.661 658.499 223.96 657.843 224.558 657.368C225.155 656.888 226.005 656.615 227.106 656.551L230.587 656.34V657.562L227.291 657.772C226.576 657.813 226.052 657.963 225.718 658.221C225.39 658.479 225.226 658.839 225.226 659.302V659.319C225.226 659.8 225.404 660.175 225.762 660.444C226.125 660.708 226.582 660.84 227.133 660.84C227.654 660.84 228.117 660.737 228.521 660.532C228.926 660.321 229.242 660.037 229.471 659.68C229.705 659.322 229.822 658.918 229.822 658.467V655.531C229.822 654.945 229.644 654.5 229.286 654.195C228.935 653.885 228.404 653.729 227.695 653.729C227.127 653.729 226.661 653.832 226.298 654.037C225.935 654.236 225.691 654.523 225.568 654.898L225.56 654.925H224.039L224.048 654.872C224.124 654.374 224.326 653.938 224.654 653.562C224.988 653.188 225.419 652.897 225.946 652.692C226.474 652.481 227.074 652.376 227.748 652.376C228.521 652.376 229.175 652.502 229.708 652.754C230.241 653.006 230.648 653.366 230.93 653.835C231.211 654.304 231.352 654.866 231.352 655.522V662H229.822V660.603H229.682C229.482 660.937 229.239 661.221 228.952 661.455C228.671 661.689 228.352 661.868 227.994 661.991C227.637 662.108 227.244 662.167 226.816 662.167ZM234.199 662V648.79H235.729V662H234.199ZM241.978 662.079C241.011 662.079 240.308 661.883 239.868 661.49C239.435 661.092 239.218 660.444 239.218 659.548V653.809H237.732V652.543H239.218V650.091H240.8V652.543H242.856V653.809H240.8V659.179C240.8 659.729 240.905 660.125 241.116 660.365C241.327 660.605 241.676 660.726 242.162 660.726C242.297 660.726 242.411 660.723 242.505 660.717C242.604 660.711 242.722 660.702 242.856 660.69V661.991C242.716 662.015 242.572 662.035 242.426 662.053C242.279 662.07 242.13 662.079 241.978 662.079ZM245.203 662V648.79H246.732V653.967H246.864C247.104 653.463 247.45 653.073 247.901 652.798C248.358 652.517 248.936 652.376 249.633 652.376C250.336 652.376 250.934 652.514 251.426 652.789C251.918 653.059 252.293 653.457 252.551 653.984C252.809 654.506 252.938 655.142 252.938 655.892V662H251.408V656.252C251.408 655.396 251.227 654.764 250.863 654.354C250.506 653.938 249.949 653.729 249.193 653.729C248.689 653.729 248.253 653.838 247.884 654.055C247.521 654.271 247.236 654.579 247.031 654.978C246.832 655.376 246.732 655.851 246.732 656.401V662H245.203ZM75.1172 683.299C74.3848 683.299 73.7607 683.161 73.2451 682.886C72.7295 682.604 72.3281 682.224 72.041 681.743C71.7598 681.263 71.5957 680.721 71.5488 680.117L71.54 679.994H73.1221L73.1309 680.082C73.166 680.398 73.2598 680.691 73.4121 680.961C73.5645 681.225 73.7812 681.438 74.0625 681.603C74.3438 681.761 74.6924 681.84 75.1084 681.84C75.8115 681.84 76.3477 681.638 76.7168 681.233C77.0859 680.823 77.2705 680.231 77.2705 679.458V670.317H78.8525V679.476C78.8525 680.677 78.5215 681.614 77.8594 682.288C77.2031 682.962 76.2891 683.299 75.1172 683.299ZM85.7432 683.167C84.8525 683.167 84.0791 682.971 83.4229 682.578C82.7725 682.18 82.2686 681.614 81.9111 680.882C81.5596 680.149 81.3838 679.282 81.3838 678.28V678.263C81.3838 677.249 81.5596 676.379 81.9111 675.652C82.2686 674.92 82.7725 674.357 83.4229 673.965C84.0791 673.572 84.8525 673.376 85.7432 673.376C86.6455 673.376 87.4219 673.572 88.0723 673.965C88.7227 674.357 89.2236 674.92 89.5752 675.652C89.9326 676.379 90.1113 677.249 90.1113 678.263V678.28C90.1113 679.288 89.9326 680.158 89.5752 680.891C89.2236 681.617 88.7227 682.18 88.0723 682.578C87.4219 682.971 86.6455 683.167 85.7432 683.167ZM85.7432 681.813C86.3408 681.813 86.8477 681.673 87.2637 681.392C87.6797 681.11 87.9961 680.709 88.2129 680.188C88.4355 679.66 88.5469 679.024 88.5469 678.28V678.263C88.5469 677.513 88.4355 676.874 88.2129 676.347C87.9961 675.819 87.6797 675.418 87.2637 675.143C86.8477 674.867 86.3408 674.729 85.7432 674.729C85.1514 674.729 84.6475 674.867 84.2314 675.143C83.8154 675.418 83.4961 675.819 83.2734 676.347C83.0566 676.874 82.9482 677.513 82.9482 678.263V678.28C82.9482 679.024 83.0566 679.66 83.2734 680.188C83.4961 680.709 83.8154 681.11 84.2314 681.392C84.6475 681.673 85.1514 681.813 85.7432 681.813ZM95.6133 683.167C94.8984 683.167 94.2979 683.032 93.8115 682.763C93.3252 682.487 92.959 682.089 92.7129 681.567C92.4727 681.04 92.3525 680.407 92.3525 679.669V673.543H93.8818V679.3C93.8818 680.144 94.0459 680.773 94.374 681.189C94.708 681.605 95.2529 681.813 96.0088 681.813C96.5596 681.813 97.0254 681.705 97.4062 681.488C97.7871 681.271 98.0742 680.964 98.2676 680.565C98.4609 680.161 98.5576 679.687 98.5576 679.142V673.543H100.087V683H98.5576V681.594H98.4258C98.1855 682.092 97.8311 682.479 97.3623 682.754C96.8936 683.029 96.3105 683.167 95.6133 683.167ZM102.899 683V673.543H104.429V674.949H104.561C104.742 674.451 105.047 674.064 105.475 673.789C105.908 673.514 106.441 673.376 107.074 673.376C107.221 673.376 107.364 673.385 107.505 673.402C107.651 673.414 107.76 673.426 107.83 673.438V674.923C107.678 674.894 107.525 674.873 107.373 674.861C107.227 674.844 107.068 674.835 106.898 674.835C106.418 674.835 105.99 674.932 105.615 675.125C105.246 675.312 104.956 675.579 104.745 675.925C104.534 676.271 104.429 676.675 104.429 677.138V683H102.899ZM109.878 683V673.543H111.407V674.958H111.539C111.779 674.46 112.125 674.073 112.576 673.798C113.033 673.517 113.61 673.376 114.308 673.376C115.368 673.376 116.183 673.681 116.751 674.29C117.325 674.894 117.612 675.755 117.612 676.874V683H116.083V677.243C116.083 676.388 115.901 675.755 115.538 675.345C115.181 674.935 114.624 674.729 113.868 674.729C113.37 674.729 112.937 674.838 112.567 675.055C112.198 675.271 111.911 675.579 111.706 675.978C111.507 676.37 111.407 676.845 111.407 677.401V683H109.878ZM124.195 683.167C123.293 683.167 122.52 682.968 121.875 682.569C121.23 682.171 120.732 681.608 120.381 680.882C120.035 680.155 119.862 679.297 119.862 678.307V678.298C119.862 677.319 120.035 676.461 120.381 675.723C120.732 674.984 121.225 674.41 121.857 674C122.496 673.584 123.243 673.376 124.099 673.376C124.96 673.376 125.698 673.575 126.313 673.974C126.935 674.366 127.409 674.92 127.737 675.635C128.071 676.344 128.238 677.17 128.238 678.113V678.711H120.653V677.489H127.456L126.7 678.605V677.999C126.7 677.255 126.589 676.643 126.366 676.162C126.144 675.682 125.836 675.324 125.443 675.09C125.051 674.855 124.6 674.738 124.09 674.738C123.58 674.738 123.126 674.861 122.728 675.107C122.329 675.354 122.013 675.72 121.778 676.206C121.544 676.692 121.427 677.29 121.427 677.999V678.605C121.427 679.279 121.541 679.854 121.77 680.328C121.998 680.803 122.32 681.169 122.736 681.427C123.158 681.679 123.656 681.805 124.23 681.805C124.658 681.805 125.03 681.746 125.347 681.629C125.663 681.512 125.924 681.362 126.129 681.181C126.334 680.999 126.478 680.812 126.56 680.618L126.595 680.539H128.124L128.106 680.609C128.024 680.938 127.878 681.254 127.667 681.559C127.462 681.857 127.192 682.13 126.858 682.376C126.53 682.616 126.144 682.81 125.698 682.956C125.253 683.097 124.752 683.167 124.195 683.167ZM131.218 686.313C131.118 686.313 131.004 686.308 130.875 686.296C130.752 686.29 130.638 686.278 130.532 686.261V685.004C130.626 685.021 130.729 685.033 130.84 685.039C130.951 685.045 131.06 685.048 131.165 685.048C131.599 685.048 131.953 684.937 132.229 684.714C132.51 684.497 132.735 684.116 132.905 683.571L133.081 683.009L129.583 673.543H131.218L134.127 682.262L133.529 681.33H134.241L133.644 682.262L136.544 673.543H138.152L134.452 683.58C134.194 684.283 133.922 684.834 133.635 685.232C133.354 685.631 133.02 685.909 132.633 686.067C132.252 686.231 131.78 686.313 131.218 686.313ZM144.34 683L149.016 670.317H150.229V672.356H149.736L146.001 683H144.34ZM146.458 679.37L146.95 678.025H152.681L153.173 679.37H146.458ZM153.595 683L149.868 672.356V670.317H150.58L155.256 683H153.595ZM157.251 683V673.543H158.78V674.958H158.912C159.152 674.46 159.498 674.073 159.949 673.798C160.406 673.517 160.983 673.376 161.681 673.376C162.741 673.376 163.556 673.681 164.124 674.29C164.698 674.894 164.985 675.755 164.985 676.874V683H163.456V677.243C163.456 676.388 163.274 675.755 162.911 675.345C162.554 674.935 161.997 674.729 161.241 674.729C160.743 674.729 160.31 674.838 159.94 675.055C159.571 675.271 159.284 675.579 159.079 675.978C158.88 676.37 158.78 676.845 158.78 677.401V683H157.251ZM171.199 683.167C170.408 683.167 169.714 682.965 169.116 682.561C168.519 682.156 168.056 681.588 167.728 680.855C167.399 680.123 167.235 679.265 167.235 678.28V678.263C167.235 677.272 167.399 676.411 167.728 675.679C168.056 674.946 168.516 674.381 169.107 673.982C169.705 673.578 170.402 673.376 171.199 673.376C171.85 673.376 172.438 673.528 172.966 673.833C173.499 674.132 173.895 674.533 174.152 675.037H174.293V669.79H175.822V683H174.293V681.488H174.152C173.865 682.016 173.467 682.429 172.957 682.728C172.447 683.021 171.861 683.167 171.199 683.167ZM171.551 681.813C172.125 681.813 172.617 681.67 173.027 681.383C173.443 681.096 173.763 680.688 173.985 680.161C174.214 679.628 174.328 679.001 174.328 678.28V678.263C174.328 677.53 174.214 676.903 173.985 676.382C173.763 675.854 173.443 675.447 173.027 675.16C172.617 674.873 172.125 674.729 171.551 674.729C170.977 674.729 170.484 674.873 170.074 675.16C169.664 675.441 169.348 675.846 169.125 676.373C168.908 676.895 168.8 677.524 168.8 678.263V678.28C168.8 679.013 168.908 679.643 169.125 680.17C169.348 680.697 169.664 681.104 170.074 681.392C170.484 681.673 170.977 681.813 171.551 681.813ZM183.917 683V670.317H185.754L190.096 680.908H190.236L194.578 670.317H196.415V683H194.938V673.306H194.165L195.94 670.669L190.834 683H189.498L184.4 670.669L186.167 673.306H185.394V683H183.917ZM203.306 683.167C202.415 683.167 201.642 682.971 200.985 682.578C200.335 682.18 199.831 681.614 199.474 680.882C199.122 680.149 198.946 679.282 198.946 678.28V678.263C198.946 677.249 199.122 676.379 199.474 675.652C199.831 674.92 200.335 674.357 200.985 673.965C201.642 673.572 202.415 673.376 203.306 673.376C204.208 673.376 204.984 673.572 205.635 673.965C206.285 674.357 206.786 674.92 207.138 675.652C207.495 676.379 207.674 677.249 207.674 678.263V678.28C207.674 679.288 207.495 680.158 207.138 680.891C206.786 681.617 206.285 682.18 205.635 682.578C204.984 682.971 204.208 683.167 203.306 683.167ZM203.306 681.813C203.903 681.813 204.41 681.673 204.826 681.392C205.242 681.11 205.559 680.709 205.775 680.188C205.998 679.66 206.109 679.024 206.109 678.28V678.263C206.109 677.513 205.998 676.874 205.775 676.347C205.559 675.819 205.242 675.418 204.826 675.143C204.41 674.867 203.903 674.729 203.306 674.729C202.714 674.729 202.21 674.867 201.794 675.143C201.378 675.418 201.059 675.819 200.836 676.347C200.619 676.874 200.511 677.513 200.511 678.263V678.28C200.511 679.024 200.619 679.66 200.836 680.188C201.059 680.709 201.378 681.11 201.794 681.392C202.21 681.673 202.714 681.813 203.306 681.813ZM210.003 683V673.543H211.532V674.958H211.664C211.904 674.46 212.25 674.073 212.701 673.798C213.158 673.517 213.735 673.376 214.433 673.376C215.493 673.376 216.308 673.681 216.876 674.29C217.45 674.894 217.737 675.755 217.737 676.874V683H216.208V677.243C216.208 676.388 216.026 675.755 215.663 675.345C215.306 674.935 214.749 674.729 213.993 674.729C213.495 674.729 213.062 674.838 212.692 675.055C212.323 675.271 212.036 675.579 211.831 675.978C211.632 676.37 211.532 676.845 211.532 677.401V683H210.003ZM220.497 683V673.543H222.026V683H220.497ZM221.271 671.724C220.983 671.724 220.737 671.621 220.532 671.416C220.327 671.205 220.225 670.959 220.225 670.678C220.225 670.385 220.327 670.136 220.532 669.931C220.737 669.726 220.983 669.623 221.271 669.623C221.563 669.623 221.812 669.726 222.018 669.931C222.223 670.136 222.325 670.385 222.325 670.678C222.325 670.959 222.223 671.205 222.018 671.416C221.812 671.621 221.563 671.724 221.271 671.724ZM228.223 683.079C227.256 683.079 226.553 682.883 226.113 682.49C225.68 682.092 225.463 681.444 225.463 680.548V674.809H223.978V673.543H225.463V671.091H227.045V673.543H229.102V674.809H227.045V680.179C227.045 680.729 227.15 681.125 227.361 681.365C227.572 681.605 227.921 681.726 228.407 681.726C228.542 681.726 228.656 681.723 228.75 681.717C228.85 681.711 228.967 681.702 229.102 681.69V682.991C228.961 683.015 228.817 683.035 228.671 683.053C228.524 683.07 228.375 683.079 228.223 683.079ZM235.104 683.167C234.214 683.167 233.44 682.971 232.784 682.578C232.134 682.18 231.63 681.614 231.272 680.882C230.921 680.149 230.745 679.282 230.745 678.28V678.263C230.745 677.249 230.921 676.379 231.272 675.652C231.63 674.92 232.134 674.357 232.784 673.965C233.44 673.572 234.214 673.376 235.104 673.376C236.007 673.376 236.783 673.572 237.434 673.965C238.084 674.357 238.585 674.92 238.937 675.652C239.294 676.379 239.473 677.249 239.473 678.263V678.28C239.473 679.288 239.294 680.158 238.937 680.891C238.585 681.617 238.084 682.18 237.434 682.578C236.783 682.971 236.007 683.167 235.104 683.167ZM235.104 681.813C235.702 681.813 236.209 681.673 236.625 681.392C237.041 681.11 237.357 680.709 237.574 680.188C237.797 679.66 237.908 679.024 237.908 678.28V678.263C237.908 677.513 237.797 676.874 237.574 676.347C237.357 675.819 237.041 675.418 236.625 675.143C236.209 674.867 235.702 674.729 235.104 674.729C234.513 674.729 234.009 674.867 233.593 675.143C233.177 675.418 232.857 675.819 232.635 676.347C232.418 676.874 232.31 677.513 232.31 678.263V678.28C232.31 679.024 232.418 679.66 232.635 680.188C232.857 680.709 233.177 681.11 233.593 681.392C234.009 681.673 234.513 681.813 235.104 681.813ZM241.802 683V673.543H243.331V674.949H243.463C243.645 674.451 243.949 674.064 244.377 673.789C244.811 673.514 245.344 673.376 245.977 673.376C246.123 673.376 246.267 673.385 246.407 673.402C246.554 673.414 246.662 673.426 246.732 673.438V674.923C246.58 674.894 246.428 674.873 246.275 674.861C246.129 674.844 245.971 674.835 245.801 674.835C245.32 674.835 244.893 674.932 244.518 675.125C244.148 675.312 243.858 675.579 243.647 675.925C243.437 676.271 243.331 676.675 243.331 677.138V683H241.802ZM102.486 704V698.542L97.9863 691.317H99.7881L103.207 696.951H103.348L106.767 691.317H108.568L104.068 698.542V704H102.486ZM112.954 704.167C112.063 704.167 111.29 703.971 110.634 703.578C109.983 703.18 109.479 702.614 109.122 701.882C108.771 701.149 108.595 700.282 108.595 699.28V699.263C108.595 698.249 108.771 697.379 109.122 696.652C109.479 695.92 109.983 695.357 110.634 694.965C111.29 694.572 112.063 694.376 112.954 694.376C113.856 694.376 114.633 694.572 115.283 694.965C115.934 695.357 116.435 695.92 116.786 696.652C117.144 697.379 117.322 698.249 117.322 699.263V699.28C117.322 700.288 117.144 701.158 116.786 701.891C116.435 702.617 115.934 703.18 115.283 703.578C114.633 703.971 113.856 704.167 112.954 704.167ZM112.954 702.813C113.552 702.813 114.059 702.673 114.475 702.392C114.891 702.11 115.207 701.709 115.424 701.188C115.646 700.66 115.758 700.024 115.758 699.28V699.263C115.758 698.513 115.646 697.874 115.424 697.347C115.207 696.819 114.891 696.418 114.475 696.143C114.059 695.867 113.552 695.729 112.954 695.729C112.362 695.729 111.858 695.867 111.442 696.143C111.026 696.418 110.707 696.819 110.484 697.347C110.268 697.874 110.159 698.513 110.159 699.263V699.28C110.159 700.024 110.268 700.66 110.484 701.188C110.707 701.709 111.026 702.11 111.442 702.392C111.858 702.673 112.362 702.813 112.954 702.813ZM122.824 704.167C122.109 704.167 121.509 704.032 121.022 703.763C120.536 703.487 120.17 703.089 119.924 702.567C119.684 702.04 119.563 701.407 119.563 700.669V694.543H121.093V700.3C121.093 701.144 121.257 701.773 121.585 702.189C121.919 702.605 122.464 702.813 123.22 702.813C123.771 702.813 124.236 702.705 124.617 702.488C124.998 702.271 125.285 701.964 125.479 701.565C125.672 701.161 125.769 700.687 125.769 700.142V694.543H127.298V704H125.769V702.594H125.637C125.396 703.092 125.042 703.479 124.573 703.754C124.104 704.029 123.521 704.167 122.824 704.167ZM130.11 704V694.543H131.64V695.949H131.771C131.953 695.451 132.258 695.064 132.686 694.789C133.119 694.514 133.652 694.376 134.285 694.376C134.432 694.376 134.575 694.385 134.716 694.402C134.862 694.414 134.971 694.426 135.041 694.438V695.923C134.889 695.894 134.736 695.873 134.584 695.861C134.438 695.844 134.279 695.835 134.109 695.835C133.629 695.835 133.201 695.932 132.826 696.125C132.457 696.312 132.167 696.579 131.956 696.925C131.745 697.271 131.64 697.675 131.64 698.138V704H130.11ZM142.907 699.474V698.067H146.484C147.393 698.067 148.096 697.833 148.594 697.364C149.092 696.89 149.341 696.236 149.341 695.404V695.387C149.341 694.549 149.092 693.896 148.594 693.427C148.096 692.958 147.393 692.724 146.484 692.724H142.907V691.317H146.889C147.686 691.317 148.389 691.487 148.998 691.827C149.607 692.167 150.085 692.642 150.431 693.251C150.782 693.86 150.958 694.566 150.958 695.369V695.387C150.958 696.189 150.782 696.898 150.431 697.514C150.085 698.129 149.607 698.609 148.998 698.955C148.389 699.301 147.686 699.474 146.889 699.474H142.907ZM142.116 704V691.317H143.698V704H142.116ZM153.313 704V694.543H154.843V695.949H154.975C155.156 695.451 155.461 695.064 155.889 694.789C156.322 694.514 156.855 694.376 157.488 694.376C157.635 694.376 157.778 694.385 157.919 694.402C158.065 694.414 158.174 694.426 158.244 694.438V695.923C158.092 695.894 157.939 695.873 157.787 695.861C157.641 695.844 157.482 695.835 157.312 695.835C156.832 695.835 156.404 695.932 156.029 696.125C155.66 696.312 155.37 696.579 155.159 696.925C154.948 697.271 154.843 697.675 154.843 698.138V704H153.313ZM163.737 704.167C162.847 704.167 162.073 703.971 161.417 703.578C160.767 703.18 160.263 702.614 159.905 701.882C159.554 701.149 159.378 700.282 159.378 699.28V699.263C159.378 698.249 159.554 697.379 159.905 696.652C160.263 695.92 160.767 695.357 161.417 694.965C162.073 694.572 162.847 694.376 163.737 694.376C164.64 694.376 165.416 694.572 166.066 694.965C166.717 695.357 167.218 695.92 167.569 696.652C167.927 697.379 168.105 698.249 168.105 699.263V699.28C168.105 700.288 167.927 701.158 167.569 701.891C167.218 702.617 166.717 703.18 166.066 703.578C165.416 703.971 164.64 704.167 163.737 704.167ZM163.737 702.813C164.335 702.813 164.842 702.673 165.258 702.392C165.674 702.11 165.99 701.709 166.207 701.188C166.43 700.66 166.541 700.024 166.541 699.28V699.263C166.541 698.513 166.43 697.874 166.207 697.347C165.99 696.819 165.674 696.418 165.258 696.143C164.842 695.867 164.335 695.729 163.737 695.729C163.146 695.729 162.642 695.867 162.226 696.143C161.81 696.418 161.49 696.819 161.268 697.347C161.051 697.874 160.942 698.513 160.942 699.263V699.28C160.942 700.024 161.051 700.66 161.268 701.188C161.49 701.709 161.81 702.11 162.226 702.392C162.642 702.673 163.146 702.813 163.737 702.813ZM174.337 707.34C173.575 707.34 172.91 707.231 172.342 707.015C171.773 706.804 171.319 706.502 170.979 706.109C170.646 705.723 170.438 705.271 170.355 704.756L170.364 704.747H171.946L171.955 704.756C172.043 705.113 172.292 705.406 172.702 705.635C173.112 705.869 173.657 705.986 174.337 705.986C175.181 705.986 175.84 705.793 176.314 705.406C176.795 705.02 177.035 704.478 177.035 703.78V701.899H176.895C176.695 702.245 176.446 702.541 176.147 702.787C175.849 703.033 175.512 703.221 175.137 703.35C174.762 703.473 174.357 703.534 173.924 703.534C173.115 703.534 172.412 703.341 171.814 702.954C171.223 702.562 170.766 702.022 170.443 701.337C170.121 700.651 169.96 699.863 169.96 698.973V698.955C169.96 698.07 170.121 697.285 170.443 696.6C170.771 695.908 171.234 695.366 171.832 694.974C172.43 694.575 173.139 694.376 173.959 694.376C174.404 694.376 174.814 694.446 175.189 694.587C175.564 694.728 175.896 694.927 176.183 695.185C176.476 695.442 176.719 695.75 176.912 696.107H177.018V694.543H178.547V703.859C178.547 704.562 178.374 705.175 178.028 705.696C177.688 706.218 177.202 706.622 176.569 706.909C175.937 707.196 175.192 707.34 174.337 707.34ZM174.258 702.181C174.844 702.181 175.345 702.046 175.761 701.776C176.177 701.501 176.496 701.123 176.719 700.643C176.947 700.162 177.062 699.605 177.062 698.973V698.955C177.062 698.328 176.947 697.771 176.719 697.285C176.496 696.799 176.177 696.418 175.761 696.143C175.345 695.867 174.844 695.729 174.258 695.729C173.678 695.729 173.183 695.867 172.772 696.143C172.368 696.418 172.058 696.799 171.841 697.285C171.63 697.771 171.524 698.328 171.524 698.955V698.973C171.524 699.605 171.63 700.162 171.841 700.643C172.058 701.123 172.368 701.501 172.772 701.776C173.183 702.046 173.678 702.181 174.258 702.181ZM181.351 704V694.543H182.88V695.949H183.012C183.193 695.451 183.498 695.064 183.926 694.789C184.359 694.514 184.893 694.376 185.525 694.376C185.672 694.376 185.815 694.385 185.956 694.402C186.103 694.414 186.211 694.426 186.281 694.438V695.923C186.129 695.894 185.977 695.873 185.824 695.861C185.678 695.844 185.52 695.835 185.35 695.835C184.869 695.835 184.441 695.932 184.066 696.125C183.697 696.312 183.407 696.579 183.196 696.925C182.985 697.271 182.88 697.675 182.88 698.138V704H181.351ZM191.748 704.167C190.846 704.167 190.072 703.968 189.428 703.569C188.783 703.171 188.285 702.608 187.934 701.882C187.588 701.155 187.415 700.297 187.415 699.307V699.298C187.415 698.319 187.588 697.461 187.934 696.723C188.285 695.984 188.777 695.41 189.41 695C190.049 694.584 190.796 694.376 191.651 694.376C192.513 694.376 193.251 694.575 193.866 694.974C194.487 695.366 194.962 695.92 195.29 696.635C195.624 697.344 195.791 698.17 195.791 699.113V699.711H188.206V698.489H195.009L194.253 699.605V698.999C194.253 698.255 194.142 697.643 193.919 697.162C193.696 696.682 193.389 696.324 192.996 696.09C192.604 695.855 192.152 695.738 191.643 695.738C191.133 695.738 190.679 695.861 190.28 696.107C189.882 696.354 189.565 696.72 189.331 697.206C189.097 697.692 188.979 698.29 188.979 698.999V699.605C188.979 700.279 189.094 700.854 189.322 701.328C189.551 701.803 189.873 702.169 190.289 702.427C190.711 702.679 191.209 702.805 191.783 702.805C192.211 702.805 192.583 702.746 192.899 702.629C193.216 702.512 193.477 702.362 193.682 702.181C193.887 701.999 194.03 701.812 194.112 701.618L194.147 701.539H195.677L195.659 701.609C195.577 701.938 195.431 702.254 195.22 702.559C195.015 702.857 194.745 703.13 194.411 703.376C194.083 703.616 193.696 703.81 193.251 703.956C192.806 704.097 192.305 704.167 191.748 704.167ZM201.39 704.167C200.687 704.167 200.065 704.062 199.526 703.851C198.987 703.634 198.554 703.332 198.226 702.945C197.903 702.553 197.713 702.096 197.654 701.574H199.219C199.348 701.973 199.597 702.292 199.966 702.532C200.341 702.772 200.833 702.893 201.442 702.893C201.864 702.893 202.236 702.831 202.559 702.708C202.887 702.579 203.142 702.406 203.323 702.189C203.511 701.973 203.604 701.721 203.604 701.434V701.416C203.604 701.094 203.476 700.821 203.218 700.599C202.966 700.37 202.55 700.186 201.97 700.045L200.502 699.693C199.617 699.482 198.967 699.175 198.551 698.771C198.135 698.36 197.927 697.815 197.927 697.136V697.127C197.927 696.6 198.079 696.128 198.384 695.712C198.694 695.296 199.113 694.971 199.641 694.736C200.174 694.496 200.774 694.376 201.442 694.376C202.104 694.376 202.69 694.481 203.2 694.692C203.716 694.897 204.129 695.193 204.439 695.58C204.756 695.961 204.946 696.406 205.011 696.916V696.925H203.517H203.508C203.414 696.544 203.188 696.236 202.831 696.002C202.474 695.768 202.008 695.65 201.434 695.65C201.059 695.65 200.725 695.712 200.432 695.835C200.145 695.952 199.916 696.116 199.746 696.327C199.576 696.532 199.491 696.775 199.491 697.057V697.074C199.491 697.396 199.617 697.663 199.869 697.874C200.121 698.085 200.522 698.258 201.073 698.393L202.532 698.744C203.423 698.961 204.085 699.271 204.519 699.676C204.952 700.08 205.169 700.622 205.169 701.302V701.319C205.169 701.876 205.002 702.371 204.668 702.805C204.34 703.232 203.889 703.566 203.314 703.807C202.746 704.047 202.104 704.167 201.39 704.167ZM210.601 704.167C209.897 704.167 209.276 704.062 208.737 703.851C208.198 703.634 207.765 703.332 207.437 702.945C207.114 702.553 206.924 702.096 206.865 701.574H208.43C208.559 701.973 208.808 702.292 209.177 702.532C209.552 702.772 210.044 702.893 210.653 702.893C211.075 702.893 211.447 702.831 211.77 702.708C212.098 702.579 212.353 702.406 212.534 702.189C212.722 701.973 212.815 701.721 212.815 701.434V701.416C212.815 701.094 212.687 700.821 212.429 700.599C212.177 700.37 211.761 700.186 211.181 700.045L209.713 699.693C208.828 699.482 208.178 699.175 207.762 698.771C207.346 698.36 207.138 697.815 207.138 697.136V697.127C207.138 696.6 207.29 696.128 207.595 695.712C207.905 695.296 208.324 694.971 208.852 694.736C209.385 694.496 209.985 694.376 210.653 694.376C211.315 694.376 211.901 694.481 212.411 694.692C212.927 694.897 213.34 695.193 213.65 695.58C213.967 695.961 214.157 696.406 214.222 696.916V696.925H212.728H212.719C212.625 696.544 212.399 696.236 212.042 696.002C211.685 695.768 211.219 695.65 210.645 695.65C210.27 695.65 209.936 695.712 209.643 695.835C209.355 695.952 209.127 696.116 208.957 696.327C208.787 696.532 208.702 696.775 208.702 697.057V697.074C208.702 697.396 208.828 697.663 209.08 697.874C209.332 698.085 209.733 698.258 210.284 698.393L211.743 698.744C212.634 698.961 213.296 699.271 213.729 699.676C214.163 700.08 214.38 700.622 214.38 701.302V701.319C214.38 701.876 214.213 702.371 213.879 702.805C213.551 703.232 213.1 703.566 212.525 703.807C211.957 704.047 211.315 704.167 210.601 704.167ZM217.966 704.088C217.655 704.088 217.389 703.977 217.166 703.754C216.943 703.531 216.832 703.265 216.832 702.954C216.832 702.638 216.943 702.371 217.166 702.154C217.389 701.932 217.655 701.82 217.966 701.82C218.282 701.82 218.549 701.932 218.766 702.154C218.988 702.371 219.1 702.638 219.1 702.954C219.1 703.265 218.988 703.531 218.766 703.754C218.549 703.977 218.282 704.088 217.966 704.088Z" fill="#2C6A72" fill-opacity="0.4"/>
<line x1="319.5" y1="-2.18557e-08" x2="319.5" y2="1081" stroke="#2C6A72" stroke-opacity="0.1"/>
</svg>
