<svg width="1300" height="100" viewBox="0 0 1300 100" fill="none" xmlns="http://www.w3.org/2000/svg">
<g filter="url(#filter0_b_311_119)">
<rect width="1300" height="100" rx="20" fill="#D9D9D9" fill-opacity="0.01"/>
<rect x="0.5" y="0.5" width="1299" height="99" rx="19.5" stroke="url(#paint0_linear_311_119)" stroke-opacity="0.5"/>
</g>
<path d="M86.752 35.104V35.616C85.824 35.616 85.088 36.512 85.088 38.816V58.688C85.088 59.84 85.28 60.64 85.568 61.152C85.888 61.664 86.304 61.888 86.752 61.888V62.4C85.44 62.24 84.128 62.144 82.816 62.144C81.472 62.144 80.16 62.24 78.848 62.4V61.888C79.776 61.888 80.512 60.992 80.512 58.688V36.512L72.288 57.504H71.744L62.976 38.528V58.688C62.976 59.84 63.168 60.64 63.456 61.152C63.776 61.664 64.192 61.888 64.64 61.888V62.4C64.032 62.24 63.36 62.144 62.72 62.144C62.08 62.144 61.408 62.24 60.8 62.4V61.888C61.728 61.888 62.464 60.992 62.464 58.688V38.816C62.464 37.664 62.272 36.864 61.984 36.352C61.664 35.84 61.248 35.616 60.8 35.616V35.104C61.696 35.264 62.688 35.328 63.68 35.328C64.64 35.328 65.6 35.264 66.432 35.104L73.984 51.68L80.544 35.104H80.576C81.408 35.264 82.432 35.328 83.488 35.328C84.64 35.328 85.792 35.232 86.752 35.104ZM105.052 58.432L105.308 58.688C104.092 60.704 101.276 62.4 97.9795 62.4C92.3475 62.4 88.9875 58.368 88.9875 53.408C88.9875 48.448 92.0275 44.416 97.4355 44.416C100.732 44.416 104.892 46.528 105.308 51.552H92.9235C92.9235 51.872 92.9555 52.192 92.9555 52.512C93.3075 58.176 96.8915 60.416 100.092 60.416C100.412 60.416 100.764 60.416 101.084 60.352C103.42 60.032 104.476 59.072 105.052 58.432ZM96.3795 44.992C94.2355 45.344 93.0195 47.52 92.9235 51.04H100.988C100.796 47.072 98.8435 44.96 96.8275 44.96C96.6995 44.96 96.5395 44.96 96.3795 44.992ZM125.848 59.36C126.168 59.872 126.584 60.096 127.032 60.096V60.608C124.856 60.672 121.944 61.76 120.824 62.368V58.304C119.704 60.96 117.016 62.4 114.808 62.4C110.2 62.4 107.8 58.816 107.8 54.08C107.8 48.192 111.16 44.384 116.792 44.384C118.552 44.384 119.928 45.056 120.824 45.664V38.592C120.824 37.472 120.632 36.672 120.312 36.16C120.024 35.648 119.608 35.392 119.128 35.392V34.912C119.256 34.944 119.448 34.944 119.608 34.944C121.08 34.944 123.672 34.368 125.368 33.312V56.896C125.368 58.048 125.56 58.848 125.848 59.36ZM116.664 60.864C118.264 60.864 119.928 59.776 120.824 57.28V47.136C120.024 45.728 118.808 44.928 117.016 44.928C113.784 44.928 112.408 48.736 112.408 53.408C112.408 58.08 114.232 60.864 116.664 60.864ZM148.278 56.768H148.79L148.054 62.4C144.885 62.304 141.75 62.272 138.582 62.272C135.766 62.272 132.95 62.304 130.134 62.368C129.846 62.4 129.622 62.4 129.493 62.4H129.238V61.888C130.166 61.888 130.902 60.992 130.902 58.688V38.816C130.902 37.664 130.71 36.864 130.422 36.352C130.102 35.84 129.686 35.616 129.238 35.616V35.104C130.549 35.264 131.862 35.36 133.174 35.36C134.518 35.36 135.83 35.264 137.142 35.104V35.616C136.214 35.616 135.446 36.512 135.446 38.816V58.592C135.446 60.864 136.214 61.76 137.142 61.76H142.422C145.398 61.76 147.894 59.712 148.278 56.768ZM154.111 41.664C152.479 41.664 151.167 40.352 151.167 38.72C151.167 37.088 152.479 35.744 154.111 35.744C155.743 35.744 157.087 37.088 157.087 38.72C157.087 40.352 155.743 41.664 154.111 41.664ZM179.135 61.152C179.423 61.664 179.839 61.92 180.319 61.92V62.4C179.007 62.24 177.695 62.144 176.351 62.144C175.039 62.144 173.727 62.24 172.415 62.4V61.92C173.343 61.92 174.079 60.992 174.079 58.72V50.048C174.079 47.2 173.023 45.952 170.975 45.952C169.087 45.952 167.455 47.392 166.047 49.216L162.015 55.52L161.503 56.352C159.647 59.328 157.343 62.4 154.847 62.4C151.935 62.4 151.839 59.072 151.839 58.688V49.728C151.839 48.576 151.647 47.776 151.359 47.264C151.039 46.752 150.623 46.528 150.175 46.528V46.016C150.303 46.048 150.495 46.048 150.655 46.048C152.127 46.048 154.687 45.472 156.383 44.416V57.76C156.383 58.24 156.447 60 157.375 60C158.463 60 160.031 57.76 161.407 55.52C161.439 55.488 161.471 55.424 161.503 55.392V49.728C161.503 48.576 161.311 47.776 161.023 47.264C160.703 46.752 160.287 46.528 159.807 46.528V46.016C159.935 46.048 160.127 46.048 160.287 46.048C161.759 46.048 164.351 45.472 166.047 44.416V48.384C166.975 47.232 167.935 46.272 169.023 45.6C169.087 45.568 169.119 45.536 169.183 45.504C169.279 45.44 169.375 45.408 169.439 45.344H169.471C170.591 44.736 171.839 44.416 173.183 44.416C175.999 44.416 178.623 46.048 178.623 49.728V58.72C178.623 59.84 178.815 60.64 179.135 61.152ZM166.527 61.152C166.847 61.664 167.263 61.92 167.711 61.92V62.4C166.399 62.24 165.087 62.144 163.775 62.144C162.463 62.144 161.119 62.24 159.807 62.4V61.92C160.735 61.92 161.503 60.992 161.503 58.72V57.76L162.911 55.52C164.031 53.76 165.503 51.392 166.047 50.496V58.72C166.047 59.84 166.239 60.64 166.527 61.152ZM193.445 49.664L198.821 59.04C199.557 60.416 200.677 61.888 201.477 61.888V62.4C200.133 62.208 198.789 62.144 197.445 62.144C196.101 62.144 194.757 62.208 193.413 62.4V61.888C193.765 61.888 194.085 61.6 194.085 60.928C194.085 60.384 193.893 59.648 193.349 58.656L190.085 52.928L188.165 54.816V58.688C188.165 59.84 188.357 60.64 188.645 61.152C188.965 61.664 189.381 61.888 189.829 61.888V62.4C188.517 62.24 187.205 62.144 185.893 62.144C184.549 62.144 183.237 62.24 181.925 62.4V61.888C182.853 61.888 183.589 60.96 183.589 58.688V38.624C183.589 37.472 183.429 36.672 183.109 36.16C182.821 35.648 182.405 35.424 181.925 35.424V34.912C182.053 34.944 182.245 34.944 182.405 34.944C183.877 34.944 186.469 34.368 188.165 33.312V54.112L195.269 47.136C195.877 46.56 196.101 45.952 196.101 45.504C196.101 45.152 195.941 44.896 195.653 44.896V44.416H195.717C196.357 44.576 196.997 44.64 197.637 44.64C198.277 44.64 198.949 44.576 199.557 44.416V44.896C198.725 44.896 197.445 45.728 196.229 46.944L193.445 49.664ZM215.911 35.104H215.975C220.903 35.104 224.359 38.304 224.359 42.464C224.359 46.976 221.511 50.272 215.239 50.272H209.383V58.688C209.383 60.992 210.151 61.888 211.079 61.888V62.4C209.767 62.24 208.455 62.144 207.143 62.144C205.799 62.144 204.487 62.24 203.175 62.4V61.888C204.103 61.888 204.839 60.992 204.839 58.688V38.816C204.839 36.512 204.103 35.616 203.175 35.616V35.104C204.167 35.264 205.351 35.328 206.503 35.328C207.207 35.328 207.911 35.296 208.551 35.264C210.983 35.168 213.447 35.104 215.911 35.104ZM219.815 42.688C219.815 38.784 216.647 35.616 212.743 35.616H211.847C210.247 35.616 209.383 36.512 209.383 38.816V49.76H212.743C216.647 49.76 219.815 46.592 219.815 42.688ZM239.718 49.12L239.366 48.992C239.014 47.648 238.054 46.432 236.39 46.432C234.502 46.432 232.902 48.096 232.134 51.072V58.688C232.134 59.84 232.326 60.64 232.614 61.152C232.934 61.664 233.35 61.888 233.798 61.888V62.4C232.486 62.24 231.174 62.144 229.862 62.144C228.55 62.144 227.206 62.24 225.894 62.4V61.888C226.822 61.888 227.59 60.96 227.59 58.688V49.696C227.59 48.576 227.398 47.776 227.078 47.264C226.79 46.752 226.374 46.496 225.894 46.496V46.016C226.022 46.048 226.214 46.048 226.374 46.048C227.846 46.048 230.438 45.472 232.134 44.416V50.048C232.902 47.52 235.014 44.256 238.342 44.256C239.43 44.256 240.518 44.512 241.414 45.024L239.718 49.12ZM250.886 44.416C256.518 44.416 259.878 48.416 259.878 53.408C259.878 58.368 256.518 62.4 250.886 62.4C245.254 62.4 241.894 58.368 241.894 53.408C241.894 48.416 245.254 44.416 250.886 44.416ZM251.782 61.856C254.31 61.568 255.334 58.816 255.334 55.232C255.334 54.496 255.302 53.728 255.206 52.928C254.726 48.48 253.19 44.928 250.374 44.928C250.246 44.928 250.118 44.96 249.99 44.96C247.462 45.216 246.438 47.968 246.438 51.552C246.438 52.288 246.47 53.056 246.566 53.856C247.046 58.336 248.614 61.888 251.43 61.888C251.526 61.888 251.654 61.856 251.782 61.856Z" fill="white"/>
<path d="M1200 55H1240" stroke="white" stroke-width="3" stroke-linecap="round"/>
<path d="M1210 45H1240" stroke="white" stroke-width="3" stroke-linecap="round"/>
<defs>
<filter id="filter0_b_311_119" x="-50" y="-50" width="1400" height="200" filterUnits="userSpaceOnUse" color-interpolation-filters="sRGB">
<feFlood flood-opacity="0" result="BackgroundImageFix"/>
<feGaussianBlur in="BackgroundImageFix" stdDeviation="25"/>
<feComposite in2="SourceAlpha" operator="in" result="effect1_backgroundBlur_311_119"/>
<feBlend mode="normal" in="SourceGraphic" in2="effect1_backgroundBlur_311_119" result="shape"/>
</filter>
<linearGradient id="paint0_linear_311_119" x1="0" y1="0" x2="1300" y2="100" gradientUnits="userSpaceOnUse">
<stop stop-color="white"/>
<stop offset="1" stop-color="#E1E1E1"/>
</linearGradient>
</defs>
</svg>
